<?xml version="1.0" encoding="utf-8" standalone="no"?>
<!DOCTYPE svg PUBLIC "-//W3C//DTD SVG 1.1//EN"
  "http://www.w3.org/Graphics/SVG/1.1/DTD/svg11.dtd">
<svg xmlns:xlink="http://www.w3.org/1999/xlink" width="856.554141pt" height="280.87625pt" viewBox="0 0 856.554141 280.87625" xmlns="http://www.w3.org/2000/svg" version="1.1">
 <metadata>
  <rdf:RDF xmlns:dc="http://purl.org/dc/elements/1.1/" xmlns:cc="http://creativecommons.org/ns#" xmlns:rdf="http://www.w3.org/1999/02/22-rdf-syntax-ns#">
   <cc:Work>
    <dc:type rdf:resource="http://purl.org/dc/dcmitype/StillImage"/>
    <dc:date>2026-06-20T18:48:27.187377</dc:date>
    <dc:format>image/svg+xml</dc:format>
    <dc:creator>
     <cc:Agent>
      <dc:title>Matplotlib v3.10.7, https://matplotlib.org/</dc:title>
     </cc:Agent>
    </dc:creator>
   </cc:Work>
  </rdf:RDF>
 </metadata>
 <defs>
  <style type="text/css">*{stroke-linejoin: round; stroke-linecap: butt}</style>
 </defs>
 <g id="figure_1">
  <g id="patch_1">
   <path d="M 0 280.87625 
L 856.554141 280.87625 
L 856.554141 0 
L 0 0 
z
" style="fill: #ffffff"/>
  </g>
  <g id="axes_1">
   <g id="patch_2">
    <path d="M 31.8 256.998125 
L 421.721497 256.998125 
L 421.721497 22.318125 
L 31.8 22.318125 
z
" style="fill: #ffffff"/>
   </g>
   <g id="patch_3">
    <path d="M 49.523704 62589.276267 
L 56.613186 62589.276267 
L 56.613186 32.985398 
L 49.523704 32.985398 
z
" clip-path="url(#pe734f8cd9b)" style="fill: #1f77b4"/>
   </g>
   <g id="patch_4">
    <path d="M 56.613186 62589.276267 
L 63.702668 62589.276267 
L 63.702668 62589.276267 
L 56.613186 62589.276267 
z
" clip-path="url(#pe734f8cd9b)" style="fill: #1f77b4"/>
   </g>
   <g id="patch_5">
    <path d="M 63.702668 62589.276267 
L 70.79215 62589.276267 
L 70.79215 62589.276267 
L 63.702668 62589.276267 
z
" clip-path="url(#pe734f8cd9b)" style="fill: #1f77b4"/>
   </g>
   <g id="patch_6">
    <path d="M 70.79215 62589.276267 
L 77.881631 62589.276267 
L 77.881631 62589.276267 
L 70.79215 62589.276267 
z
" clip-path="url(#pe734f8cd9b)" style="fill: #1f77b4"/>
   </g>
   <g id="patch_7">
    <path d="M 77.881631 62589.276267 
L 84.971113 62589.276267 
L 84.971113 62589.276267 
L 77.881631 62589.276267 
z
" clip-path="url(#pe734f8cd9b)" style="fill: #1f77b4"/>
   </g>
   <g id="patch_8">
    <path d="M 84.971113 62589.276267 
L 92.060595 62589.276267 
L 92.060595 62589.276267 
L 84.971113 62589.276267 
z
" clip-path="url(#pe734f8cd9b)" style="fill: #1f77b4"/>
   </g>
   <g id="patch_9">
    <path d="M 92.060595 62589.276267 
L 99.150077 62589.276267 
L 99.150077 62589.276267 
L 92.060595 62589.276267 
z
" clip-path="url(#pe734f8cd9b)" style="fill: #1f77b4"/>
   </g>
   <g id="patch_10">
    <path d="M 99.150077 62589.276267 
L 106.239558 62589.276267 
L 106.239558 62589.276267 
L 99.150077 62589.276267 
z
" clip-path="url(#pe734f8cd9b)" style="fill: #1f77b4"/>
   </g>
   <g id="patch_11">
    <path d="M 106.239558 62589.276267 
L 113.32904 62589.276267 
L 113.32904 62589.276267 
L 106.239558 62589.276267 
z
" clip-path="url(#pe734f8cd9b)" style="fill: #1f77b4"/>
   </g>
   <g id="patch_12">
    <path d="M 113.32904 62589.276267 
L 120.418522 62589.276267 
L 120.418522 62589.276267 
L 113.32904 62589.276267 
z
" clip-path="url(#pe734f8cd9b)" style="fill: #1f77b4"/>
   </g>
   <g id="patch_13">
    <path d="M 120.418522 62589.276267 
L 127.508004 62589.276267 
L 127.508004 62589.276267 
L 120.418522 62589.276267 
z
" clip-path="url(#pe734f8cd9b)" style="fill: #1f77b4"/>
   </g>
   <g id="patch_14">
    <path d="M 127.508004 62589.276267 
L 134.597486 62589.276267 
L 134.597486 62589.276267 
L 127.508004 62589.276267 
z
" clip-path="url(#pe734f8cd9b)" style="fill: #1f77b4"/>
   </g>
   <g id="patch_15">
    <path d="M 134.597486 62589.276267 
L 141.686967 62589.276267 
L 141.686967 62589.276267 
L 134.597486 62589.276267 
z
" clip-path="url(#pe734f8cd9b)" style="fill: #1f77b4"/>
   </g>
   <g id="patch_16">
    <path d="M 141.686967 62589.276267 
L 148.776449 62589.276267 
L 148.776449 62589.276267 
L 141.686967 62589.276267 
z
" clip-path="url(#pe734f8cd9b)" style="fill: #1f77b4"/>
   </g>
   <g id="patch_17">
    <path d="M 148.776449 62589.276267 
L 155.865931 62589.276267 
L 155.865931 62589.276267 
L 148.776449 62589.276267 
z
" clip-path="url(#pe734f8cd9b)" style="fill: #1f77b4"/>
   </g>
   <g id="patch_18">
    <path d="M 155.865931 62589.276267 
L 162.955413 62589.276267 
L 162.955413 62589.276267 
L 155.865931 62589.276267 
z
" clip-path="url(#pe734f8cd9b)" style="fill: #1f77b4"/>
   </g>
   <g id="patch_19">
    <path d="M 162.955413 62589.276267 
L 170.044894 62589.276267 
L 170.044894 62589.276267 
L 162.955413 62589.276267 
z
" clip-path="url(#pe734f8cd9b)" style="fill: #1f77b4"/>
   </g>
   <g id="patch_20">
    <path d="M 170.044894 62589.276267 
L 177.134376 62589.276267 
L 177.134376 62589.276267 
L 170.044894 62589.276267 
z
" clip-path="url(#pe734f8cd9b)" style="fill: #1f77b4"/>
   </g>
   <g id="patch_21">
    <path d="M 177.134376 62589.276267 
L 184.223858 62589.276267 
L 184.223858 62589.276267 
L 177.134376 62589.276267 
z
" clip-path="url(#pe734f8cd9b)" style="fill: #1f77b4"/>
   </g>
   <g id="patch_22">
    <path d="M 184.223858 62589.276267 
L 191.31334 62589.276267 
L 191.31334 62589.276267 
L 184.223858 62589.276267 
z
" clip-path="url(#pe734f8cd9b)" style="fill: #1f77b4"/>
   </g>
   <g id="patch_23">
    <path d="M 191.31334 62589.276267 
L 198.402821 62589.276267 
L 198.402821 62589.276267 
L 191.31334 62589.276267 
z
" clip-path="url(#pe734f8cd9b)" style="fill: #1f77b4"/>
   </g>
   <g id="patch_24">
    <path d="M 198.402821 62589.276267 
L 205.492303 62589.276267 
L 205.492303 62589.276267 
L 198.402821 62589.276267 
z
" clip-path="url(#pe734f8cd9b)" style="fill: #1f77b4"/>
   </g>
   <g id="patch_25">
    <path d="M 205.492303 62589.276267 
L 212.581785 62589.276267 
L 212.581785 62589.276267 
L 205.492303 62589.276267 
z
" clip-path="url(#pe734f8cd9b)" style="fill: #1f77b4"/>
   </g>
   <g id="patch_26">
    <path d="M 212.581785 62589.276267 
L 219.671267 62589.276267 
L 219.671267 62589.276267 
L 212.581785 62589.276267 
z
" clip-path="url(#pe734f8cd9b)" style="fill: #1f77b4"/>
   </g>
   <g id="patch_27">
    <path d="M 219.671267 62589.276267 
L 226.760748 62589.276267 
L 226.760748 62589.276267 
L 219.671267 62589.276267 
z
" clip-path="url(#pe734f8cd9b)" style="fill: #1f77b4"/>
   </g>
   <g id="patch_28">
    <path d="M 226.760748 62589.276267 
L 233.85023 62589.276267 
L 233.85023 241.1646 
L 226.760748 241.1646 
z
" clip-path="url(#pe734f8cd9b)" style="fill: #1f77b4"/>
   </g>
   <g id="patch_29">
    <path d="M 233.85023 62589.276267 
L 240.939712 62589.276267 
L 240.939712 62589.276267 
L 233.85023 62589.276267 
z
" clip-path="url(#pe734f8cd9b)" style="fill: #1f77b4"/>
   </g>
   <g id="patch_30">
    <path d="M 240.939712 62589.276267 
L 248.029194 62589.276267 
L 248.029194 62589.276267 
L 240.939712 62589.276267 
z
" clip-path="url(#pe734f8cd9b)" style="fill: #1f77b4"/>
   </g>
   <g id="patch_31">
    <path d="M 248.029194 62589.276267 
L 255.118675 62589.276267 
L 255.118675 62589.276267 
L 248.029194 62589.276267 
z
" clip-path="url(#pe734f8cd9b)" style="fill: #1f77b4"/>
   </g>
   <g id="patch_32">
    <path d="M 255.118675 62589.276267 
L 262.208157 62589.276267 
L 262.208157 62589.276267 
L 255.118675 62589.276267 
z
" clip-path="url(#pe734f8cd9b)" style="fill: #1f77b4"/>
   </g>
   <g id="patch_33">
    <path d="M 262.208157 62589.276267 
L 269.297639 62589.276267 
L 269.297639 62589.276267 
L 262.208157 62589.276267 
z
" clip-path="url(#pe734f8cd9b)" style="fill: #1f77b4"/>
   </g>
   <g id="patch_34">
    <path d="M 269.297639 62589.276267 
L 276.387121 62589.276267 
L 276.387121 62589.276267 
L 269.297639 62589.276267 
z
" clip-path="url(#pe734f8cd9b)" style="fill: #1f77b4"/>
   </g>
   <g id="patch_35">
    <path d="M 276.387121 62589.276267 
L 283.476602 62589.276267 
L 283.476602 62589.276267 
L 276.387121 62589.276267 
z
" clip-path="url(#pe734f8cd9b)" style="fill: #1f77b4"/>
   </g>
   <g id="patch_36">
    <path d="M 283.476602 62589.276267 
L 290.566084 62589.276267 
L 290.566084 62589.276267 
L 283.476602 62589.276267 
z
" clip-path="url(#pe734f8cd9b)" style="fill: #1f77b4"/>
   </g>
   <g id="patch_37">
    <path d="M 290.566084 62589.276267 
L 297.655566 62589.276267 
L 297.655566 62589.276267 
L 290.566084 62589.276267 
z
" clip-path="url(#pe734f8cd9b)" style="fill: #1f77b4"/>
   </g>
   <g id="patch_38">
    <path d="M 297.655566 62589.276267 
L 304.745048 62589.276267 
L 304.745048 62589.276267 
L 297.655566 62589.276267 
z
" clip-path="url(#pe734f8cd9b)" style="fill: #1f77b4"/>
   </g>
   <g id="patch_39">
    <path d="M 304.745048 62589.276267 
L 311.83453 62589.276267 
L 311.83453 62589.276267 
L 304.745048 62589.276267 
z
" clip-path="url(#pe734f8cd9b)" style="fill: #1f77b4"/>
   </g>
   <g id="patch_40">
    <path d="M 311.83453 62589.276267 
L 318.924011 62589.276267 
L 318.924011 62589.276267 
L 311.83453 62589.276267 
z
" clip-path="url(#pe734f8cd9b)" style="fill: #1f77b4"/>
   </g>
   <g id="patch_41">
    <path d="M 318.924011 62589.276267 
L 326.013493 62589.276267 
L 326.013493 62589.276267 
L 318.924011 62589.276267 
z
" clip-path="url(#pe734f8cd9b)" style="fill: #1f77b4"/>
   </g>
   <g id="patch_42">
    <path d="M 326.013493 62589.276267 
L 333.102975 62589.276267 
L 333.102975 62589.276267 
L 326.013493 62589.276267 
z
" clip-path="url(#pe734f8cd9b)" style="fill: #1f77b4"/>
   </g>
   <g id="patch_43">
    <path d="M 333.102975 62589.276267 
L 340.192457 62589.276267 
L 340.192457 62589.276267 
L 333.102975 62589.276267 
z
" clip-path="url(#pe734f8cd9b)" style="fill: #1f77b4"/>
   </g>
   <g id="patch_44">
    <path d="M 340.192457 62589.276267 
L 347.281938 62589.276267 
L 347.281938 62589.276267 
L 340.192457 62589.276267 
z
" clip-path="url(#pe734f8cd9b)" style="fill: #1f77b4"/>
   </g>
   <g id="patch_45">
    <path d="M 347.281938 62589.276267 
L 354.37142 62589.276267 
L 354.37142 62589.276267 
L 347.281938 62589.276267 
z
" clip-path="url(#pe734f8cd9b)" style="fill: #1f77b4"/>
   </g>
   <g id="patch_46">
    <path d="M 354.37142 62589.276267 
L 361.460902 62589.276267 
L 361.460902 62589.276267 
L 354.37142 62589.276267 
z
" clip-path="url(#pe734f8cd9b)" style="fill: #1f77b4"/>
   </g>
   <g id="patch_47">
    <path d="M 361.460902 62589.276267 
L 368.550384 62589.276267 
L 368.550384 62589.276267 
L 361.460902 62589.276267 
z
" clip-path="url(#pe734f8cd9b)" style="fill: #1f77b4"/>
   </g>
   <g id="patch_48">
    <path d="M 368.550384 62589.276267 
L 375.639865 62589.276267 
L 375.639865 62589.276267 
L 368.550384 62589.276267 
z
" clip-path="url(#pe734f8cd9b)" style="fill: #1f77b4"/>
   </g>
   <g id="patch_49">
    <path d="M 375.639865 62589.276267 
L 382.729347 62589.276267 
L 382.729347 62589.276267 
L 375.639865 62589.276267 
z
" clip-path="url(#pe734f8cd9b)" style="fill: #1f77b4"/>
   </g>
   <g id="patch_50">
    <path d="M 382.729347 62589.276267 
L 389.818829 62589.276267 
L 389.818829 62589.276267 
L 382.729347 62589.276267 
z
" clip-path="url(#pe734f8cd9b)" style="fill: #1f77b4"/>
   </g>
   <g id="patch_51">
    <path d="M 389.818829 62589.276267 
L 396.908311 62589.276267 
L 396.908311 62589.276267 
L 389.818829 62589.276267 
z
" clip-path="url(#pe734f8cd9b)" style="fill: #1f77b4"/>
   </g>
   <g id="patch_52">
    <path d="M 396.908311 62589.276267 
L 403.997792 62589.276267 
L 403.997792 246.330852 
L 396.908311 246.330852 
z
" clip-path="url(#pe734f8cd9b)" style="fill: #1f77b4"/>
   </g>
   <g id="matplotlib.axis_1">
    <g id="xtick_1">
     <g id="line2d_1">
      <defs>
       <path id="m273a67f776" d="M 0 0 
L 0 3.5 
" style="stroke: #000000; stroke-width: 0.8"/>
      </defs>
      <g>
       <use xlink:href="#m273a67f776" x="49.700853" y="256.998125" style="stroke: #000000; stroke-width: 0.8"/>
      </g>
     </g>
     <g id="text_1">
      <!-- 0 -->
      <g transform="translate(46.519603 271.596562) scale(0.1 -0.1)">
       <defs>
        <path id="DejaVuSans-30" d="M 2034 4250 
Q 1547 4250 1301 3770 
Q 1056 3291 1056 2328 
Q 1056 1369 1301 889 
Q 1547 409 2034 409 
Q 2525 409 2770 889 
Q 3016 1369 3016 2328 
Q 3016 3291 2770 3770 
Q 2525 4250 2034 4250 
z
M 2034 4750 
Q 2819 4750 3233 4129 
Q 3647 3509 3647 2328 
Q 3647 1150 3233 529 
Q 2819 -91 2034 -91 
Q 1250 -91 836 529 
Q 422 1150 422 2328 
Q 422 3509 836 4129 
Q 1250 4750 2034 4750 
z
" transform="scale(0.015625)"/>
       </defs>
       <use xlink:href="#DejaVuSans-30"/>
      </g>
     </g>
    </g>
    <g id="xtick_2">
     <g id="line2d_2">
      <g>
       <use xlink:href="#m273a67f776" x="120.560241" y="256.998125" style="stroke: #000000; stroke-width: 0.8"/>
      </g>
     </g>
     <g id="text_2">
      <!-- 2000 -->
      <g transform="translate(107.835241 271.596562) scale(0.1 -0.1)">
       <defs>
        <path id="DejaVuSans-32" d="M 1228 531 
L 3431 531 
L 3431 0 
L 469 0 
L 469 531 
Q 828 903 1448 1529 
Q 2069 2156 2228 2338 
Q 2531 2678 2651 2914 
Q 2772 3150 2772 3378 
Q 2772 3750 2511 3984 
Q 2250 4219 1831 4219 
Q 1534 4219 1204 4116 
Q 875 4013 500 3803 
L 500 4441 
Q 881 4594 1212 4672 
Q 1544 4750 1819 4750 
Q 2544 4750 2975 4387 
Q 3406 4025 3406 3419 
Q 3406 3131 3298 2873 
Q 3191 2616 2906 2266 
Q 2828 2175 2409 1742 
Q 1991 1309 1228 531 
z
" transform="scale(0.015625)"/>
       </defs>
       <use xlink:href="#DejaVuSans-32"/>
       <use xlink:href="#DejaVuSans-30" transform="translate(63.623047 0)"/>
       <use xlink:href="#DejaVuSans-30" transform="translate(127.246094 0)"/>
       <use xlink:href="#DejaVuSans-30" transform="translate(190.869141 0)"/>
      </g>
     </g>
    </g>
    <g id="xtick_3">
     <g id="line2d_3">
      <g>
       <use xlink:href="#m273a67f776" x="191.419629" y="256.998125" style="stroke: #000000; stroke-width: 0.8"/>
      </g>
     </g>
     <g id="text_3">
      <!-- 4000 -->
      <g transform="translate(178.694629 271.596562) scale(0.1 -0.1)">
       <defs>
        <path id="DejaVuSans-34" d="M 2419 4116 
L 825 1625 
L 2419 1625 
L 2419 4116 
z
M 2253 4666 
L 3047 4666 
L 3047 1625 
L 3713 1625 
L 3713 1100 
L 3047 1100 
L 3047 0 
L 2419 0 
L 2419 1100 
L 313 1100 
L 313 1709 
L 2253 4666 
z
" transform="scale(0.015625)"/>
       </defs>
       <use xlink:href="#DejaVuSans-34"/>
       <use xlink:href="#DejaVuSans-30" transform="translate(63.623047 0)"/>
       <use xlink:href="#DejaVuSans-30" transform="translate(127.246094 0)"/>
       <use xlink:href="#DejaVuSans-30" transform="translate(190.869141 0)"/>
      </g>
     </g>
    </g>
    <g id="xtick_4">
     <g id="line2d_4">
      <g>
       <use xlink:href="#m273a67f776" x="262.279017" y="256.998125" style="stroke: #000000; stroke-width: 0.8"/>
      </g>
     </g>
     <g id="text_4">
      <!-- 6000 -->
      <g transform="translate(249.554017 271.596562) scale(0.1 -0.1)">
       <defs>
        <path id="DejaVuSans-36" d="M 2113 2584 
Q 1688 2584 1439 2293 
Q 1191 2003 1191 1497 
Q 1191 994 1439 701 
Q 1688 409 2113 409 
Q 2538 409 2786 701 
Q 3034 994 3034 1497 
Q 3034 2003 2786 2293 
Q 2538 2584 2113 2584 
z
M 3366 4563 
L 3366 3988 
Q 3128 4100 2886 4159 
Q 2644 4219 2406 4219 
Q 1781 4219 1451 3797 
Q 1122 3375 1075 2522 
Q 1259 2794 1537 2939 
Q 1816 3084 2150 3084 
Q 2853 3084 3261 2657 
Q 3669 2231 3669 1497 
Q 3669 778 3244 343 
Q 2819 -91 2113 -91 
Q 1303 -91 875 529 
Q 447 1150 447 2328 
Q 447 3434 972 4092 
Q 1497 4750 2381 4750 
Q 2619 4750 2861 4703 
Q 3103 4656 3366 4563 
z
" transform="scale(0.015625)"/>
       </defs>
       <use xlink:href="#DejaVuSans-36"/>
       <use xlink:href="#DejaVuSans-30" transform="translate(63.623047 0)"/>
       <use xlink:href="#DejaVuSans-30" transform="translate(127.246094 0)"/>
       <use xlink:href="#DejaVuSans-30" transform="translate(190.869141 0)"/>
      </g>
     </g>
    </g>
    <g id="xtick_5">
     <g id="line2d_5">
      <g>
       <use xlink:href="#m273a67f776" x="333.138404" y="256.998125" style="stroke: #000000; stroke-width: 0.8"/>
      </g>
     </g>
     <g id="text_5">
      <!-- 8000 -->
      <g transform="translate(320.413404 271.596562) scale(0.1 -0.1)">
       <defs>
        <path id="DejaVuSans-38" d="M 2034 2216 
Q 1584 2216 1326 1975 
Q 1069 1734 1069 1313 
Q 1069 891 1326 650 
Q 1584 409 2034 409 
Q 2484 409 2743 651 
Q 3003 894 3003 1313 
Q 3003 1734 2745 1975 
Q 2488 2216 2034 2216 
z
M 1403 2484 
Q 997 2584 770 2862 
Q 544 3141 544 3541 
Q 544 4100 942 4425 
Q 1341 4750 2034 4750 
Q 2731 4750 3128 4425 
Q 3525 4100 3525 3541 
Q 3525 3141 3298 2862 
Q 3072 2584 2669 2484 
Q 3125 2378 3379 2068 
Q 3634 1759 3634 1313 
Q 3634 634 3220 271 
Q 2806 -91 2034 -91 
Q 1263 -91 848 271 
Q 434 634 434 1313 
Q 434 1759 690 2068 
Q 947 2378 1403 2484 
z
M 1172 3481 
Q 1172 3119 1398 2916 
Q 1625 2713 2034 2713 
Q 2441 2713 2670 2916 
Q 2900 3119 2900 3481 
Q 2900 3844 2670 4047 
Q 2441 4250 2034 4250 
Q 1625 4250 1398 4047 
Q 1172 3844 1172 3481 
z
" transform="scale(0.015625)"/>
       </defs>
       <use xlink:href="#DejaVuSans-38"/>
       <use xlink:href="#DejaVuSans-30" transform="translate(63.623047 0)"/>
       <use xlink:href="#DejaVuSans-30" transform="translate(127.246094 0)"/>
       <use xlink:href="#DejaVuSans-30" transform="translate(190.869141 0)"/>
      </g>
     </g>
    </g>
    <g id="xtick_6">
     <g id="line2d_6">
      <g>
       <use xlink:href="#m273a67f776" x="403.997792" y="256.998125" style="stroke: #000000; stroke-width: 0.8"/>
      </g>
     </g>
     <g id="text_6">
      <!-- 10000 -->
      <g transform="translate(388.091542 271.596562) scale(0.1 -0.1)">
       <defs>
        <path id="DejaVuSans-31" d="M 794 531 
L 1825 531 
L 1825 4091 
L 703 3866 
L 703 4441 
L 1819 4666 
L 2450 4666 
L 2450 531 
L 3481 531 
L 3481 0 
L 794 0 
L 794 531 
z
" transform="scale(0.015625)"/>
       </defs>
       <use xlink:href="#DejaVuSans-31"/>
       <use xlink:href="#DejaVuSans-30" transform="translate(63.623047 0)"/>
       <use xlink:href="#DejaVuSans-30" transform="translate(127.246094 0)"/>
       <use xlink:href="#DejaVuSans-30" transform="translate(190.869141 0)"/>
       <use xlink:href="#DejaVuSans-30" transform="translate(254.492188 0)"/>
      </g>
     </g>
    </g>
   </g>
   <g id="matplotlib.axis_2">
    <g id="ytick_1">
     <g id="line2d_7">
      <defs>
       <path id="m2891b1a0c9" d="M 0 0 
L -3.5 0 
" style="stroke: #000000; stroke-width: 0.8"/>
      </defs>
      <g>
       <use xlink:href="#m2891b1a0c9" x="31.8" y="201.423653" style="stroke: #000000; stroke-width: 0.8"/>
      </g>
     </g>
     <g id="text_7">
      <!-- $\mathdefault{10^{2}}$ -->
      <g transform="translate(7.2 205.222871) scale(0.1 -0.1)">
       <use xlink:href="#DejaVuSans-31" transform="translate(0 0.765625)"/>
       <use xlink:href="#DejaVuSans-30" transform="translate(63.623047 0.765625)"/>
       <use xlink:href="#DejaVuSans-32" transform="translate(128.203125 39.046875) scale(0.7)"/>
      </g>
     </g>
    </g>
    <g id="ytick_2">
     <g id="line2d_8">
      <g>
       <use xlink:href="#m2891b1a0c9" x="31.8" y="139.160327" style="stroke: #000000; stroke-width: 0.8"/>
      </g>
     </g>
     <g id="text_8">
      <!-- $\mathdefault{10^{3}}$ -->
      <g transform="translate(7.2 142.959545) scale(0.1 -0.1)">
       <defs>
        <path id="DejaVuSans-33" d="M 2597 2516 
Q 3050 2419 3304 2112 
Q 3559 1806 3559 1356 
Q 3559 666 3084 287 
Q 2609 -91 1734 -91 
Q 1441 -91 1130 -33 
Q 819 25 488 141 
L 488 750 
Q 750 597 1062 519 
Q 1375 441 1716 441 
Q 2309 441 2620 675 
Q 2931 909 2931 1356 
Q 2931 1769 2642 2001 
Q 2353 2234 1838 2234 
L 1294 2234 
L 1294 2753 
L 1863 2753 
Q 2328 2753 2575 2939 
Q 2822 3125 2822 3475 
Q 2822 3834 2567 4026 
Q 2313 4219 1838 4219 
Q 1578 4219 1281 4162 
Q 984 4106 628 3988 
L 628 4550 
Q 988 4650 1302 4700 
Q 1616 4750 1894 4750 
Q 2613 4750 3031 4423 
Q 3450 4097 3450 3541 
Q 3450 3153 3228 2886 
Q 3006 2619 2597 2516 
z
" transform="scale(0.015625)"/>
       </defs>
       <use xlink:href="#DejaVuSans-31" transform="translate(0 0.765625)"/>
       <use xlink:href="#DejaVuSans-30" transform="translate(63.623047 0.765625)"/>
       <use xlink:href="#DejaVuSans-33" transform="translate(128.203125 39.046875) scale(0.7)"/>
      </g>
     </g>
    </g>
    <g id="ytick_3">
     <g id="line2d_9">
      <g>
       <use xlink:href="#m2891b1a0c9" x="31.8" y="76.897001" style="stroke: #000000; stroke-width: 0.8"/>
      </g>
     </g>
     <g id="text_9">
      <!-- $\mathdefault{10^{4}}$ -->
      <g transform="translate(7.2 80.696219) scale(0.1 -0.1)">
       <use xlink:href="#DejaVuSans-31" transform="translate(0 0.684375)"/>
       <use xlink:href="#DejaVuSans-30" transform="translate(63.623047 0.684375)"/>
       <use xlink:href="#DejaVuSans-34" transform="translate(128.203125 38.965625) scale(0.7)"/>
      </g>
     </g>
    </g>
    <g id="ytick_4">
     <g id="line2d_10">
      <defs>
       <path id="mfeea183d5e" d="M 0 0 
L -2 0 
" style="stroke: #000000; stroke-width: 0.6"/>
      </defs>
      <g>
       <use xlink:href="#mfeea183d5e" x="31.8" y="244.94385" style="stroke: #000000; stroke-width: 0.6"/>
      </g>
     </g>
    </g>
    <g id="ytick_5">
     <g id="line2d_11">
      <g>
       <use xlink:href="#mfeea183d5e" x="31.8" y="233.979822" style="stroke: #000000; stroke-width: 0.6"/>
      </g>
     </g>
    </g>
    <g id="ytick_6">
     <g id="line2d_12">
      <g>
       <use xlink:href="#mfeea183d5e" x="31.8" y="226.200721" style="stroke: #000000; stroke-width: 0.6"/>
      </g>
     </g>
    </g>
    <g id="ytick_7">
     <g id="line2d_13">
      <g>
       <use xlink:href="#mfeea183d5e" x="31.8" y="220.166781" style="stroke: #000000; stroke-width: 0.6"/>
      </g>
     </g>
    </g>
    <g id="ytick_8">
     <g id="line2d_14">
      <g>
       <use xlink:href="#mfeea183d5e" x="31.8" y="215.236694" style="stroke: #000000; stroke-width: 0.6"/>
      </g>
     </g>
    </g>
    <g id="ytick_9">
     <g id="line2d_15">
      <g>
       <use xlink:href="#mfeea183d5e" x="31.8" y="211.068364" style="stroke: #000000; stroke-width: 0.6"/>
      </g>
     </g>
    </g>
    <g id="ytick_10">
     <g id="line2d_16">
      <g>
       <use xlink:href="#mfeea183d5e" x="31.8" y="207.457592" style="stroke: #000000; stroke-width: 0.6"/>
      </g>
     </g>
    </g>
    <g id="ytick_11">
     <g id="line2d_17">
      <g>
       <use xlink:href="#mfeea183d5e" x="31.8" y="204.272666" style="stroke: #000000; stroke-width: 0.6"/>
      </g>
     </g>
    </g>
    <g id="ytick_12">
     <g id="line2d_18">
      <g>
       <use xlink:href="#mfeea183d5e" x="31.8" y="182.680524" style="stroke: #000000; stroke-width: 0.6"/>
      </g>
     </g>
    </g>
    <g id="ytick_13">
     <g id="line2d_19">
      <g>
       <use xlink:href="#mfeea183d5e" x="31.8" y="171.716496" style="stroke: #000000; stroke-width: 0.6"/>
      </g>
     </g>
    </g>
    <g id="ytick_14">
     <g id="line2d_20">
      <g>
       <use xlink:href="#mfeea183d5e" x="31.8" y="163.937395" style="stroke: #000000; stroke-width: 0.6"/>
      </g>
     </g>
    </g>
    <g id="ytick_15">
     <g id="line2d_21">
      <g>
       <use xlink:href="#mfeea183d5e" x="31.8" y="157.903455" style="stroke: #000000; stroke-width: 0.6"/>
      </g>
     </g>
    </g>
    <g id="ytick_16">
     <g id="line2d_22">
      <g>
       <use xlink:href="#mfeea183d5e" x="31.8" y="152.973368" style="stroke: #000000; stroke-width: 0.6"/>
      </g>
     </g>
    </g>
    <g id="ytick_17">
     <g id="line2d_23">
      <g>
       <use xlink:href="#mfeea183d5e" x="31.8" y="148.805038" style="stroke: #000000; stroke-width: 0.6"/>
      </g>
     </g>
    </g>
    <g id="ytick_18">
     <g id="line2d_24">
      <g>
       <use xlink:href="#mfeea183d5e" x="31.8" y="145.194266" style="stroke: #000000; stroke-width: 0.6"/>
      </g>
     </g>
    </g>
    <g id="ytick_19">
     <g id="line2d_25">
      <g>
       <use xlink:href="#mfeea183d5e" x="31.8" y="142.00934" style="stroke: #000000; stroke-width: 0.6"/>
      </g>
     </g>
    </g>
    <g id="ytick_20">
     <g id="line2d_26">
      <g>
       <use xlink:href="#mfeea183d5e" x="31.8" y="120.417198" style="stroke: #000000; stroke-width: 0.6"/>
      </g>
     </g>
    </g>
    <g id="ytick_21">
     <g id="line2d_27">
      <g>
       <use xlink:href="#mfeea183d5e" x="31.8" y="109.45317" style="stroke: #000000; stroke-width: 0.6"/>
      </g>
     </g>
    </g>
    <g id="ytick_22">
     <g id="line2d_28">
      <g>
       <use xlink:href="#mfeea183d5e" x="31.8" y="101.674069" style="stroke: #000000; stroke-width: 0.6"/>
      </g>
     </g>
    </g>
    <g id="ytick_23">
     <g id="line2d_29">
      <g>
       <use xlink:href="#mfeea183d5e" x="31.8" y="95.640129" style="stroke: #000000; stroke-width: 0.6"/>
      </g>
     </g>
    </g>
    <g id="ytick_24">
     <g id="line2d_30">
      <g>
       <use xlink:href="#mfeea183d5e" x="31.8" y="90.710042" style="stroke: #000000; stroke-width: 0.6"/>
      </g>
     </g>
    </g>
    <g id="ytick_25">
     <g id="line2d_31">
      <g>
       <use xlink:href="#mfeea183d5e" x="31.8" y="86.541712" style="stroke: #000000; stroke-width: 0.6"/>
      </g>
     </g>
    </g>
    <g id="ytick_26">
     <g id="line2d_32">
      <g>
       <use xlink:href="#mfeea183d5e" x="31.8" y="82.93094" style="stroke: #000000; stroke-width: 0.6"/>
      </g>
     </g>
    </g>
    <g id="ytick_27">
     <g id="line2d_33">
      <g>
       <use xlink:href="#mfeea183d5e" x="31.8" y="79.746014" style="stroke: #000000; stroke-width: 0.6"/>
      </g>
     </g>
    </g>
    <g id="ytick_28">
     <g id="line2d_34">
      <g>
       <use xlink:href="#mfeea183d5e" x="31.8" y="58.153872" style="stroke: #000000; stroke-width: 0.6"/>
      </g>
     </g>
    </g>
    <g id="ytick_29">
     <g id="line2d_35">
      <g>
       <use xlink:href="#mfeea183d5e" x="31.8" y="47.189844" style="stroke: #000000; stroke-width: 0.6"/>
      </g>
     </g>
    </g>
    <g id="ytick_30">
     <g id="line2d_36">
      <g>
       <use xlink:href="#mfeea183d5e" x="31.8" y="39.410743" style="stroke: #000000; stroke-width: 0.6"/>
      </g>
     </g>
    </g>
    <g id="ytick_31">
     <g id="line2d_37">
      <g>
       <use xlink:href="#mfeea183d5e" x="31.8" y="33.376803" style="stroke: #000000; stroke-width: 0.6"/>
      </g>
     </g>
    </g>
    <g id="ytick_32">
     <g id="line2d_38">
      <g>
       <use xlink:href="#mfeea183d5e" x="31.8" y="28.446716" style="stroke: #000000; stroke-width: 0.6"/>
      </g>
     </g>
    </g>
    <g id="ytick_33">
     <g id="line2d_39">
      <g>
       <use xlink:href="#mfeea183d5e" x="31.8" y="24.278386" style="stroke: #000000; stroke-width: 0.6"/>
      </g>
     </g>
    </g>
   </g>
   <g id="patch_53">
    <path d="M 31.8 256.998125 
L 31.8 22.318125 
" style="fill: none; stroke: #000000; stroke-width: 0.8; stroke-linejoin: miter; stroke-linecap: square"/>
   </g>
   <g id="patch_54">
    <path d="M 421.721497 256.998125 
L 421.721497 22.318125 
" style="fill: none; stroke: #000000; stroke-width: 0.8; stroke-linejoin: miter; stroke-linecap: square"/>
   </g>
   <g id="patch_55">
    <path d="M 31.8 256.998125 
L 421.721497 256.998125 
" style="fill: none; stroke: #000000; stroke-width: 0.8; stroke-linejoin: miter; stroke-linecap: square"/>
   </g>
   <g id="patch_56">
    <path d="M 31.8 22.318125 
L 421.721497 22.318125 
" style="fill: none; stroke: #000000; stroke-width: 0.8; stroke-linejoin: miter; stroke-linecap: square"/>
   </g>
   <g id="text_10">
    <!-- Practical_Hours before (max=10000) -->
    <g transform="translate(115.574186 16.318125) scale(0.12 -0.12)">
     <defs>
      <path id="DejaVuSans-50" d="M 1259 4147 
L 1259 2394 
L 2053 2394 
Q 2494 2394 2734 2622 
Q 2975 2850 2975 3272 
Q 2975 3691 2734 3919 
Q 2494 4147 2053 4147 
L 1259 4147 
z
M 628 4666 
L 2053 4666 
Q 2838 4666 3239 4311 
Q 3641 3956 3641 3272 
Q 3641 2581 3239 2228 
Q 2838 1875 2053 1875 
L 1259 1875 
L 1259 0 
L 628 0 
L 628 4666 
z
" transform="scale(0.015625)"/>
      <path id="DejaVuSans-72" d="M 2631 2963 
Q 2534 3019 2420 3045 
Q 2306 3072 2169 3072 
Q 1681 3072 1420 2755 
Q 1159 2438 1159 1844 
L 1159 0 
L 581 0 
L 581 3500 
L 1159 3500 
L 1159 2956 
Q 1341 3275 1631 3429 
Q 1922 3584 2338 3584 
Q 2397 3584 2469 3576 
Q 2541 3569 2628 3553 
L 2631 2963 
z
" transform="scale(0.015625)"/>
      <path id="DejaVuSans-61" d="M 2194 1759 
Q 1497 1759 1228 1600 
Q 959 1441 959 1056 
Q 959 750 1161 570 
Q 1363 391 1709 391 
Q 2188 391 2477 730 
Q 2766 1069 2766 1631 
L 2766 1759 
L 2194 1759 
z
M 3341 1997 
L 3341 0 
L 2766 0 
L 2766 531 
Q 2569 213 2275 61 
Q 1981 -91 1556 -91 
Q 1019 -91 701 211 
Q 384 513 384 1019 
Q 384 1609 779 1909 
Q 1175 2209 1959 2209 
L 2766 2209 
L 2766 2266 
Q 2766 2663 2505 2880 
Q 2244 3097 1772 3097 
Q 1472 3097 1187 3025 
Q 903 2953 641 2809 
L 641 3341 
Q 956 3463 1253 3523 
Q 1550 3584 1831 3584 
Q 2591 3584 2966 3190 
Q 3341 2797 3341 1997 
z
" transform="scale(0.015625)"/>
      <path id="DejaVuSans-63" d="M 3122 3366 
L 3122 2828 
Q 2878 2963 2633 3030 
Q 2388 3097 2138 3097 
Q 1578 3097 1268 2742 
Q 959 2388 959 1747 
Q 959 1106 1268 751 
Q 1578 397 2138 397 
Q 2388 397 2633 464 
Q 2878 531 3122 666 
L 3122 134 
Q 2881 22 2623 -34 
Q 2366 -91 2075 -91 
Q 1284 -91 818 406 
Q 353 903 353 1747 
Q 353 2603 823 3093 
Q 1294 3584 2113 3584 
Q 2378 3584 2631 3529 
Q 2884 3475 3122 3366 
z
" transform="scale(0.015625)"/>
      <path id="DejaVuSans-74" d="M 1172 4494 
L 1172 3500 
L 2356 3500 
L 2356 3053 
L 1172 3053 
L 1172 1153 
Q 1172 725 1289 603 
Q 1406 481 1766 481 
L 2356 481 
L 2356 0 
L 1766 0 
Q 1100 0 847 248 
Q 594 497 594 1153 
L 594 3053 
L 172 3053 
L 172 3500 
L 594 3500 
L 594 4494 
L 1172 4494 
z
" transform="scale(0.015625)"/>
      <path id="DejaVuSans-69" d="M 603 3500 
L 1178 3500 
L 1178 0 
L 603 0 
L 603 3500 
z
M 603 4863 
L 1178 4863 
L 1178 4134 
L 603 4134 
L 603 4863 
z
" transform="scale(0.015625)"/>
      <path id="DejaVuSans-6c" d="M 603 4863 
L 1178 4863 
L 1178 0 
L 603 0 
L 603 4863 
z
" transform="scale(0.015625)"/>
      <path id="DejaVuSans-5f" d="M 3263 -1063 
L 3263 -1509 
L -63 -1509 
L -63 -1063 
L 3263 -1063 
z
" transform="scale(0.015625)"/>
      <path id="DejaVuSans-48" d="M 628 4666 
L 1259 4666 
L 1259 2753 
L 3553 2753 
L 3553 4666 
L 4184 4666 
L 4184 0 
L 3553 0 
L 3553 2222 
L 1259 2222 
L 1259 0 
L 628 0 
L 628 4666 
z
" transform="scale(0.015625)"/>
      <path id="DejaVuSans-6f" d="M 1959 3097 
Q 1497 3097 1228 2736 
Q 959 2375 959 1747 
Q 959 1119 1226 758 
Q 1494 397 1959 397 
Q 2419 397 2687 759 
Q 2956 1122 2956 1747 
Q 2956 2369 2687 2733 
Q 2419 3097 1959 3097 
z
M 1959 3584 
Q 2709 3584 3137 3096 
Q 3566 2609 3566 1747 
Q 3566 888 3137 398 
Q 2709 -91 1959 -91 
Q 1206 -91 779 398 
Q 353 888 353 1747 
Q 353 2609 779 3096 
Q 1206 3584 1959 3584 
z
" transform="scale(0.015625)"/>
      <path id="DejaVuSans-75" d="M 544 1381 
L 544 3500 
L 1119 3500 
L 1119 1403 
Q 1119 906 1312 657 
Q 1506 409 1894 409 
Q 2359 409 2629 706 
Q 2900 1003 2900 1516 
L 2900 3500 
L 3475 3500 
L 3475 0 
L 2900 0 
L 2900 538 
Q 2691 219 2414 64 
Q 2138 -91 1772 -91 
Q 1169 -91 856 284 
Q 544 659 544 1381 
z
M 1991 3584 
L 1991 3584 
z
" transform="scale(0.015625)"/>
      <path id="DejaVuSans-73" d="M 2834 3397 
L 2834 2853 
Q 2591 2978 2328 3040 
Q 2066 3103 1784 3103 
Q 1356 3103 1142 2972 
Q 928 2841 928 2578 
Q 928 2378 1081 2264 
Q 1234 2150 1697 2047 
L 1894 2003 
Q 2506 1872 2764 1633 
Q 3022 1394 3022 966 
Q 3022 478 2636 193 
Q 2250 -91 1575 -91 
Q 1294 -91 989 -36 
Q 684 19 347 128 
L 347 722 
Q 666 556 975 473 
Q 1284 391 1588 391 
Q 1994 391 2212 530 
Q 2431 669 2431 922 
Q 2431 1156 2273 1281 
Q 2116 1406 1581 1522 
L 1381 1569 
Q 847 1681 609 1914 
Q 372 2147 372 2553 
Q 372 3047 722 3315 
Q 1072 3584 1716 3584 
Q 2034 3584 2315 3537 
Q 2597 3491 2834 3397 
z
" transform="scale(0.015625)"/>
      <path id="DejaVuSans-20" transform="scale(0.015625)"/>
      <path id="DejaVuSans-62" d="M 3116 1747 
Q 3116 2381 2855 2742 
Q 2594 3103 2138 3103 
Q 1681 3103 1420 2742 
Q 1159 2381 1159 1747 
Q 1159 1113 1420 752 
Q 1681 391 2138 391 
Q 2594 391 2855 752 
Q 3116 1113 3116 1747 
z
M 1159 2969 
Q 1341 3281 1617 3432 
Q 1894 3584 2278 3584 
Q 2916 3584 3314 3078 
Q 3713 2572 3713 1747 
Q 3713 922 3314 415 
Q 2916 -91 2278 -91 
Q 1894 -91 1617 61 
Q 1341 213 1159 525 
L 1159 0 
L 581 0 
L 581 4863 
L 1159 4863 
L 1159 2969 
z
" transform="scale(0.015625)"/>
      <path id="DejaVuSans-65" d="M 3597 1894 
L 3597 1613 
L 953 1613 
Q 991 1019 1311 708 
Q 1631 397 2203 397 
Q 2534 397 2845 478 
Q 3156 559 3463 722 
L 3463 178 
Q 3153 47 2828 -22 
Q 2503 -91 2169 -91 
Q 1331 -91 842 396 
Q 353 884 353 1716 
Q 353 2575 817 3079 
Q 1281 3584 2069 3584 
Q 2775 3584 3186 3129 
Q 3597 2675 3597 1894 
z
M 3022 2063 
Q 3016 2534 2758 2815 
Q 2500 3097 2075 3097 
Q 1594 3097 1305 2825 
Q 1016 2553 972 2059 
L 3022 2063 
z
" transform="scale(0.015625)"/>
      <path id="DejaVuSans-66" d="M 2375 4863 
L 2375 4384 
L 1825 4384 
Q 1516 4384 1395 4259 
Q 1275 4134 1275 3809 
L 1275 3500 
L 2222 3500 
L 2222 3053 
L 1275 3053 
L 1275 0 
L 697 0 
L 697 3053 
L 147 3053 
L 147 3500 
L 697 3500 
L 697 3744 
Q 697 4328 969 4595 
Q 1241 4863 1831 4863 
L 2375 4863 
z
" transform="scale(0.015625)"/>
      <path id="DejaVuSans-28" d="M 1984 4856 
Q 1566 4138 1362 3434 
Q 1159 2731 1159 2009 
Q 1159 1288 1364 580 
Q 1569 -128 1984 -844 
L 1484 -844 
Q 1016 -109 783 600 
Q 550 1309 550 2009 
Q 550 2706 781 3412 
Q 1013 4119 1484 4856 
L 1984 4856 
z
" transform="scale(0.015625)"/>
      <path id="DejaVuSans-6d" d="M 3328 2828 
Q 3544 3216 3844 3400 
Q 4144 3584 4550 3584 
Q 5097 3584 5394 3201 
Q 5691 2819 5691 2113 
L 5691 0 
L 5113 0 
L 5113 2094 
Q 5113 2597 4934 2840 
Q 4756 3084 4391 3084 
Q 3944 3084 3684 2787 
Q 3425 2491 3425 1978 
L 3425 0 
L 2847 0 
L 2847 2094 
Q 2847 2600 2669 2842 
Q 2491 3084 2119 3084 
Q 1678 3084 1418 2786 
Q 1159 2488 1159 1978 
L 1159 0 
L 581 0 
L 581 3500 
L 1159 3500 
L 1159 2956 
Q 1356 3278 1631 3431 
Q 1906 3584 2284 3584 
Q 2666 3584 2933 3390 
Q 3200 3197 3328 2828 
z
" transform="scale(0.015625)"/>
      <path id="DejaVuSans-78" d="M 3513 3500 
L 2247 1797 
L 3578 0 
L 2900 0 
L 1881 1375 
L 863 0 
L 184 0 
L 1544 1831 
L 300 3500 
L 978 3500 
L 1906 2253 
L 2834 3500 
L 3513 3500 
z
" transform="scale(0.015625)"/>
      <path id="DejaVuSans-3d" d="M 678 2906 
L 4684 2906 
L 4684 2381 
L 678 2381 
L 678 2906 
z
M 678 1631 
L 4684 1631 
L 4684 1100 
L 678 1100 
L 678 1631 
z
" transform="scale(0.015625)"/>
      <path id="DejaVuSans-29" d="M 513 4856 
L 1013 4856 
Q 1481 4119 1714 3412 
Q 1947 2706 1947 2009 
Q 1947 1309 1714 600 
Q 1481 -109 1013 -844 
L 513 -844 
Q 928 -128 1133 580 
Q 1338 1288 1338 2009 
Q 1338 2731 1133 3434 
Q 928 4138 513 4856 
z
" transform="scale(0.015625)"/>
     </defs>
     <use xlink:href="#DejaVuSans-50"/>
     <use xlink:href="#DejaVuSans-72" transform="translate(58.552734 0)"/>
     <use xlink:href="#DejaVuSans-61" transform="translate(99.666016 0)"/>
     <use xlink:href="#DejaVuSans-63" transform="translate(160.945312 0)"/>
     <use xlink:href="#DejaVuSans-74" transform="translate(215.925781 0)"/>
     <use xlink:href="#DejaVuSans-69" transform="translate(255.134766 0)"/>
     <use xlink:href="#DejaVuSans-63" transform="translate(282.917969 0)"/>
     <use xlink:href="#DejaVuSans-61" transform="translate(337.898438 0)"/>
     <use xlink:href="#DejaVuSans-6c" transform="translate(399.177734 0)"/>
     <use xlink:href="#DejaVuSans-5f" transform="translate(426.960938 0)"/>
     <use xlink:href="#DejaVuSans-48" transform="translate(476.960938 0)"/>
     <use xlink:href="#DejaVuSans-6f" transform="translate(552.15625 0)"/>
     <use xlink:href="#DejaVuSans-75" transform="translate(613.337891 0)"/>
     <use xlink:href="#DejaVuSans-72" transform="translate(676.716797 0)"/>
     <use xlink:href="#DejaVuSans-73" transform="translate(717.830078 0)"/>
     <use xlink:href="#DejaVuSans-20" transform="translate(769.929688 0)"/>
     <use xlink:href="#DejaVuSans-62" transform="translate(801.716797 0)"/>
     <use xlink:href="#DejaVuSans-65" transform="translate(865.193359 0)"/>
     <use xlink:href="#DejaVuSans-66" transform="translate(926.716797 0)"/>
     <use xlink:href="#DejaVuSans-6f" transform="translate(961.921875 0)"/>
     <use xlink:href="#DejaVuSans-72" transform="translate(1023.103516 0)"/>
     <use xlink:href="#DejaVuSans-65" transform="translate(1061.966797 0)"/>
     <use xlink:href="#DejaVuSans-20" transform="translate(1123.490234 0)"/>
     <use xlink:href="#DejaVuSans-28" transform="translate(1155.277344 0)"/>
     <use xlink:href="#DejaVuSans-6d" transform="translate(1194.291016 0)"/>
     <use xlink:href="#DejaVuSans-61" transform="translate(1291.703125 0)"/>
     <use xlink:href="#DejaVuSans-78" transform="translate(1352.982422 0)"/>
     <use xlink:href="#DejaVuSans-3d" transform="translate(1412.162109 0)"/>
     <use xlink:href="#DejaVuSans-31" transform="translate(1495.951172 0)"/>
     <use xlink:href="#DejaVuSans-30" transform="translate(1559.574219 0)"/>
     <use xlink:href="#DejaVuSans-30" transform="translate(1623.197266 0)"/>
     <use xlink:href="#DejaVuSans-30" transform="translate(1686.820312 0)"/>
     <use xlink:href="#DejaVuSans-30" transform="translate(1750.443359 0)"/>
     <use xlink:href="#DejaVuSans-29" transform="translate(1814.066406 0)"/>
    </g>
   </g>
  </g>
  <g id="axes_2">
   <g id="patch_57">
    <path d="M 459.432645 256.998125 
L 849.354141 256.998125 
L 849.354141 22.318125 
L 459.432645 22.318125 
z
" style="fill: #ffffff"/>
   </g>
   <g id="patch_58">
    <path d="M 477.156349 58065.407108 
L 484.245831 58065.407108 
L 484.245831 32.985398 
L 477.156349 32.985398 
z
" clip-path="url(#pd98a1f7335)" style="fill: #1f77b4"/>
   </g>
   <g id="patch_59">
    <path d="M 484.245831 58065.407108 
L 491.335313 58065.407108 
L 491.335313 58065.407108 
L 484.245831 58065.407108 
z
" clip-path="url(#pd98a1f7335)" style="fill: #1f77b4"/>
   </g>
   <g id="patch_60">
    <path d="M 491.335313 58065.407108 
L 498.424794 58065.407108 
L 498.424794 58065.407108 
L 491.335313 58065.407108 
z
" clip-path="url(#pd98a1f7335)" style="fill: #1f77b4"/>
   </g>
   <g id="patch_61">
    <path d="M 498.424794 58065.407108 
L 505.514276 58065.407108 
L 505.514276 58065.407108 
L 498.424794 58065.407108 
z
" clip-path="url(#pd98a1f7335)" style="fill: #1f77b4"/>
   </g>
   <g id="patch_62">
    <path d="M 505.514276 58065.407108 
L 512.603758 58065.407108 
L 512.603758 58065.407108 
L 505.514276 58065.407108 
z
" clip-path="url(#pd98a1f7335)" style="fill: #1f77b4"/>
   </g>
   <g id="patch_63">
    <path d="M 512.603758 58065.407108 
L 519.69324 58065.407108 
L 519.69324 58065.407108 
L 512.603758 58065.407108 
z
" clip-path="url(#pd98a1f7335)" style="fill: #1f77b4"/>
   </g>
   <g id="patch_64">
    <path d="M 519.69324 58065.407108 
L 526.782721 58065.407108 
L 526.782721 47.963571 
L 519.69324 47.963571 
z
" clip-path="url(#pd98a1f7335)" style="fill: #1f77b4"/>
   </g>
   <g id="patch_65">
    <path d="M 526.782721 58065.407108 
L 533.872203 58065.407108 
L 533.872203 58065.407108 
L 526.782721 58065.407108 
z
" clip-path="url(#pd98a1f7335)" style="fill: #1f77b4"/>
   </g>
   <g id="patch_66">
    <path d="M 533.872203 58065.407108 
L 540.961685 58065.407108 
L 540.961685 58065.407108 
L 533.872203 58065.407108 
z
" clip-path="url(#pd98a1f7335)" style="fill: #1f77b4"/>
   </g>
   <g id="patch_67">
    <path d="M 540.961685 58065.407108 
L 548.051167 58065.407108 
L 548.051167 58065.407108 
L 540.961685 58065.407108 
z
" clip-path="url(#pd98a1f7335)" style="fill: #1f77b4"/>
   </g>
   <g id="patch_68">
    <path d="M 548.051167 58065.407108 
L 555.140648 58065.407108 
L 555.140648 58065.407108 
L 548.051167 58065.407108 
z
" clip-path="url(#pd98a1f7335)" style="fill: #1f77b4"/>
   </g>
   <g id="patch_69">
    <path d="M 555.140648 58065.407108 
L 562.23013 58065.407108 
L 562.23013 58065.407108 
L 555.140648 58065.407108 
z
" clip-path="url(#pd98a1f7335)" style="fill: #1f77b4"/>
   </g>
   <g id="patch_70">
    <path d="M 562.23013 58065.407108 
L 569.319612 58065.407108 
L 569.319612 50.895279 
L 562.23013 50.895279 
z
" clip-path="url(#pd98a1f7335)" style="fill: #1f77b4"/>
   </g>
   <g id="patch_71">
    <path d="M 569.319612 58065.407108 
L 576.409094 58065.407108 
L 576.409094 58065.407108 
L 569.319612 58065.407108 
z
" clip-path="url(#pd98a1f7335)" style="fill: #1f77b4"/>
   </g>
   <g id="patch_72">
    <path d="M 576.409094 58065.407108 
L 583.498575 58065.407108 
L 583.498575 58065.407108 
L 576.409094 58065.407108 
z
" clip-path="url(#pd98a1f7335)" style="fill: #1f77b4"/>
   </g>
   <g id="patch_73">
    <path d="M 583.498575 58065.407108 
L 590.588057 58065.407108 
L 590.588057 58065.407108 
L 583.498575 58065.407108 
z
" clip-path="url(#pd98a1f7335)" style="fill: #1f77b4"/>
   </g>
   <g id="patch_74">
    <path d="M 590.588057 58065.407108 
L 597.677539 58065.407108 
L 597.677539 58065.407108 
L 590.588057 58065.407108 
z
" clip-path="url(#pd98a1f7335)" style="fill: #1f77b4"/>
   </g>
   <g id="patch_75">
    <path d="M 597.677539 58065.407108 
L 604.767021 58065.407108 
L 604.767021 58065.407108 
L 597.677539 58065.407108 
z
" clip-path="url(#pd98a1f7335)" style="fill: #1f77b4"/>
   </g>
   <g id="patch_76">
    <path d="M 604.767021 58065.407108 
L 611.856502 58065.407108 
L 611.856502 154.530235 
L 604.767021 154.530235 
z
" clip-path="url(#pd98a1f7335)" style="fill: #1f77b4"/>
   </g>
   <g id="patch_77">
    <path d="M 611.856502 58065.407108 
L 618.945984 58065.407108 
L 618.945984 58065.407108 
L 611.856502 58065.407108 
z
" clip-path="url(#pd98a1f7335)" style="fill: #1f77b4"/>
   </g>
   <g id="patch_78">
    <path d="M 618.945984 58065.407108 
L 626.035466 58065.407108 
L 626.035466 58065.407108 
L 618.945984 58065.407108 
z
" clip-path="url(#pd98a1f7335)" style="fill: #1f77b4"/>
   </g>
   <g id="patch_79">
    <path d="M 626.035466 58065.407108 
L 633.124948 58065.407108 
L 633.124948 58065.407108 
L 626.035466 58065.407108 
z
" clip-path="url(#pd98a1f7335)" style="fill: #1f77b4"/>
   </g>
   <g id="patch_80">
    <path d="M 633.124948 58065.407108 
L 640.214429 58065.407108 
L 640.214429 58065.407108 
L 633.124948 58065.407108 
z
" clip-path="url(#pd98a1f7335)" style="fill: #1f77b4"/>
   </g>
   <g id="patch_81">
    <path d="M 640.214429 58065.407108 
L 647.303911 58065.407108 
L 647.303911 58065.407108 
L 640.214429 58065.407108 
z
" clip-path="url(#pd98a1f7335)" style="fill: #1f77b4"/>
   </g>
   <g id="patch_82">
    <path d="M 647.303911 58065.407108 
L 654.393393 58065.407108 
L 654.393393 58065.407108 
L 647.303911 58065.407108 
z
" clip-path="url(#pd98a1f7335)" style="fill: #1f77b4"/>
   </g>
   <g id="patch_83">
    <path d="M 654.393393 58065.407108 
L 661.482875 58065.407108 
L 661.482875 155.586938 
L 654.393393 155.586938 
z
" clip-path="url(#pd98a1f7335)" style="fill: #1f77b4"/>
   </g>
   <g id="patch_84">
    <path d="M 661.482875 58065.407108 
L 668.572357 58065.407108 
L 668.572357 58065.407108 
L 661.482875 58065.407108 
z
" clip-path="url(#pd98a1f7335)" style="fill: #1f77b4"/>
   </g>
   <g id="patch_85">
    <path d="M 668.572357 58065.407108 
L 675.661838 58065.407108 
L 675.661838 58065.407108 
L 668.572357 58065.407108 
z
" clip-path="url(#pd98a1f7335)" style="fill: #1f77b4"/>
   </g>
   <g id="patch_86">
    <path d="M 675.661838 58065.407108 
L 682.75132 58065.407108 
L 682.75132 58065.407108 
L 675.661838 58065.407108 
z
" clip-path="url(#pd98a1f7335)" style="fill: #1f77b4"/>
   </g>
   <g id="patch_87">
    <path d="M 682.75132 58065.407108 
L 689.840802 58065.407108 
L 689.840802 58065.407108 
L 682.75132 58065.407108 
z
" clip-path="url(#pd98a1f7335)" style="fill: #1f77b4"/>
   </g>
   <g id="patch_88">
    <path d="M 689.840802 58065.407108 
L 696.930284 58065.407108 
L 696.930284 58065.407108 
L 689.840802 58065.407108 
z
" clip-path="url(#pd98a1f7335)" style="fill: #1f77b4"/>
   </g>
   <g id="patch_89">
    <path d="M 696.930284 58065.407108 
L 704.019765 58065.407108 
L 704.019765 198.978677 
L 696.930284 198.978677 
z
" clip-path="url(#pd98a1f7335)" style="fill: #1f77b4"/>
   </g>
   <g id="patch_90">
    <path d="M 704.019765 58065.407108 
L 711.109247 58065.407108 
L 711.109247 58065.407108 
L 704.019765 58065.407108 
z
" clip-path="url(#pd98a1f7335)" style="fill: #1f77b4"/>
   </g>
   <g id="patch_91">
    <path d="M 711.109247 58065.407108 
L 718.198729 58065.407108 
L 718.198729 58065.407108 
L 711.109247 58065.407108 
z
" clip-path="url(#pd98a1f7335)" style="fill: #1f77b4"/>
   </g>
   <g id="patch_92">
    <path d="M 718.198729 58065.407108 
L 725.288211 58065.407108 
L 725.288211 58065.407108 
L 718.198729 58065.407108 
z
" clip-path="url(#pd98a1f7335)" style="fill: #1f77b4"/>
   </g>
   <g id="patch_93">
    <path d="M 725.288211 58065.407108 
L 732.377692 58065.407108 
L 732.377692 58065.407108 
L 725.288211 58065.407108 
z
" clip-path="url(#pd98a1f7335)" style="fill: #1f77b4"/>
   </g>
   <g id="patch_94">
    <path d="M 732.377692 58065.407108 
L 739.467174 58065.407108 
L 739.467174 58065.407108 
L 732.377692 58065.407108 
z
" clip-path="url(#pd98a1f7335)" style="fill: #1f77b4"/>
   </g>
   <g id="patch_95">
    <path d="M 739.467174 58065.407108 
L 746.556656 58065.407108 
L 746.556656 198.229577 
L 739.467174 198.229577 
z
" clip-path="url(#pd98a1f7335)" style="fill: #1f77b4"/>
   </g>
   <g id="patch_96">
    <path d="M 746.556656 58065.407108 
L 753.646138 58065.407108 
L 753.646138 58065.407108 
L 746.556656 58065.407108 
z
" clip-path="url(#pd98a1f7335)" style="fill: #1f77b4"/>
   </g>
   <g id="patch_97">
    <path d="M 753.646138 58065.407108 
L 760.735619 58065.407108 
L 760.735619 58065.407108 
L 753.646138 58065.407108 
z
" clip-path="url(#pd98a1f7335)" style="fill: #1f77b4"/>
   </g>
   <g id="patch_98">
    <path d="M 760.735619 58065.407108 
L 767.825101 58065.407108 
L 767.825101 58065.407108 
L 760.735619 58065.407108 
z
" clip-path="url(#pd98a1f7335)" style="fill: #1f77b4"/>
   </g>
   <g id="patch_99">
    <path d="M 767.825101 58065.407108 
L 774.914583 58065.407108 
L 774.914583 58065.407108 
L 767.825101 58065.407108 
z
" clip-path="url(#pd98a1f7335)" style="fill: #1f77b4"/>
   </g>
   <g id="patch_100">
    <path d="M 774.914583 58065.407108 
L 782.004065 58065.407108 
L 782.004065 58065.407108 
L 774.914583 58065.407108 
z
" clip-path="url(#pd98a1f7335)" style="fill: #1f77b4"/>
   </g>
   <g id="patch_101">
    <path d="M 782.004065 58065.407108 
L 789.093546 58065.407108 
L 789.093546 246.330852 
L 782.004065 246.330852 
z
" clip-path="url(#pd98a1f7335)" style="fill: #1f77b4"/>
   </g>
   <g id="patch_102">
    <path d="M 789.093546 58065.407108 
L 796.183028 58065.407108 
L 796.183028 58065.407108 
L 789.093546 58065.407108 
z
" clip-path="url(#pd98a1f7335)" style="fill: #1f77b4"/>
   </g>
   <g id="patch_103">
    <path d="M 796.183028 58065.407108 
L 803.27251 58065.407108 
L 803.27251 58065.407108 
L 796.183028 58065.407108 
z
" clip-path="url(#pd98a1f7335)" style="fill: #1f77b4"/>
   </g>
   <g id="patch_104">
    <path d="M 803.27251 58065.407108 
L 810.361992 58065.407108 
L 810.361992 58065.407108 
L 803.27251 58065.407108 
z
" clip-path="url(#pd98a1f7335)" style="fill: #1f77b4"/>
   </g>
   <g id="patch_105">
    <path d="M 810.361992 58065.407108 
L 817.451473 58065.407108 
L 817.451473 58065.407108 
L 810.361992 58065.407108 
z
" clip-path="url(#pd98a1f7335)" style="fill: #1f77b4"/>
   </g>
   <g id="patch_106">
    <path d="M 817.451473 58065.407108 
L 824.540955 58065.407108 
L 824.540955 58065.407108 
L 817.451473 58065.407108 
z
" clip-path="url(#pd98a1f7335)" style="fill: #1f77b4"/>
   </g>
   <g id="patch_107">
    <path d="M 824.540955 58065.407108 
L 831.630437 58065.407108 
L 831.630437 180.109075 
L 824.540955 180.109075 
z
" clip-path="url(#pd98a1f7335)" style="fill: #1f77b4"/>
   </g>
   <g id="matplotlib.axis_3">
    <g id="xtick_7">
     <g id="line2d_40">
      <g>
       <use xlink:href="#m273a67f776" x="477.156349" y="256.998125" style="stroke: #000000; stroke-width: 0.8"/>
      </g>
     </g>
     <g id="text_11">
      <!-- 0 -->
      <g transform="translate(473.975099 271.596562) scale(0.1 -0.1)">
       <use xlink:href="#DejaVuSans-30"/>
      </g>
     </g>
    </g>
    <g id="xtick_8">
     <g id="line2d_41">
      <g>
       <use xlink:href="#m273a67f776" x="521.46561" y="256.998125" style="stroke: #000000; stroke-width: 0.8"/>
      </g>
     </g>
     <g id="text_12">
      <!-- 1 -->
      <g transform="translate(518.28436 271.596562) scale(0.1 -0.1)">
       <use xlink:href="#DejaVuSans-31"/>
      </g>
     </g>
    </g>
    <g id="xtick_9">
     <g id="line2d_42">
      <g>
       <use xlink:href="#m273a67f776" x="565.774871" y="256.998125" style="stroke: #000000; stroke-width: 0.8"/>
      </g>
     </g>
     <g id="text_13">
      <!-- 2 -->
      <g transform="translate(562.593621 271.596562) scale(0.1 -0.1)">
       <use xlink:href="#DejaVuSans-32"/>
      </g>
     </g>
    </g>
    <g id="xtick_10">
     <g id="line2d_43">
      <g>
       <use xlink:href="#m273a67f776" x="610.084132" y="256.998125" style="stroke: #000000; stroke-width: 0.8"/>
      </g>
     </g>
     <g id="text_14">
      <!-- 3 -->
      <g transform="translate(606.902882 271.596562) scale(0.1 -0.1)">
       <use xlink:href="#DejaVuSans-33"/>
      </g>
     </g>
    </g>
    <g id="xtick_11">
     <g id="line2d_44">
      <g>
       <use xlink:href="#m273a67f776" x="654.393393" y="256.998125" style="stroke: #000000; stroke-width: 0.8"/>
      </g>
     </g>
     <g id="text_15">
      <!-- 4 -->
      <g transform="translate(651.212143 271.596562) scale(0.1 -0.1)">
       <use xlink:href="#DejaVuSans-34"/>
      </g>
     </g>
    </g>
    <g id="xtick_12">
     <g id="line2d_45">
      <g>
       <use xlink:href="#m273a67f776" x="698.702654" y="256.998125" style="stroke: #000000; stroke-width: 0.8"/>
      </g>
     </g>
     <g id="text_16">
      <!-- 5 -->
      <g transform="translate(695.521404 271.596562) scale(0.1 -0.1)">
       <defs>
        <path id="DejaVuSans-35" d="M 691 4666 
L 3169 4666 
L 3169 4134 
L 1269 4134 
L 1269 2991 
Q 1406 3038 1543 3061 
Q 1681 3084 1819 3084 
Q 2600 3084 3056 2656 
Q 3513 2228 3513 1497 
Q 3513 744 3044 326 
Q 2575 -91 1722 -91 
Q 1428 -91 1123 -41 
Q 819 9 494 109 
L 494 744 
Q 775 591 1075 516 
Q 1375 441 1709 441 
Q 2250 441 2565 725 
Q 2881 1009 2881 1497 
Q 2881 1984 2565 2268 
Q 2250 2553 1709 2553 
Q 1456 2553 1204 2497 
Q 953 2441 691 2322 
L 691 4666 
z
" transform="scale(0.015625)"/>
       </defs>
       <use xlink:href="#DejaVuSans-35"/>
      </g>
     </g>
    </g>
    <g id="xtick_13">
     <g id="line2d_46">
      <g>
       <use xlink:href="#m273a67f776" x="743.011915" y="256.998125" style="stroke: #000000; stroke-width: 0.8"/>
      </g>
     </g>
     <g id="text_17">
      <!-- 6 -->
      <g transform="translate(739.830665 271.596562) scale(0.1 -0.1)">
       <use xlink:href="#DejaVuSans-36"/>
      </g>
     </g>
    </g>
    <g id="xtick_14">
     <g id="line2d_47">
      <g>
       <use xlink:href="#m273a67f776" x="787.321176" y="256.998125" style="stroke: #000000; stroke-width: 0.8"/>
      </g>
     </g>
     <g id="text_18">
      <!-- 7 -->
      <g transform="translate(784.139926 271.596562) scale(0.1 -0.1)">
       <defs>
        <path id="DejaVuSans-37" d="M 525 4666 
L 3525 4666 
L 3525 4397 
L 1831 0 
L 1172 0 
L 2766 4134 
L 525 4134 
L 525 4666 
z
" transform="scale(0.015625)"/>
       </defs>
       <use xlink:href="#DejaVuSans-37"/>
      </g>
     </g>
    </g>
    <g id="xtick_15">
     <g id="line2d_48">
      <g>
       <use xlink:href="#m273a67f776" x="831.630437" y="256.998125" style="stroke: #000000; stroke-width: 0.8"/>
      </g>
     </g>
     <g id="text_19">
      <!-- 8 -->
      <g transform="translate(828.449187 271.596562) scale(0.1 -0.1)">
       <use xlink:href="#DejaVuSans-38"/>
      </g>
     </g>
    </g>
   </g>
   <g id="matplotlib.axis_4">
    <g id="ytick_34">
     <g id="line2d_49">
      <g>
       <use xlink:href="#m2891b1a0c9" x="459.432645" y="228.937733" style="stroke: #000000; stroke-width: 0.8"/>
      </g>
     </g>
     <g id="text_20">
      <!-- $\mathdefault{10^{1}}$ -->
      <g transform="translate(434.832645 232.736952) scale(0.1 -0.1)">
       <use xlink:href="#DejaVuSans-31" transform="translate(0 0.684375)"/>
       <use xlink:href="#DejaVuSans-30" transform="translate(63.623047 0.684375)"/>
       <use xlink:href="#DejaVuSans-31" transform="translate(128.203125 38.965625) scale(0.7)"/>
      </g>
     </g>
    </g>
    <g id="ytick_35">
     <g id="line2d_50">
      <g>
       <use xlink:href="#m2891b1a0c9" x="459.432645" y="171.159043" style="stroke: #000000; stroke-width: 0.8"/>
      </g>
     </g>
     <g id="text_21">
      <!-- $\mathdefault{10^{2}}$ -->
      <g transform="translate(434.832645 174.958261) scale(0.1 -0.1)">
       <use xlink:href="#DejaVuSans-31" transform="translate(0 0.765625)"/>
       <use xlink:href="#DejaVuSans-30" transform="translate(63.623047 0.765625)"/>
       <use xlink:href="#DejaVuSans-32" transform="translate(128.203125 39.046875) scale(0.7)"/>
      </g>
     </g>
    </g>
    <g id="ytick_36">
     <g id="line2d_51">
      <g>
       <use xlink:href="#m2891b1a0c9" x="459.432645" y="113.380352" style="stroke: #000000; stroke-width: 0.8"/>
      </g>
     </g>
     <g id="text_22">
      <!-- $\mathdefault{10^{3}}$ -->
      <g transform="translate(434.832645 117.179571) scale(0.1 -0.1)">
       <use xlink:href="#DejaVuSans-31" transform="translate(0 0.765625)"/>
       <use xlink:href="#DejaVuSans-30" transform="translate(63.623047 0.765625)"/>
       <use xlink:href="#DejaVuSans-33" transform="translate(128.203125 39.046875) scale(0.7)"/>
      </g>
     </g>
    </g>
    <g id="ytick_37">
     <g id="line2d_52">
      <g>
       <use xlink:href="#m2891b1a0c9" x="459.432645" y="55.601661" style="stroke: #000000; stroke-width: 0.8"/>
      </g>
     </g>
     <g id="text_23">
      <!-- $\mathdefault{10^{4}}$ -->
      <g transform="translate(434.832645 59.40088) scale(0.1 -0.1)">
       <use xlink:href="#DejaVuSans-31" transform="translate(0 0.684375)"/>
       <use xlink:href="#DejaVuSans-30" transform="translate(63.623047 0.684375)"/>
       <use xlink:href="#DejaVuSans-34" transform="translate(128.203125 38.965625) scale(0.7)"/>
      </g>
     </g>
    </g>
    <g id="ytick_38">
     <g id="line2d_53">
      <g>
       <use xlink:href="#mfeea183d5e" x="459.432645" y="251.930186" style="stroke: #000000; stroke-width: 0.6"/>
      </g>
     </g>
    </g>
    <g id="ytick_39">
     <g id="line2d_54">
      <g>
       <use xlink:href="#mfeea183d5e" x="459.432645" y="246.330852" style="stroke: #000000; stroke-width: 0.6"/>
      </g>
     </g>
    </g>
    <g id="ytick_40">
     <g id="line2d_55">
      <g>
       <use xlink:href="#mfeea183d5e" x="459.432645" y="241.755864" style="stroke: #000000; stroke-width: 0.6"/>
      </g>
     </g>
    </g>
    <g id="ytick_41">
     <g id="line2d_56">
      <g>
       <use xlink:href="#mfeea183d5e" x="459.432645" y="237.887766" style="stroke: #000000; stroke-width: 0.6"/>
      </g>
     </g>
    </g>
    <g id="ytick_42">
     <g id="line2d_57">
      <g>
       <use xlink:href="#mfeea183d5e" x="459.432645" y="234.537067" style="stroke: #000000; stroke-width: 0.6"/>
      </g>
     </g>
    </g>
    <g id="ytick_43">
     <g id="line2d_58">
      <g>
       <use xlink:href="#mfeea183d5e" x="459.432645" y="231.581541" style="stroke: #000000; stroke-width: 0.6"/>
      </g>
     </g>
    </g>
    <g id="ytick_44">
     <g id="line2d_59">
      <g>
       <use xlink:href="#mfeea183d5e" x="459.432645" y="211.544614" style="stroke: #000000; stroke-width: 0.6"/>
      </g>
     </g>
    </g>
    <g id="ytick_45">
     <g id="line2d_60">
      <g>
       <use xlink:href="#mfeea183d5e" x="459.432645" y="201.370292" style="stroke: #000000; stroke-width: 0.6"/>
      </g>
     </g>
    </g>
    <g id="ytick_46">
     <g id="line2d_61">
      <g>
       <use xlink:href="#mfeea183d5e" x="459.432645" y="194.151495" style="stroke: #000000; stroke-width: 0.6"/>
      </g>
     </g>
    </g>
    <g id="ytick_47">
     <g id="line2d_62">
      <g>
       <use xlink:href="#mfeea183d5e" x="459.432645" y="188.552162" style="stroke: #000000; stroke-width: 0.6"/>
      </g>
     </g>
    </g>
    <g id="ytick_48">
     <g id="line2d_63">
      <g>
       <use xlink:href="#mfeea183d5e" x="459.432645" y="183.977173" style="stroke: #000000; stroke-width: 0.6"/>
      </g>
     </g>
    </g>
    <g id="ytick_49">
     <g id="line2d_64">
      <g>
       <use xlink:href="#mfeea183d5e" x="459.432645" y="180.109075" style="stroke: #000000; stroke-width: 0.6"/>
      </g>
     </g>
    </g>
    <g id="ytick_50">
     <g id="line2d_65">
      <g>
       <use xlink:href="#mfeea183d5e" x="459.432645" y="176.758376" style="stroke: #000000; stroke-width: 0.6"/>
      </g>
     </g>
    </g>
    <g id="ytick_51">
     <g id="line2d_66">
      <g>
       <use xlink:href="#mfeea183d5e" x="459.432645" y="173.80285" style="stroke: #000000; stroke-width: 0.6"/>
      </g>
     </g>
    </g>
    <g id="ytick_52">
     <g id="line2d_67">
      <g>
       <use xlink:href="#mfeea183d5e" x="459.432645" y="153.765924" style="stroke: #000000; stroke-width: 0.6"/>
      </g>
     </g>
    </g>
    <g id="ytick_53">
     <g id="line2d_68">
      <g>
       <use xlink:href="#mfeea183d5e" x="459.432645" y="143.591601" style="stroke: #000000; stroke-width: 0.6"/>
      </g>
     </g>
    </g>
    <g id="ytick_54">
     <g id="line2d_69">
      <g>
       <use xlink:href="#mfeea183d5e" x="459.432645" y="136.372805" style="stroke: #000000; stroke-width: 0.6"/>
      </g>
     </g>
    </g>
    <g id="ytick_55">
     <g id="line2d_70">
      <g>
       <use xlink:href="#mfeea183d5e" x="459.432645" y="130.773471" style="stroke: #000000; stroke-width: 0.6"/>
      </g>
     </g>
    </g>
    <g id="ytick_56">
     <g id="line2d_71">
      <g>
       <use xlink:href="#mfeea183d5e" x="459.432645" y="126.198482" style="stroke: #000000; stroke-width: 0.6"/>
      </g>
     </g>
    </g>
    <g id="ytick_57">
     <g id="line2d_72">
      <g>
       <use xlink:href="#mfeea183d5e" x="459.432645" y="122.330384" style="stroke: #000000; stroke-width: 0.6"/>
      </g>
     </g>
    </g>
    <g id="ytick_58">
     <g id="line2d_73">
      <g>
       <use xlink:href="#mfeea183d5e" x="459.432645" y="118.979686" style="stroke: #000000; stroke-width: 0.6"/>
      </g>
     </g>
    </g>
    <g id="ytick_59">
     <g id="line2d_74">
      <g>
       <use xlink:href="#mfeea183d5e" x="459.432645" y="116.02416" style="stroke: #000000; stroke-width: 0.6"/>
      </g>
     </g>
    </g>
    <g id="ytick_60">
     <g id="line2d_75">
      <g>
       <use xlink:href="#mfeea183d5e" x="459.432645" y="95.987233" style="stroke: #000000; stroke-width: 0.6"/>
      </g>
     </g>
    </g>
    <g id="ytick_61">
     <g id="line2d_76">
      <g>
       <use xlink:href="#mfeea183d5e" x="459.432645" y="85.812911" style="stroke: #000000; stroke-width: 0.6"/>
      </g>
     </g>
    </g>
    <g id="ytick_62">
     <g id="line2d_77">
      <g>
       <use xlink:href="#mfeea183d5e" x="459.432645" y="78.594114" style="stroke: #000000; stroke-width: 0.6"/>
      </g>
     </g>
    </g>
    <g id="ytick_63">
     <g id="line2d_78">
      <g>
       <use xlink:href="#mfeea183d5e" x="459.432645" y="72.99478" style="stroke: #000000; stroke-width: 0.6"/>
      </g>
     </g>
    </g>
    <g id="ytick_64">
     <g id="line2d_79">
      <g>
       <use xlink:href="#mfeea183d5e" x="459.432645" y="68.419791" style="stroke: #000000; stroke-width: 0.6"/>
      </g>
     </g>
    </g>
    <g id="ytick_65">
     <g id="line2d_80">
      <g>
       <use xlink:href="#mfeea183d5e" x="459.432645" y="64.551694" style="stroke: #000000; stroke-width: 0.6"/>
      </g>
     </g>
    </g>
    <g id="ytick_66">
     <g id="line2d_81">
      <g>
       <use xlink:href="#mfeea183d5e" x="459.432645" y="61.200995" style="stroke: #000000; stroke-width: 0.6"/>
      </g>
     </g>
    </g>
    <g id="ytick_67">
     <g id="line2d_82">
      <g>
       <use xlink:href="#mfeea183d5e" x="459.432645" y="58.245469" style="stroke: #000000; stroke-width: 0.6"/>
      </g>
     </g>
    </g>
    <g id="ytick_68">
     <g id="line2d_83">
      <g>
       <use xlink:href="#mfeea183d5e" x="459.432645" y="38.208542" style="stroke: #000000; stroke-width: 0.6"/>
      </g>
     </g>
    </g>
    <g id="ytick_69">
     <g id="line2d_84">
      <g>
       <use xlink:href="#mfeea183d5e" x="459.432645" y="28.03422" style="stroke: #000000; stroke-width: 0.6"/>
      </g>
     </g>
    </g>
   </g>
   <g id="patch_108">
    <path d="M 459.432645 256.998125 
L 459.432645 22.318125 
" style="fill: none; stroke: #000000; stroke-width: 0.8; stroke-linejoin: miter; stroke-linecap: square"/>
   </g>
   <g id="patch_109">
    <path d="M 849.354141 256.998125 
L 849.354141 22.318125 
" style="fill: none; stroke: #000000; stroke-width: 0.8; stroke-linejoin: miter; stroke-linecap: square"/>
   </g>
   <g id="patch_110">
    <path d="M 459.432645 256.998125 
L 849.354141 256.998125 
" style="fill: none; stroke: #000000; stroke-width: 0.8; stroke-linejoin: miter; stroke-linecap: square"/>
   </g>
   <g id="patch_111">
    <path d="M 459.432645 22.318125 
L 849.354141 22.318125 
" style="fill: none; stroke: #000000; stroke-width: 0.8; stroke-linejoin: miter; stroke-linecap: square"/>
   </g>
   <g id="text_24">
    <!-- Practical_Hours after (max=8) -->
    <g transform="translate(563.589956 16.318125) scale(0.12 -0.12)">
     <use xlink:href="#DejaVuSans-50"/>
     <use xlink:href="#DejaVuSans-72" transform="translate(58.552734 0)"/>
     <use xlink:href="#DejaVuSans-61" transform="translate(99.666016 0)"/>
     <use xlink:href="#DejaVuSans-63" transform="translate(160.945312 0)"/>
     <use xlink:href="#DejaVuSans-74" transform="translate(215.925781 0)"/>
     <use xlink:href="#DejaVuSans-69" transform="translate(255.134766 0)"/>
     <use xlink:href="#DejaVuSans-63" transform="translate(282.917969 0)"/>
     <use xlink:href="#DejaVuSans-61" transform="translate(337.898438 0)"/>
     <use xlink:href="#DejaVuSans-6c" transform="translate(399.177734 0)"/>
     <use xlink:href="#DejaVuSans-5f" transform="translate(426.960938 0)"/>
     <use xlink:href="#DejaVuSans-48" transform="translate(476.960938 0)"/>
     <use xlink:href="#DejaVuSans-6f" transform="translate(552.15625 0)"/>
     <use xlink:href="#DejaVuSans-75" transform="translate(613.337891 0)"/>
     <use xlink:href="#DejaVuSans-72" transform="translate(676.716797 0)"/>
     <use xlink:href="#DejaVuSans-73" transform="translate(717.830078 0)"/>
     <use xlink:href="#DejaVuSans-20" transform="translate(769.929688 0)"/>
     <use xlink:href="#DejaVuSans-61" transform="translate(801.716797 0)"/>
     <use xlink:href="#DejaVuSans-66" transform="translate(862.996094 0)"/>
     <use xlink:href="#DejaVuSans-74" transform="translate(896.451172 0)"/>
     <use xlink:href="#DejaVuSans-65" transform="translate(935.660156 0)"/>
     <use xlink:href="#DejaVuSans-72" transform="translate(997.183594 0)"/>
     <use xlink:href="#DejaVuSans-20" transform="translate(1038.296875 0)"/>
     <use xlink:href="#DejaVuSans-28" transform="translate(1070.083984 0)"/>
     <use xlink:href="#DejaVuSans-6d" transform="translate(1109.097656 0)"/>
     <use xlink:href="#DejaVuSans-61" transform="translate(1206.509766 0)"/>
     <use xlink:href="#DejaVuSans-78" transform="translate(1267.789062 0)"/>
     <use xlink:href="#DejaVuSans-3d" transform="translate(1326.96875 0)"/>
     <use xlink:href="#DejaVuSans-38" transform="translate(1410.757812 0)"/>
     <use xlink:href="#DejaVuSans-29" transform="translate(1474.380859 0)"/>
    </g>
   </g>
  </g>
 </g>
 <defs>
  <clipPath id="pe734f8cd9b">
   <rect x="31.8" y="22.318125" width="389.921497" height="234.68"/>
  </clipPath>
  <clipPath id="pd98a1f7335">
   <rect x="459.432645" y="22.318125" width="389.921497" height="234.68"/>
  </clipPath>
 </defs>
</svg>
