<?xml version="1.0" encoding="utf-8" standalone="no"?>
<!DOCTYPE svg PUBLIC "-//W3C//DTD SVG 1.1//EN"
  "http://www.w3.org/Graphics/SVG/1.1/DTD/svg11.dtd">
<svg xmlns:xlink="http://www.w3.org/1999/xlink" width="856.554141pt" height="280.87625pt" viewBox="0 0 856.554141 280.87625" xmlns="http://www.w3.org/2000/svg" version="1.1">
 <metadata>
  <rdf:RDF xmlns:dc="http://purl.org/dc/elements/1.1/" xmlns:cc="http://creativecommons.org/ns#" xmlns:rdf="http://www.w3.org/1999/02/22-rdf-syntax-ns#">
   <cc:Work>
    <dc:type rdf:resource="http://purl.org/dc/dcmitype/StillImage"/>
    <dc:date>2026-06-20T18:48:26.893560</dc:date>
    <dc:format>image/svg+xml</dc:format>
    <dc:creator>
     <cc:Agent>
      <dc:title>Matplotlib v3.10.7, https://matplotlib.org/</dc:title>
     </cc:Agent>
    </dc:creator>
   </cc:Work>
  </rdf:RDF>
 </metadata>
 <defs>
  <style type="text/css">*{stroke-linejoin: round; stroke-linecap: butt}</style>
 </defs>
 <g id="figure_1">
  <g id="patch_1">
   <path d="M 0 280.87625 
L 856.554141 280.87625 
L 856.554141 0 
L 0 0 
z
" style="fill: #ffffff"/>
  </g>
  <g id="axes_1">
   <g id="patch_2">
    <path d="M 31.8 256.998125 
L 421.707661 256.998125 
L 421.707661 22.318125 
L 31.8 22.318125 
z
" style="fill: #ffffff"/>
   </g>
   <g id="patch_3">
    <path d="M 49.523075 69813.160959 
L 56.612306 69813.160959 
L 56.612306 32.985398 
L 49.523075 32.985398 
z
" clip-path="url(#p3d21e8b60a)" style="fill: #1f77b4"/>
   </g>
   <g id="patch_4">
    <path d="M 56.612306 69813.160959 
L 63.701536 69813.160959 
L 63.701536 69813.160959 
L 56.612306 69813.160959 
z
" clip-path="url(#p3d21e8b60a)" style="fill: #1f77b4"/>
   </g>
   <g id="patch_5">
    <path d="M 63.701536 69813.160959 
L 70.790766 69813.160959 
L 70.790766 69813.160959 
L 63.701536 69813.160959 
z
" clip-path="url(#p3d21e8b60a)" style="fill: #1f77b4"/>
   </g>
   <g id="patch_6">
    <path d="M 70.790766 69813.160959 
L 77.879996 69813.160959 
L 77.879996 69813.160959 
L 70.790766 69813.160959 
z
" clip-path="url(#p3d21e8b60a)" style="fill: #1f77b4"/>
   </g>
   <g id="patch_7">
    <path d="M 77.879996 69813.160959 
L 84.969226 69813.160959 
L 84.969226 69813.160959 
L 77.879996 69813.160959 
z
" clip-path="url(#p3d21e8b60a)" style="fill: #1f77b4"/>
   </g>
   <g id="patch_8">
    <path d="M 84.969226 69813.160959 
L 92.058457 69813.160959 
L 92.058457 69813.160959 
L 84.969226 69813.160959 
z
" clip-path="url(#p3d21e8b60a)" style="fill: #1f77b4"/>
   </g>
   <g id="patch_9">
    <path d="M 92.058457 69813.160959 
L 99.147687 69813.160959 
L 99.147687 69813.160959 
L 92.058457 69813.160959 
z
" clip-path="url(#p3d21e8b60a)" style="fill: #1f77b4"/>
   </g>
   <g id="patch_10">
    <path d="M 99.147687 69813.160959 
L 106.236917 69813.160959 
L 106.236917 69813.160959 
L 99.147687 69813.160959 
z
" clip-path="url(#p3d21e8b60a)" style="fill: #1f77b4"/>
   </g>
   <g id="patch_11">
    <path d="M 106.236917 69813.160959 
L 113.326147 69813.160959 
L 113.326147 69813.160959 
L 106.236917 69813.160959 
z
" clip-path="url(#p3d21e8b60a)" style="fill: #1f77b4"/>
   </g>
   <g id="patch_12">
    <path d="M 113.326147 69813.160959 
L 120.415377 69813.160959 
L 120.415377 69813.160959 
L 113.326147 69813.160959 
z
" clip-path="url(#p3d21e8b60a)" style="fill: #1f77b4"/>
   </g>
   <g id="patch_13">
    <path d="M 120.415377 69813.160959 
L 127.504608 69813.160959 
L 127.504608 69813.160959 
L 120.415377 69813.160959 
z
" clip-path="url(#p3d21e8b60a)" style="fill: #1f77b4"/>
   </g>
   <g id="patch_14">
    <path d="M 127.504608 69813.160959 
L 134.593838 69813.160959 
L 134.593838 69813.160959 
L 127.504608 69813.160959 
z
" clip-path="url(#p3d21e8b60a)" style="fill: #1f77b4"/>
   </g>
   <g id="patch_15">
    <path d="M 134.593838 69813.160959 
L 141.683068 69813.160959 
L 141.683068 69813.160959 
L 134.593838 69813.160959 
z
" clip-path="url(#p3d21e8b60a)" style="fill: #1f77b4"/>
   </g>
   <g id="patch_16">
    <path d="M 141.683068 69813.160959 
L 148.772298 69813.160959 
L 148.772298 69813.160959 
L 141.683068 69813.160959 
z
" clip-path="url(#p3d21e8b60a)" style="fill: #1f77b4"/>
   </g>
   <g id="patch_17">
    <path d="M 148.772298 69813.160959 
L 155.861528 69813.160959 
L 155.861528 69813.160959 
L 148.772298 69813.160959 
z
" clip-path="url(#p3d21e8b60a)" style="fill: #1f77b4"/>
   </g>
   <g id="patch_18">
    <path d="M 155.861528 69813.160959 
L 162.950759 69813.160959 
L 162.950759 69813.160959 
L 155.861528 69813.160959 
z
" clip-path="url(#p3d21e8b60a)" style="fill: #1f77b4"/>
   </g>
   <g id="patch_19">
    <path d="M 162.950759 69813.160959 
L 170.039989 69813.160959 
L 170.039989 69813.160959 
L 162.950759 69813.160959 
z
" clip-path="url(#p3d21e8b60a)" style="fill: #1f77b4"/>
   </g>
   <g id="patch_20">
    <path d="M 170.039989 69813.160959 
L 177.129219 69813.160959 
L 177.129219 69813.160959 
L 170.039989 69813.160959 
z
" clip-path="url(#p3d21e8b60a)" style="fill: #1f77b4"/>
   </g>
   <g id="patch_21">
    <path d="M 177.129219 69813.160959 
L 184.218449 69813.160959 
L 184.218449 69813.160959 
L 177.129219 69813.160959 
z
" clip-path="url(#p3d21e8b60a)" style="fill: #1f77b4"/>
   </g>
   <g id="patch_22">
    <path d="M 184.218449 69813.160959 
L 191.307679 69813.160959 
L 191.307679 69813.160959 
L 184.218449 69813.160959 
z
" clip-path="url(#p3d21e8b60a)" style="fill: #1f77b4"/>
   </g>
   <g id="patch_23">
    <path d="M 191.307679 69813.160959 
L 198.39691 69813.160959 
L 198.39691 69813.160959 
L 191.307679 69813.160959 
z
" clip-path="url(#p3d21e8b60a)" style="fill: #1f77b4"/>
   </g>
   <g id="patch_24">
    <path d="M 198.39691 69813.160959 
L 205.48614 69813.160959 
L 205.48614 69813.160959 
L 198.39691 69813.160959 
z
" clip-path="url(#p3d21e8b60a)" style="fill: #1f77b4"/>
   </g>
   <g id="patch_25">
    <path d="M 205.48614 69813.160959 
L 212.57537 69813.160959 
L 212.57537 69813.160959 
L 205.48614 69813.160959 
z
" clip-path="url(#p3d21e8b60a)" style="fill: #1f77b4"/>
   </g>
   <g id="patch_26">
    <path d="M 212.57537 69813.160959 
L 219.6646 69813.160959 
L 219.6646 69813.160959 
L 212.57537 69813.160959 
z
" clip-path="url(#p3d21e8b60a)" style="fill: #1f77b4"/>
   </g>
   <g id="patch_27">
    <path d="M 219.6646 69813.160959 
L 226.75383 69813.160959 
L 226.75383 69813.160959 
L 219.6646 69813.160959 
z
" clip-path="url(#p3d21e8b60a)" style="fill: #1f77b4"/>
   </g>
   <g id="patch_28">
    <path d="M 226.75383 69813.160959 
L 233.843061 69813.160959 
L 233.843061 69813.160959 
L 226.75383 69813.160959 
z
" clip-path="url(#p3d21e8b60a)" style="fill: #1f77b4"/>
   </g>
   <g id="patch_29">
    <path d="M 233.843061 69813.160959 
L 240.932291 69813.160959 
L 240.932291 69813.160959 
L 233.843061 69813.160959 
z
" clip-path="url(#p3d21e8b60a)" style="fill: #1f77b4"/>
   </g>
   <g id="patch_30">
    <path d="M 240.932291 69813.160959 
L 248.021521 69813.160959 
L 248.021521 69813.160959 
L 240.932291 69813.160959 
z
" clip-path="url(#p3d21e8b60a)" style="fill: #1f77b4"/>
   </g>
   <g id="patch_31">
    <path d="M 248.021521 69813.160959 
L 255.110751 69813.160959 
L 255.110751 69813.160959 
L 248.021521 69813.160959 
z
" clip-path="url(#p3d21e8b60a)" style="fill: #1f77b4"/>
   </g>
   <g id="patch_32">
    <path d="M 255.110751 69813.160959 
L 262.199981 69813.160959 
L 262.199981 69813.160959 
L 255.110751 69813.160959 
z
" clip-path="url(#p3d21e8b60a)" style="fill: #1f77b4"/>
   </g>
   <g id="patch_33">
    <path d="M 262.199981 69813.160959 
L 269.289212 69813.160959 
L 269.289212 69813.160959 
L 262.199981 69813.160959 
z
" clip-path="url(#p3d21e8b60a)" style="fill: #1f77b4"/>
   </g>
   <g id="patch_34">
    <path d="M 269.289212 69813.160959 
L 276.378442 69813.160959 
L 276.378442 69813.160959 
L 269.289212 69813.160959 
z
" clip-path="url(#p3d21e8b60a)" style="fill: #1f77b4"/>
   </g>
   <g id="patch_35">
    <path d="M 276.378442 69813.160959 
L 283.467672 69813.160959 
L 283.467672 69813.160959 
L 276.378442 69813.160959 
z
" clip-path="url(#p3d21e8b60a)" style="fill: #1f77b4"/>
   </g>
   <g id="patch_36">
    <path d="M 283.467672 69813.160959 
L 290.556902 69813.160959 
L 290.556902 69813.160959 
L 283.467672 69813.160959 
z
" clip-path="url(#p3d21e8b60a)" style="fill: #1f77b4"/>
   </g>
   <g id="patch_37">
    <path d="M 290.556902 69813.160959 
L 297.646132 69813.160959 
L 297.646132 69813.160959 
L 290.556902 69813.160959 
z
" clip-path="url(#p3d21e8b60a)" style="fill: #1f77b4"/>
   </g>
   <g id="patch_38">
    <path d="M 297.646132 69813.160959 
L 304.735362 69813.160959 
L 304.735362 69813.160959 
L 297.646132 69813.160959 
z
" clip-path="url(#p3d21e8b60a)" style="fill: #1f77b4"/>
   </g>
   <g id="patch_39">
    <path d="M 304.735362 69813.160959 
L 311.824593 69813.160959 
L 311.824593 69813.160959 
L 304.735362 69813.160959 
z
" clip-path="url(#p3d21e8b60a)" style="fill: #1f77b4"/>
   </g>
   <g id="patch_40">
    <path d="M 311.824593 69813.160959 
L 318.913823 69813.160959 
L 318.913823 69813.160959 
L 311.824593 69813.160959 
z
" clip-path="url(#p3d21e8b60a)" style="fill: #1f77b4"/>
   </g>
   <g id="patch_41">
    <path d="M 318.913823 69813.160959 
L 326.003053 69813.160959 
L 326.003053 69813.160959 
L 318.913823 69813.160959 
z
" clip-path="url(#p3d21e8b60a)" style="fill: #1f77b4"/>
   </g>
   <g id="patch_42">
    <path d="M 326.003053 69813.160959 
L 333.092283 69813.160959 
L 333.092283 69813.160959 
L 326.003053 69813.160959 
z
" clip-path="url(#p3d21e8b60a)" style="fill: #1f77b4"/>
   </g>
   <g id="patch_43">
    <path d="M 333.092283 69813.160959 
L 340.181513 69813.160959 
L 340.181513 69813.160959 
L 333.092283 69813.160959 
z
" clip-path="url(#p3d21e8b60a)" style="fill: #1f77b4"/>
   </g>
   <g id="patch_44">
    <path d="M 340.181513 69813.160959 
L 347.270744 69813.160959 
L 347.270744 69813.160959 
L 340.181513 69813.160959 
z
" clip-path="url(#p3d21e8b60a)" style="fill: #1f77b4"/>
   </g>
   <g id="patch_45">
    <path d="M 347.270744 69813.160959 
L 354.359974 69813.160959 
L 354.359974 69813.160959 
L 347.270744 69813.160959 
z
" clip-path="url(#p3d21e8b60a)" style="fill: #1f77b4"/>
   </g>
   <g id="patch_46">
    <path d="M 354.359974 69813.160959 
L 361.449204 69813.160959 
L 361.449204 69813.160959 
L 354.359974 69813.160959 
z
" clip-path="url(#p3d21e8b60a)" style="fill: #1f77b4"/>
   </g>
   <g id="patch_47">
    <path d="M 361.449204 69813.160959 
L 368.538434 69813.160959 
L 368.538434 69813.160959 
L 361.449204 69813.160959 
z
" clip-path="url(#p3d21e8b60a)" style="fill: #1f77b4"/>
   </g>
   <g id="patch_48">
    <path d="M 368.538434 69813.160959 
L 375.627664 69813.160959 
L 375.627664 69813.160959 
L 368.538434 69813.160959 
z
" clip-path="url(#p3d21e8b60a)" style="fill: #1f77b4"/>
   </g>
   <g id="patch_49">
    <path d="M 375.627664 69813.160959 
L 382.716895 69813.160959 
L 382.716895 69813.160959 
L 375.627664 69813.160959 
z
" clip-path="url(#p3d21e8b60a)" style="fill: #1f77b4"/>
   </g>
   <g id="patch_50">
    <path d="M 382.716895 69813.160959 
L 389.806125 69813.160959 
L 389.806125 69813.160959 
L 382.716895 69813.160959 
z
" clip-path="url(#p3d21e8b60a)" style="fill: #1f77b4"/>
   </g>
   <g id="patch_51">
    <path d="M 389.806125 69813.160959 
L 396.895355 69813.160959 
L 396.895355 69813.160959 
L 389.806125 69813.160959 
z
" clip-path="url(#p3d21e8b60a)" style="fill: #1f77b4"/>
   </g>
   <g id="patch_52">
    <path d="M 396.895355 69813.160959 
L 403.984585 69813.160959 
L 403.984585 246.330852 
L 396.895355 246.330852 
z
" clip-path="url(#p3d21e8b60a)" style="fill: #1f77b4"/>
   </g>
   <g id="matplotlib.axis_1">
    <g id="xtick_1">
     <g id="line2d_1">
      <defs>
       <path id="m7331bc9a60" d="M 0 0 
L 0 3.5 
" style="stroke: #000000; stroke-width: 0.8"/>
      </defs>
      <g>
       <use xlink:href="#m7331bc9a60" x="49.523075" y="256.998125" style="stroke: #000000; stroke-width: 0.8"/>
      </g>
     </g>
     <g id="text_1">
      <!-- 0 -->
      <g transform="translate(46.341825 271.596562) scale(0.1 -0.1)">
       <defs>
        <path id="DejaVuSans-30" d="M 2034 4250 
Q 1547 4250 1301 3770 
Q 1056 3291 1056 2328 
Q 1056 1369 1301 889 
Q 1547 409 2034 409 
Q 2525 409 2770 889 
Q 3016 1369 3016 2328 
Q 3016 3291 2770 3770 
Q 2525 4250 2034 4250 
z
M 2034 4750 
Q 2819 4750 3233 4129 
Q 3647 3509 3647 2328 
Q 3647 1150 3233 529 
Q 2819 -91 2034 -91 
Q 1250 -91 836 529 
Q 422 1150 422 2328 
Q 422 3509 836 4129 
Q 1250 4750 2034 4750 
z
" transform="scale(0.015625)"/>
       </defs>
       <use xlink:href="#DejaVuSans-30"/>
      </g>
     </g>
    </g>
    <g id="xtick_2">
     <g id="line2d_2">
      <g>
       <use xlink:href="#m7331bc9a60" x="120.422467" y="256.998125" style="stroke: #000000; stroke-width: 0.8"/>
      </g>
     </g>
     <g id="text_2">
      <!-- 2000 -->
      <g transform="translate(107.697467 271.596562) scale(0.1 -0.1)">
       <defs>
        <path id="DejaVuSans-32" d="M 1228 531 
L 3431 531 
L 3431 0 
L 469 0 
L 469 531 
Q 828 903 1448 1529 
Q 2069 2156 2228 2338 
Q 2531 2678 2651 2914 
Q 2772 3150 2772 3378 
Q 2772 3750 2511 3984 
Q 2250 4219 1831 4219 
Q 1534 4219 1204 4116 
Q 875 4013 500 3803 
L 500 4441 
Q 881 4594 1212 4672 
Q 1544 4750 1819 4750 
Q 2544 4750 2975 4387 
Q 3406 4025 3406 3419 
Q 3406 3131 3298 2873 
Q 3191 2616 2906 2266 
Q 2828 2175 2409 1742 
Q 1991 1309 1228 531 
z
" transform="scale(0.015625)"/>
       </defs>
       <use xlink:href="#DejaVuSans-32"/>
       <use xlink:href="#DejaVuSans-30" transform="translate(63.623047 0)"/>
       <use xlink:href="#DejaVuSans-30" transform="translate(127.246094 0)"/>
       <use xlink:href="#DejaVuSans-30" transform="translate(190.869141 0)"/>
      </g>
     </g>
    </g>
    <g id="xtick_3">
     <g id="line2d_3">
      <g>
       <use xlink:href="#m7331bc9a60" x="191.321859" y="256.998125" style="stroke: #000000; stroke-width: 0.8"/>
      </g>
     </g>
     <g id="text_3">
      <!-- 4000 -->
      <g transform="translate(178.596859 271.596562) scale(0.1 -0.1)">
       <defs>
        <path id="DejaVuSans-34" d="M 2419 4116 
L 825 1625 
L 2419 1625 
L 2419 4116 
z
M 2253 4666 
L 3047 4666 
L 3047 1625 
L 3713 1625 
L 3713 1100 
L 3047 1100 
L 3047 0 
L 2419 0 
L 2419 1100 
L 313 1100 
L 313 1709 
L 2253 4666 
z
" transform="scale(0.015625)"/>
       </defs>
       <use xlink:href="#DejaVuSans-34"/>
       <use xlink:href="#DejaVuSans-30" transform="translate(63.623047 0)"/>
       <use xlink:href="#DejaVuSans-30" transform="translate(127.246094 0)"/>
       <use xlink:href="#DejaVuSans-30" transform="translate(190.869141 0)"/>
      </g>
     </g>
    </g>
    <g id="xtick_4">
     <g id="line2d_4">
      <g>
       <use xlink:href="#m7331bc9a60" x="262.221251" y="256.998125" style="stroke: #000000; stroke-width: 0.8"/>
      </g>
     </g>
     <g id="text_4">
      <!-- 6000 -->
      <g transform="translate(249.496251 271.596562) scale(0.1 -0.1)">
       <defs>
        <path id="DejaVuSans-36" d="M 2113 2584 
Q 1688 2584 1439 2293 
Q 1191 2003 1191 1497 
Q 1191 994 1439 701 
Q 1688 409 2113 409 
Q 2538 409 2786 701 
Q 3034 994 3034 1497 
Q 3034 2003 2786 2293 
Q 2538 2584 2113 2584 
z
M 3366 4563 
L 3366 3988 
Q 3128 4100 2886 4159 
Q 2644 4219 2406 4219 
Q 1781 4219 1451 3797 
Q 1122 3375 1075 2522 
Q 1259 2794 1537 2939 
Q 1816 3084 2150 3084 
Q 2853 3084 3261 2657 
Q 3669 2231 3669 1497 
Q 3669 778 3244 343 
Q 2819 -91 2113 -91 
Q 1303 -91 875 529 
Q 447 1150 447 2328 
Q 447 3434 972 4092 
Q 1497 4750 2381 4750 
Q 2619 4750 2861 4703 
Q 3103 4656 3366 4563 
z
" transform="scale(0.015625)"/>
       </defs>
       <use xlink:href="#DejaVuSans-36"/>
       <use xlink:href="#DejaVuSans-30" transform="translate(63.623047 0)"/>
       <use xlink:href="#DejaVuSans-30" transform="translate(127.246094 0)"/>
       <use xlink:href="#DejaVuSans-30" transform="translate(190.869141 0)"/>
      </g>
     </g>
    </g>
    <g id="xtick_5">
     <g id="line2d_5">
      <g>
       <use xlink:href="#m7331bc9a60" x="333.120643" y="256.998125" style="stroke: #000000; stroke-width: 0.8"/>
      </g>
     </g>
     <g id="text_5">
      <!-- 8000 -->
      <g transform="translate(320.395643 271.596562) scale(0.1 -0.1)">
       <defs>
        <path id="DejaVuSans-38" d="M 2034 2216 
Q 1584 2216 1326 1975 
Q 1069 1734 1069 1313 
Q 1069 891 1326 650 
Q 1584 409 2034 409 
Q 2484 409 2743 651 
Q 3003 894 3003 1313 
Q 3003 1734 2745 1975 
Q 2488 2216 2034 2216 
z
M 1403 2484 
Q 997 2584 770 2862 
Q 544 3141 544 3541 
Q 544 4100 942 4425 
Q 1341 4750 2034 4750 
Q 2731 4750 3128 4425 
Q 3525 4100 3525 3541 
Q 3525 3141 3298 2862 
Q 3072 2584 2669 2484 
Q 3125 2378 3379 2068 
Q 3634 1759 3634 1313 
Q 3634 634 3220 271 
Q 2806 -91 2034 -91 
Q 1263 -91 848 271 
Q 434 634 434 1313 
Q 434 1759 690 2068 
Q 947 2378 1403 2484 
z
M 1172 3481 
Q 1172 3119 1398 2916 
Q 1625 2713 2034 2713 
Q 2441 2713 2670 2916 
Q 2900 3119 2900 3481 
Q 2900 3844 2670 4047 
Q 2441 4250 2034 4250 
Q 1625 4250 1398 4047 
Q 1172 3844 1172 3481 
z
" transform="scale(0.015625)"/>
       </defs>
       <use xlink:href="#DejaVuSans-38"/>
       <use xlink:href="#DejaVuSans-30" transform="translate(63.623047 0)"/>
       <use xlink:href="#DejaVuSans-30" transform="translate(127.246094 0)"/>
       <use xlink:href="#DejaVuSans-30" transform="translate(190.869141 0)"/>
      </g>
     </g>
    </g>
    <g id="xtick_6">
     <g id="line2d_6">
      <g>
       <use xlink:href="#m7331bc9a60" x="404.020035" y="256.998125" style="stroke: #000000; stroke-width: 0.8"/>
      </g>
     </g>
     <g id="text_6">
      <!-- 10000 -->
      <g transform="translate(388.113785 271.596562) scale(0.1 -0.1)">
       <defs>
        <path id="DejaVuSans-31" d="M 794 531 
L 1825 531 
L 1825 4091 
L 703 3866 
L 703 4441 
L 1819 4666 
L 2450 4666 
L 2450 531 
L 3481 531 
L 3481 0 
L 794 0 
L 794 531 
z
" transform="scale(0.015625)"/>
       </defs>
       <use xlink:href="#DejaVuSans-31"/>
       <use xlink:href="#DejaVuSans-30" transform="translate(63.623047 0)"/>
       <use xlink:href="#DejaVuSans-30" transform="translate(127.246094 0)"/>
       <use xlink:href="#DejaVuSans-30" transform="translate(190.869141 0)"/>
       <use xlink:href="#DejaVuSans-30" transform="translate(254.492188 0)"/>
      </g>
     </g>
    </g>
   </g>
   <g id="matplotlib.axis_2">
    <g id="ytick_1">
     <g id="line2d_7">
      <defs>
       <path id="m30fcb65953" d="M 0 0 
L -3.5 0 
" style="stroke: #000000; stroke-width: 0.8"/>
      </defs>
      <g>
       <use xlink:href="#m30fcb65953" x="31.8" y="220.873998" style="stroke: #000000; stroke-width: 0.8"/>
      </g>
     </g>
     <g id="text_7">
      <!-- $\mathdefault{10^{2}}$ -->
      <g transform="translate(7.2 224.673216) scale(0.1 -0.1)">
       <use xlink:href="#DejaVuSans-31" transform="translate(0 0.765625)"/>
       <use xlink:href="#DejaVuSans-30" transform="translate(63.623047 0.765625)"/>
       <use xlink:href="#DejaVuSans-32" transform="translate(128.203125 39.046875) scale(0.7)"/>
      </g>
     </g>
    </g>
    <g id="ytick_2">
     <g id="line2d_8">
      <g>
       <use xlink:href="#m30fcb65953" x="31.8" y="151.420617" style="stroke: #000000; stroke-width: 0.8"/>
      </g>
     </g>
     <g id="text_8">
      <!-- $\mathdefault{10^{3}}$ -->
      <g transform="translate(7.2 155.219836) scale(0.1 -0.1)">
       <defs>
        <path id="DejaVuSans-33" d="M 2597 2516 
Q 3050 2419 3304 2112 
Q 3559 1806 3559 1356 
Q 3559 666 3084 287 
Q 2609 -91 1734 -91 
Q 1441 -91 1130 -33 
Q 819 25 488 141 
L 488 750 
Q 750 597 1062 519 
Q 1375 441 1716 441 
Q 2309 441 2620 675 
Q 2931 909 2931 1356 
Q 2931 1769 2642 2001 
Q 2353 2234 1838 2234 
L 1294 2234 
L 1294 2753 
L 1863 2753 
Q 2328 2753 2575 2939 
Q 2822 3125 2822 3475 
Q 2822 3834 2567 4026 
Q 2313 4219 1838 4219 
Q 1578 4219 1281 4162 
Q 984 4106 628 3988 
L 628 4550 
Q 988 4650 1302 4700 
Q 1616 4750 1894 4750 
Q 2613 4750 3031 4423 
Q 3450 4097 3450 3541 
Q 3450 3153 3228 2886 
Q 3006 2619 2597 2516 
z
" transform="scale(0.015625)"/>
       </defs>
       <use xlink:href="#DejaVuSans-31" transform="translate(0 0.765625)"/>
       <use xlink:href="#DejaVuSans-30" transform="translate(63.623047 0.765625)"/>
       <use xlink:href="#DejaVuSans-33" transform="translate(128.203125 39.046875) scale(0.7)"/>
      </g>
     </g>
    </g>
    <g id="ytick_3">
     <g id="line2d_9">
      <g>
       <use xlink:href="#m30fcb65953" x="31.8" y="81.967237" style="stroke: #000000; stroke-width: 0.8"/>
      </g>
     </g>
     <g id="text_9">
      <!-- $\mathdefault{10^{4}}$ -->
      <g transform="translate(7.2 85.766456) scale(0.1 -0.1)">
       <use xlink:href="#DejaVuSans-31" transform="translate(0 0.684375)"/>
       <use xlink:href="#DejaVuSans-30" transform="translate(63.623047 0.684375)"/>
       <use xlink:href="#DejaVuSans-34" transform="translate(128.203125 38.965625) scale(0.7)"/>
      </g>
     </g>
    </g>
    <g id="ytick_4">
     <g id="line2d_10">
      <defs>
       <path id="me3879e7cf1" d="M 0 0 
L -2 0 
" style="stroke: #000000; stroke-width: 0.6"/>
      </defs>
      <g>
       <use xlink:href="#me3879e7cf1" x="31.8" y="248.512276" style="stroke: #000000; stroke-width: 0.6"/>
      </g>
     </g>
    </g>
    <g id="ytick_5">
     <g id="line2d_11">
      <g>
       <use xlink:href="#me3879e7cf1" x="31.8" y="241.781548" style="stroke: #000000; stroke-width: 0.6"/>
      </g>
     </g>
    </g>
    <g id="ytick_6">
     <g id="line2d_12">
      <g>
       <use xlink:href="#me3879e7cf1" x="31.8" y="236.282143" style="stroke: #000000; stroke-width: 0.6"/>
      </g>
     </g>
    </g>
    <g id="ytick_7">
     <g id="line2d_13">
      <g>
       <use xlink:href="#me3879e7cf1" x="31.8" y="231.632462" style="stroke: #000000; stroke-width: 0.6"/>
      </g>
     </g>
    </g>
    <g id="ytick_8">
     <g id="line2d_14">
      <g>
       <use xlink:href="#me3879e7cf1" x="31.8" y="227.604726" style="stroke: #000000; stroke-width: 0.6"/>
      </g>
     </g>
    </g>
    <g id="ytick_9">
     <g id="line2d_15">
      <g>
       <use xlink:href="#me3879e7cf1" x="31.8" y="224.05201" style="stroke: #000000; stroke-width: 0.6"/>
      </g>
     </g>
    </g>
    <g id="ytick_10">
     <g id="line2d_16">
      <g>
       <use xlink:href="#me3879e7cf1" x="31.8" y="199.966447" style="stroke: #000000; stroke-width: 0.6"/>
      </g>
     </g>
    </g>
    <g id="ytick_11">
     <g id="line2d_17">
      <g>
       <use xlink:href="#me3879e7cf1" x="31.8" y="187.736314" style="stroke: #000000; stroke-width: 0.6"/>
      </g>
     </g>
    </g>
    <g id="ytick_12">
     <g id="line2d_18">
      <g>
       <use xlink:href="#me3879e7cf1" x="31.8" y="179.058896" style="stroke: #000000; stroke-width: 0.6"/>
      </g>
     </g>
    </g>
    <g id="ytick_13">
     <g id="line2d_19">
      <g>
       <use xlink:href="#me3879e7cf1" x="31.8" y="172.328168" style="stroke: #000000; stroke-width: 0.6"/>
      </g>
     </g>
    </g>
    <g id="ytick_14">
     <g id="line2d_20">
      <g>
       <use xlink:href="#me3879e7cf1" x="31.8" y="166.828763" style="stroke: #000000; stroke-width: 0.6"/>
      </g>
     </g>
    </g>
    <g id="ytick_15">
     <g id="line2d_21">
      <g>
       <use xlink:href="#me3879e7cf1" x="31.8" y="162.179082" style="stroke: #000000; stroke-width: 0.6"/>
      </g>
     </g>
    </g>
    <g id="ytick_16">
     <g id="line2d_22">
      <g>
       <use xlink:href="#me3879e7cf1" x="31.8" y="158.151345" style="stroke: #000000; stroke-width: 0.6"/>
      </g>
     </g>
    </g>
    <g id="ytick_17">
     <g id="line2d_23">
      <g>
       <use xlink:href="#me3879e7cf1" x="31.8" y="154.59863" style="stroke: #000000; stroke-width: 0.6"/>
      </g>
     </g>
    </g>
    <g id="ytick_18">
     <g id="line2d_24">
      <g>
       <use xlink:href="#me3879e7cf1" x="31.8" y="130.513067" style="stroke: #000000; stroke-width: 0.6"/>
      </g>
     </g>
    </g>
    <g id="ytick_19">
     <g id="line2d_25">
      <g>
       <use xlink:href="#me3879e7cf1" x="31.8" y="118.282933" style="stroke: #000000; stroke-width: 0.6"/>
      </g>
     </g>
    </g>
    <g id="ytick_20">
     <g id="line2d_26">
      <g>
       <use xlink:href="#me3879e7cf1" x="31.8" y="109.605516" style="stroke: #000000; stroke-width: 0.6"/>
      </g>
     </g>
    </g>
    <g id="ytick_21">
     <g id="line2d_27">
      <g>
       <use xlink:href="#me3879e7cf1" x="31.8" y="102.874788" style="stroke: #000000; stroke-width: 0.6"/>
      </g>
     </g>
    </g>
    <g id="ytick_22">
     <g id="line2d_28">
      <g>
       <use xlink:href="#me3879e7cf1" x="31.8" y="97.375383" style="stroke: #000000; stroke-width: 0.6"/>
      </g>
     </g>
    </g>
    <g id="ytick_23">
     <g id="line2d_29">
      <g>
       <use xlink:href="#me3879e7cf1" x="31.8" y="92.725702" style="stroke: #000000; stroke-width: 0.6"/>
      </g>
     </g>
    </g>
    <g id="ytick_24">
     <g id="line2d_30">
      <g>
       <use xlink:href="#me3879e7cf1" x="31.8" y="88.697965" style="stroke: #000000; stroke-width: 0.6"/>
      </g>
     </g>
    </g>
    <g id="ytick_25">
     <g id="line2d_31">
      <g>
       <use xlink:href="#me3879e7cf1" x="31.8" y="85.14525" style="stroke: #000000; stroke-width: 0.6"/>
      </g>
     </g>
    </g>
    <g id="ytick_26">
     <g id="line2d_32">
      <g>
       <use xlink:href="#me3879e7cf1" x="31.8" y="61.059686" style="stroke: #000000; stroke-width: 0.6"/>
      </g>
     </g>
    </g>
    <g id="ytick_27">
     <g id="line2d_33">
      <g>
       <use xlink:href="#me3879e7cf1" x="31.8" y="48.829553" style="stroke: #000000; stroke-width: 0.6"/>
      </g>
     </g>
    </g>
    <g id="ytick_28">
     <g id="line2d_34">
      <g>
       <use xlink:href="#me3879e7cf1" x="31.8" y="40.152136" style="stroke: #000000; stroke-width: 0.6"/>
      </g>
     </g>
    </g>
    <g id="ytick_29">
     <g id="line2d_35">
      <g>
       <use xlink:href="#me3879e7cf1" x="31.8" y="33.421408" style="stroke: #000000; stroke-width: 0.6"/>
      </g>
     </g>
    </g>
    <g id="ytick_30">
     <g id="line2d_36">
      <g>
       <use xlink:href="#me3879e7cf1" x="31.8" y="27.922003" style="stroke: #000000; stroke-width: 0.6"/>
      </g>
     </g>
    </g>
    <g id="ytick_31">
     <g id="line2d_37">
      <g>
       <use xlink:href="#me3879e7cf1" x="31.8" y="23.272322" style="stroke: #000000; stroke-width: 0.6"/>
      </g>
     </g>
    </g>
   </g>
   <g id="patch_53">
    <path d="M 31.8 256.998125 
L 31.8 22.318125 
" style="fill: none; stroke: #000000; stroke-width: 0.8; stroke-linejoin: miter; stroke-linecap: square"/>
   </g>
   <g id="patch_54">
    <path d="M 421.707661 256.998125 
L 421.707661 22.318125 
" style="fill: none; stroke: #000000; stroke-width: 0.8; stroke-linejoin: miter; stroke-linecap: square"/>
   </g>
   <g id="patch_55">
    <path d="M 31.8 256.998125 
L 421.707661 256.998125 
" style="fill: none; stroke: #000000; stroke-width: 0.8; stroke-linejoin: miter; stroke-linecap: square"/>
   </g>
   <g id="patch_56">
    <path d="M 31.8 22.318125 
L 421.707661 22.318125 
" style="fill: none; stroke: #000000; stroke-width: 0.8; stroke-linejoin: miter; stroke-linecap: square"/>
   </g>
   <g id="text_10">
    <!-- Students_Count before (max=9999) -->
    <g transform="translate(118.016955 16.318125) scale(0.12 -0.12)">
     <defs>
      <path id="DejaVuSans-53" d="M 3425 4513 
L 3425 3897 
Q 3066 4069 2747 4153 
Q 2428 4238 2131 4238 
Q 1616 4238 1336 4038 
Q 1056 3838 1056 3469 
Q 1056 3159 1242 3001 
Q 1428 2844 1947 2747 
L 2328 2669 
Q 3034 2534 3370 2195 
Q 3706 1856 3706 1288 
Q 3706 609 3251 259 
Q 2797 -91 1919 -91 
Q 1588 -91 1214 -16 
Q 841 59 441 206 
L 441 856 
Q 825 641 1194 531 
Q 1563 422 1919 422 
Q 2459 422 2753 634 
Q 3047 847 3047 1241 
Q 3047 1584 2836 1778 
Q 2625 1972 2144 2069 
L 1759 2144 
Q 1053 2284 737 2584 
Q 422 2884 422 3419 
Q 422 4038 858 4394 
Q 1294 4750 2059 4750 
Q 2388 4750 2728 4690 
Q 3069 4631 3425 4513 
z
" transform="scale(0.015625)"/>
      <path id="DejaVuSans-74" d="M 1172 4494 
L 1172 3500 
L 2356 3500 
L 2356 3053 
L 1172 3053 
L 1172 1153 
Q 1172 725 1289 603 
Q 1406 481 1766 481 
L 2356 481 
L 2356 0 
L 1766 0 
Q 1100 0 847 248 
Q 594 497 594 1153 
L 594 3053 
L 172 3053 
L 172 3500 
L 594 3500 
L 594 4494 
L 1172 4494 
z
" transform="scale(0.015625)"/>
      <path id="DejaVuSans-75" d="M 544 1381 
L 544 3500 
L 1119 3500 
L 1119 1403 
Q 1119 906 1312 657 
Q 1506 409 1894 409 
Q 2359 409 2629 706 
Q 2900 1003 2900 1516 
L 2900 3500 
L 3475 3500 
L 3475 0 
L 2900 0 
L 2900 538 
Q 2691 219 2414 64 
Q 2138 -91 1772 -91 
Q 1169 -91 856 284 
Q 544 659 544 1381 
z
M 1991 3584 
L 1991 3584 
z
" transform="scale(0.015625)"/>
      <path id="DejaVuSans-64" d="M 2906 2969 
L 2906 4863 
L 3481 4863 
L 3481 0 
L 2906 0 
L 2906 525 
Q 2725 213 2448 61 
Q 2172 -91 1784 -91 
Q 1150 -91 751 415 
Q 353 922 353 1747 
Q 353 2572 751 3078 
Q 1150 3584 1784 3584 
Q 2172 3584 2448 3432 
Q 2725 3281 2906 2969 
z
M 947 1747 
Q 947 1113 1208 752 
Q 1469 391 1925 391 
Q 2381 391 2643 752 
Q 2906 1113 2906 1747 
Q 2906 2381 2643 2742 
Q 2381 3103 1925 3103 
Q 1469 3103 1208 2742 
Q 947 2381 947 1747 
z
" transform="scale(0.015625)"/>
      <path id="DejaVuSans-65" d="M 3597 1894 
L 3597 1613 
L 953 1613 
Q 991 1019 1311 708 
Q 1631 397 2203 397 
Q 2534 397 2845 478 
Q 3156 559 3463 722 
L 3463 178 
Q 3153 47 2828 -22 
Q 2503 -91 2169 -91 
Q 1331 -91 842 396 
Q 353 884 353 1716 
Q 353 2575 817 3079 
Q 1281 3584 2069 3584 
Q 2775 3584 3186 3129 
Q 3597 2675 3597 1894 
z
M 3022 2063 
Q 3016 2534 2758 2815 
Q 2500 3097 2075 3097 
Q 1594 3097 1305 2825 
Q 1016 2553 972 2059 
L 3022 2063 
z
" transform="scale(0.015625)"/>
      <path id="DejaVuSans-6e" d="M 3513 2113 
L 3513 0 
L 2938 0 
L 2938 2094 
Q 2938 2591 2744 2837 
Q 2550 3084 2163 3084 
Q 1697 3084 1428 2787 
Q 1159 2491 1159 1978 
L 1159 0 
L 581 0 
L 581 3500 
L 1159 3500 
L 1159 2956 
Q 1366 3272 1645 3428 
Q 1925 3584 2291 3584 
Q 2894 3584 3203 3211 
Q 3513 2838 3513 2113 
z
" transform="scale(0.015625)"/>
      <path id="DejaVuSans-73" d="M 2834 3397 
L 2834 2853 
Q 2591 2978 2328 3040 
Q 2066 3103 1784 3103 
Q 1356 3103 1142 2972 
Q 928 2841 928 2578 
Q 928 2378 1081 2264 
Q 1234 2150 1697 2047 
L 1894 2003 
Q 2506 1872 2764 1633 
Q 3022 1394 3022 966 
Q 3022 478 2636 193 
Q 2250 -91 1575 -91 
Q 1294 -91 989 -36 
Q 684 19 347 128 
L 347 722 
Q 666 556 975 473 
Q 1284 391 1588 391 
Q 1994 391 2212 530 
Q 2431 669 2431 922 
Q 2431 1156 2273 1281 
Q 2116 1406 1581 1522 
L 1381 1569 
Q 847 1681 609 1914 
Q 372 2147 372 2553 
Q 372 3047 722 3315 
Q 1072 3584 1716 3584 
Q 2034 3584 2315 3537 
Q 2597 3491 2834 3397 
z
" transform="scale(0.015625)"/>
      <path id="DejaVuSans-5f" d="M 3263 -1063 
L 3263 -1509 
L -63 -1509 
L -63 -1063 
L 3263 -1063 
z
" transform="scale(0.015625)"/>
      <path id="DejaVuSans-43" d="M 4122 4306 
L 4122 3641 
Q 3803 3938 3442 4084 
Q 3081 4231 2675 4231 
Q 1875 4231 1450 3742 
Q 1025 3253 1025 2328 
Q 1025 1406 1450 917 
Q 1875 428 2675 428 
Q 3081 428 3442 575 
Q 3803 722 4122 1019 
L 4122 359 
Q 3791 134 3420 21 
Q 3050 -91 2638 -91 
Q 1578 -91 968 557 
Q 359 1206 359 2328 
Q 359 3453 968 4101 
Q 1578 4750 2638 4750 
Q 3056 4750 3426 4639 
Q 3797 4528 4122 4306 
z
" transform="scale(0.015625)"/>
      <path id="DejaVuSans-6f" d="M 1959 3097 
Q 1497 3097 1228 2736 
Q 959 2375 959 1747 
Q 959 1119 1226 758 
Q 1494 397 1959 397 
Q 2419 397 2687 759 
Q 2956 1122 2956 1747 
Q 2956 2369 2687 2733 
Q 2419 3097 1959 3097 
z
M 1959 3584 
Q 2709 3584 3137 3096 
Q 3566 2609 3566 1747 
Q 3566 888 3137 398 
Q 2709 -91 1959 -91 
Q 1206 -91 779 398 
Q 353 888 353 1747 
Q 353 2609 779 3096 
Q 1206 3584 1959 3584 
z
" transform="scale(0.015625)"/>
      <path id="DejaVuSans-20" transform="scale(0.015625)"/>
      <path id="DejaVuSans-62" d="M 3116 1747 
Q 3116 2381 2855 2742 
Q 2594 3103 2138 3103 
Q 1681 3103 1420 2742 
Q 1159 2381 1159 1747 
Q 1159 1113 1420 752 
Q 1681 391 2138 391 
Q 2594 391 2855 752 
Q 3116 1113 3116 1747 
z
M 1159 2969 
Q 1341 3281 1617 3432 
Q 1894 3584 2278 3584 
Q 2916 3584 3314 3078 
Q 3713 2572 3713 1747 
Q 3713 922 3314 415 
Q 2916 -91 2278 -91 
Q 1894 -91 1617 61 
Q 1341 213 1159 525 
L 1159 0 
L 581 0 
L 581 4863 
L 1159 4863 
L 1159 2969 
z
" transform="scale(0.015625)"/>
      <path id="DejaVuSans-66" d="M 2375 4863 
L 2375 4384 
L 1825 4384 
Q 1516 4384 1395 4259 
Q 1275 4134 1275 3809 
L 1275 3500 
L 2222 3500 
L 2222 3053 
L 1275 3053 
L 1275 0 
L 697 0 
L 697 3053 
L 147 3053 
L 147 3500 
L 697 3500 
L 697 3744 
Q 697 4328 969 4595 
Q 1241 4863 1831 4863 
L 2375 4863 
z
" transform="scale(0.015625)"/>
      <path id="DejaVuSans-72" d="M 2631 2963 
Q 2534 3019 2420 3045 
Q 2306 3072 2169 3072 
Q 1681 3072 1420 2755 
Q 1159 2438 1159 1844 
L 1159 0 
L 581 0 
L 581 3500 
L 1159 3500 
L 1159 2956 
Q 1341 3275 1631 3429 
Q 1922 3584 2338 3584 
Q 2397 3584 2469 3576 
Q 2541 3569 2628 3553 
L 2631 2963 
z
" transform="scale(0.015625)"/>
      <path id="DejaVuSans-28" d="M 1984 4856 
Q 1566 4138 1362 3434 
Q 1159 2731 1159 2009 
Q 1159 1288 1364 580 
Q 1569 -128 1984 -844 
L 1484 -844 
Q 1016 -109 783 600 
Q 550 1309 550 2009 
Q 550 2706 781 3412 
Q 1013 4119 1484 4856 
L 1984 4856 
z
" transform="scale(0.015625)"/>
      <path id="DejaVuSans-6d" d="M 3328 2828 
Q 3544 3216 3844 3400 
Q 4144 3584 4550 3584 
Q 5097 3584 5394 3201 
Q 5691 2819 5691 2113 
L 5691 0 
L 5113 0 
L 5113 2094 
Q 5113 2597 4934 2840 
Q 4756 3084 4391 3084 
Q 3944 3084 3684 2787 
Q 3425 2491 3425 1978 
L 3425 0 
L 2847 0 
L 2847 2094 
Q 2847 2600 2669 2842 
Q 2491 3084 2119 3084 
Q 1678 3084 1418 2786 
Q 1159 2488 1159 1978 
L 1159 0 
L 581 0 
L 581 3500 
L 1159 3500 
L 1159 2956 
Q 1356 3278 1631 3431 
Q 1906 3584 2284 3584 
Q 2666 3584 2933 3390 
Q 3200 3197 3328 2828 
z
" transform="scale(0.015625)"/>
      <path id="DejaVuSans-61" d="M 2194 1759 
Q 1497 1759 1228 1600 
Q 959 1441 959 1056 
Q 959 750 1161 570 
Q 1363 391 1709 391 
Q 2188 391 2477 730 
Q 2766 1069 2766 1631 
L 2766 1759 
L 2194 1759 
z
M 3341 1997 
L 3341 0 
L 2766 0 
L 2766 531 
Q 2569 213 2275 61 
Q 1981 -91 1556 -91 
Q 1019 -91 701 211 
Q 384 513 384 1019 
Q 384 1609 779 1909 
Q 1175 2209 1959 2209 
L 2766 2209 
L 2766 2266 
Q 2766 2663 2505 2880 
Q 2244 3097 1772 3097 
Q 1472 3097 1187 3025 
Q 903 2953 641 2809 
L 641 3341 
Q 956 3463 1253 3523 
Q 1550 3584 1831 3584 
Q 2591 3584 2966 3190 
Q 3341 2797 3341 1997 
z
" transform="scale(0.015625)"/>
      <path id="DejaVuSans-78" d="M 3513 3500 
L 2247 1797 
L 3578 0 
L 2900 0 
L 1881 1375 
L 863 0 
L 184 0 
L 1544 1831 
L 300 3500 
L 978 3500 
L 1906 2253 
L 2834 3500 
L 3513 3500 
z
" transform="scale(0.015625)"/>
      <path id="DejaVuSans-3d" d="M 678 2906 
L 4684 2906 
L 4684 2381 
L 678 2381 
L 678 2906 
z
M 678 1631 
L 4684 1631 
L 4684 1100 
L 678 1100 
L 678 1631 
z
" transform="scale(0.015625)"/>
      <path id="DejaVuSans-39" d="M 703 97 
L 703 672 
Q 941 559 1184 500 
Q 1428 441 1663 441 
Q 2288 441 2617 861 
Q 2947 1281 2994 2138 
Q 2813 1869 2534 1725 
Q 2256 1581 1919 1581 
Q 1219 1581 811 2004 
Q 403 2428 403 3163 
Q 403 3881 828 4315 
Q 1253 4750 1959 4750 
Q 2769 4750 3195 4129 
Q 3622 3509 3622 2328 
Q 3622 1225 3098 567 
Q 2575 -91 1691 -91 
Q 1453 -91 1209 -44 
Q 966 3 703 97 
z
M 1959 2075 
Q 2384 2075 2632 2365 
Q 2881 2656 2881 3163 
Q 2881 3666 2632 3958 
Q 2384 4250 1959 4250 
Q 1534 4250 1286 3958 
Q 1038 3666 1038 3163 
Q 1038 2656 1286 2365 
Q 1534 2075 1959 2075 
z
" transform="scale(0.015625)"/>
      <path id="DejaVuSans-29" d="M 513 4856 
L 1013 4856 
Q 1481 4119 1714 3412 
Q 1947 2706 1947 2009 
Q 1947 1309 1714 600 
Q 1481 -109 1013 -844 
L 513 -844 
Q 928 -128 1133 580 
Q 1338 1288 1338 2009 
Q 1338 2731 1133 3434 
Q 928 4138 513 4856 
z
" transform="scale(0.015625)"/>
     </defs>
     <use xlink:href="#DejaVuSans-53"/>
     <use xlink:href="#DejaVuSans-74" transform="translate(63.476562 0)"/>
     <use xlink:href="#DejaVuSans-75" transform="translate(102.685547 0)"/>
     <use xlink:href="#DejaVuSans-64" transform="translate(166.064453 0)"/>
     <use xlink:href="#DejaVuSans-65" transform="translate(229.541016 0)"/>
     <use xlink:href="#DejaVuSans-6e" transform="translate(291.064453 0)"/>
     <use xlink:href="#DejaVuSans-74" transform="translate(354.443359 0)"/>
     <use xlink:href="#DejaVuSans-73" transform="translate(393.652344 0)"/>
     <use xlink:href="#DejaVuSans-5f" transform="translate(445.751953 0)"/>
     <use xlink:href="#DejaVuSans-43" transform="translate(495.751953 0)"/>
     <use xlink:href="#DejaVuSans-6f" transform="translate(565.576172 0)"/>
     <use xlink:href="#DejaVuSans-75" transform="translate(626.757812 0)"/>
     <use xlink:href="#DejaVuSans-6e" transform="translate(690.136719 0)"/>
     <use xlink:href="#DejaVuSans-74" transform="translate(753.515625 0)"/>
     <use xlink:href="#DejaVuSans-20" transform="translate(792.724609 0)"/>
     <use xlink:href="#DejaVuSans-62" transform="translate(824.511719 0)"/>
     <use xlink:href="#DejaVuSans-65" transform="translate(887.988281 0)"/>
     <use xlink:href="#DejaVuSans-66" transform="translate(949.511719 0)"/>
     <use xlink:href="#DejaVuSans-6f" transform="translate(984.716797 0)"/>
     <use xlink:href="#DejaVuSans-72" transform="translate(1045.898438 0)"/>
     <use xlink:href="#DejaVuSans-65" transform="translate(1084.761719 0)"/>
     <use xlink:href="#DejaVuSans-20" transform="translate(1146.285156 0)"/>
     <use xlink:href="#DejaVuSans-28" transform="translate(1178.072266 0)"/>
     <use xlink:href="#DejaVuSans-6d" transform="translate(1217.085938 0)"/>
     <use xlink:href="#DejaVuSans-61" transform="translate(1314.498047 0)"/>
     <use xlink:href="#DejaVuSans-78" transform="translate(1375.777344 0)"/>
     <use xlink:href="#DejaVuSans-3d" transform="translate(1434.957031 0)"/>
     <use xlink:href="#DejaVuSans-39" transform="translate(1518.746094 0)"/>
     <use xlink:href="#DejaVuSans-39" transform="translate(1582.369141 0)"/>
     <use xlink:href="#DejaVuSans-39" transform="translate(1645.992188 0)"/>
     <use xlink:href="#DejaVuSans-39" transform="translate(1709.615234 0)"/>
     <use xlink:href="#DejaVuSans-29" transform="translate(1773.238281 0)"/>
    </g>
   </g>
  </g>
  <g id="axes_2">
   <g id="patch_57">
    <path d="M 459.446481 256.998125 
L 849.354141 256.998125 
L 849.354141 22.318125 
L 459.446481 22.318125 
z
" style="fill: #ffffff"/>
   </g>
   <g id="patch_58">
    <path d="M 477.169556 75681.827854 
L 484.258786 75681.827854 
L 484.258786 32.985398 
L 477.169556 32.985398 
z
" clip-path="url(#pa7a81f8d93)" style="fill: #1f77b4"/>
   </g>
   <g id="patch_59">
    <path d="M 484.258786 75681.827854 
L 491.348017 75681.827854 
L 491.348017 75681.827854 
L 484.258786 75681.827854 
z
" clip-path="url(#pa7a81f8d93)" style="fill: #1f77b4"/>
   </g>
   <g id="patch_60">
    <path d="M 491.348017 75681.827854 
L 498.437247 75681.827854 
L 498.437247 75681.827854 
L 491.348017 75681.827854 
z
" clip-path="url(#pa7a81f8d93)" style="fill: #1f77b4"/>
   </g>
   <g id="patch_61">
    <path d="M 498.437247 75681.827854 
L 505.526477 75681.827854 
L 505.526477 75681.827854 
L 498.437247 75681.827854 
z
" clip-path="url(#pa7a81f8d93)" style="fill: #1f77b4"/>
   </g>
   <g id="patch_62">
    <path d="M 505.526477 75681.827854 
L 512.615707 75681.827854 
L 512.615707 75681.827854 
L 505.526477 75681.827854 
z
" clip-path="url(#pa7a81f8d93)" style="fill: #1f77b4"/>
   </g>
   <g id="patch_63">
    <path d="M 512.615707 75681.827854 
L 519.704937 75681.827854 
L 519.704937 75681.827854 
L 512.615707 75681.827854 
z
" clip-path="url(#pa7a81f8d93)" style="fill: #1f77b4"/>
   </g>
   <g id="patch_64">
    <path d="M 519.704937 75681.827854 
L 526.794168 75681.827854 
L 526.794168 75681.827854 
L 519.704937 75681.827854 
z
" clip-path="url(#pa7a81f8d93)" style="fill: #1f77b4"/>
   </g>
   <g id="patch_65">
    <path d="M 526.794168 75681.827854 
L 533.883398 75681.827854 
L 533.883398 75681.827854 
L 526.794168 75681.827854 
z
" clip-path="url(#pa7a81f8d93)" style="fill: #1f77b4"/>
   </g>
   <g id="patch_66">
    <path d="M 533.883398 75681.827854 
L 540.972628 75681.827854 
L 540.972628 75681.827854 
L 533.883398 75681.827854 
z
" clip-path="url(#pa7a81f8d93)" style="fill: #1f77b4"/>
   </g>
   <g id="patch_67">
    <path d="M 540.972628 75681.827854 
L 548.061858 75681.827854 
L 548.061858 75681.827854 
L 540.972628 75681.827854 
z
" clip-path="url(#pa7a81f8d93)" style="fill: #1f77b4"/>
   </g>
   <g id="patch_68">
    <path d="M 548.061858 75681.827854 
L 555.151088 75681.827854 
L 555.151088 75681.827854 
L 548.061858 75681.827854 
z
" clip-path="url(#pa7a81f8d93)" style="fill: #1f77b4"/>
   </g>
   <g id="patch_69">
    <path d="M 555.151088 75681.827854 
L 562.240319 75681.827854 
L 562.240319 75681.827854 
L 555.151088 75681.827854 
z
" clip-path="url(#pa7a81f8d93)" style="fill: #1f77b4"/>
   </g>
   <g id="patch_70">
    <path d="M 562.240319 75681.827854 
L 569.329549 75681.827854 
L 569.329549 75681.827854 
L 562.240319 75681.827854 
z
" clip-path="url(#pa7a81f8d93)" style="fill: #1f77b4"/>
   </g>
   <g id="patch_71">
    <path d="M 569.329549 75681.827854 
L 576.418779 75681.827854 
L 576.418779 75681.827854 
L 569.329549 75681.827854 
z
" clip-path="url(#pa7a81f8d93)" style="fill: #1f77b4"/>
   </g>
   <g id="patch_72">
    <path d="M 576.418779 75681.827854 
L 583.508009 75681.827854 
L 583.508009 75681.827854 
L 576.418779 75681.827854 
z
" clip-path="url(#pa7a81f8d93)" style="fill: #1f77b4"/>
   </g>
   <g id="patch_73">
    <path d="M 583.508009 75681.827854 
L 590.597239 75681.827854 
L 590.597239 75681.827854 
L 583.508009 75681.827854 
z
" clip-path="url(#pa7a81f8d93)" style="fill: #1f77b4"/>
   </g>
   <g id="patch_74">
    <path d="M 590.597239 75681.827854 
L 597.68647 75681.827854 
L 597.68647 140.295217 
L 590.597239 140.295217 
z
" clip-path="url(#pa7a81f8d93)" style="fill: #1f77b4"/>
   </g>
   <g id="patch_75">
    <path d="M 597.68647 75681.827854 
L 604.7757 75681.827854 
L 604.7757 75681.827854 
L 597.68647 75681.827854 
z
" clip-path="url(#pa7a81f8d93)" style="fill: #1f77b4"/>
   </g>
   <g id="patch_76">
    <path d="M 604.7757 75681.827854 
L 611.86493 75681.827854 
L 611.86493 75681.827854 
L 604.7757 75681.827854 
z
" clip-path="url(#pa7a81f8d93)" style="fill: #1f77b4"/>
   </g>
   <g id="patch_77">
    <path d="M 611.86493 75681.827854 
L 618.95416 75681.827854 
L 618.95416 75681.827854 
L 611.86493 75681.827854 
z
" clip-path="url(#pa7a81f8d93)" style="fill: #1f77b4"/>
   </g>
   <g id="patch_78">
    <path d="M 618.95416 75681.827854 
L 626.04339 75681.827854 
L 626.04339 75681.827854 
L 618.95416 75681.827854 
z
" clip-path="url(#pa7a81f8d93)" style="fill: #1f77b4"/>
   </g>
   <g id="patch_79">
    <path d="M 626.04339 75681.827854 
L 633.13262 75681.827854 
L 633.13262 75681.827854 
L 626.04339 75681.827854 
z
" clip-path="url(#pa7a81f8d93)" style="fill: #1f77b4"/>
   </g>
   <g id="patch_80">
    <path d="M 633.13262 75681.827854 
L 640.221851 75681.827854 
L 640.221851 75681.827854 
L 633.13262 75681.827854 
z
" clip-path="url(#pa7a81f8d93)" style="fill: #1f77b4"/>
   </g>
   <g id="patch_81">
    <path d="M 640.221851 75681.827854 
L 647.311081 75681.827854 
L 647.311081 75681.827854 
L 640.221851 75681.827854 
z
" clip-path="url(#pa7a81f8d93)" style="fill: #1f77b4"/>
   </g>
   <g id="patch_82">
    <path d="M 647.311081 75681.827854 
L 654.400311 75681.827854 
L 654.400311 75681.827854 
L 647.311081 75681.827854 
z
" clip-path="url(#pa7a81f8d93)" style="fill: #1f77b4"/>
   </g>
   <g id="patch_83">
    <path d="M 654.400311 75681.827854 
L 661.489541 75681.827854 
L 661.489541 75681.827854 
L 654.400311 75681.827854 
z
" clip-path="url(#pa7a81f8d93)" style="fill: #1f77b4"/>
   </g>
   <g id="patch_84">
    <path d="M 661.489541 75681.827854 
L 668.578771 75681.827854 
L 668.578771 75681.827854 
L 661.489541 75681.827854 
z
" clip-path="url(#pa7a81f8d93)" style="fill: #1f77b4"/>
   </g>
   <g id="patch_85">
    <path d="M 668.578771 75681.827854 
L 675.668002 75681.827854 
L 675.668002 75681.827854 
L 668.578771 75681.827854 
z
" clip-path="url(#pa7a81f8d93)" style="fill: #1f77b4"/>
   </g>
   <g id="patch_86">
    <path d="M 675.668002 75681.827854 
L 682.757232 75681.827854 
L 682.757232 75681.827854 
L 675.668002 75681.827854 
z
" clip-path="url(#pa7a81f8d93)" style="fill: #1f77b4"/>
   </g>
   <g id="patch_87">
    <path d="M 682.757232 75681.827854 
L 689.846462 75681.827854 
L 689.846462 75681.827854 
L 682.757232 75681.827854 
z
" clip-path="url(#pa7a81f8d93)" style="fill: #1f77b4"/>
   </g>
   <g id="patch_88">
    <path d="M 689.846462 75681.827854 
L 696.935692 75681.827854 
L 696.935692 75681.827854 
L 689.846462 75681.827854 
z
" clip-path="url(#pa7a81f8d93)" style="fill: #1f77b4"/>
   </g>
   <g id="patch_89">
    <path d="M 696.935692 75681.827854 
L 704.024922 75681.827854 
L 704.024922 75681.827854 
L 696.935692 75681.827854 
z
" clip-path="url(#pa7a81f8d93)" style="fill: #1f77b4"/>
   </g>
   <g id="patch_90">
    <path d="M 704.024922 75681.827854 
L 711.114153 75681.827854 
L 711.114153 75681.827854 
L 704.024922 75681.827854 
z
" clip-path="url(#pa7a81f8d93)" style="fill: #1f77b4"/>
   </g>
   <g id="patch_91">
    <path d="M 711.114153 75681.827854 
L 718.203383 75681.827854 
L 718.203383 153.11023 
L 711.114153 153.11023 
z
" clip-path="url(#pa7a81f8d93)" style="fill: #1f77b4"/>
   </g>
   <g id="patch_92">
    <path d="M 718.203383 75681.827854 
L 725.292613 75681.827854 
L 725.292613 75681.827854 
L 718.203383 75681.827854 
z
" clip-path="url(#pa7a81f8d93)" style="fill: #1f77b4"/>
   </g>
   <g id="patch_93">
    <path d="M 725.292613 75681.827854 
L 732.381843 75681.827854 
L 732.381843 75681.827854 
L 725.292613 75681.827854 
z
" clip-path="url(#pa7a81f8d93)" style="fill: #1f77b4"/>
   </g>
   <g id="patch_94">
    <path d="M 732.381843 75681.827854 
L 739.471073 75681.827854 
L 739.471073 75681.827854 
L 732.381843 75681.827854 
z
" clip-path="url(#pa7a81f8d93)" style="fill: #1f77b4"/>
   </g>
   <g id="patch_95">
    <path d="M 739.471073 75681.827854 
L 746.560304 75681.827854 
L 746.560304 75681.827854 
L 739.471073 75681.827854 
z
" clip-path="url(#pa7a81f8d93)" style="fill: #1f77b4"/>
   </g>
   <g id="patch_96">
    <path d="M 746.560304 75681.827854 
L 753.649534 75681.827854 
L 753.649534 75681.827854 
L 746.560304 75681.827854 
z
" clip-path="url(#pa7a81f8d93)" style="fill: #1f77b4"/>
   </g>
   <g id="patch_97">
    <path d="M 753.649534 75681.827854 
L 760.738764 75681.827854 
L 760.738764 75681.827854 
L 753.649534 75681.827854 
z
" clip-path="url(#pa7a81f8d93)" style="fill: #1f77b4"/>
   </g>
   <g id="patch_98">
    <path d="M 760.738764 75681.827854 
L 767.827994 75681.827854 
L 767.827994 75681.827854 
L 760.738764 75681.827854 
z
" clip-path="url(#pa7a81f8d93)" style="fill: #1f77b4"/>
   </g>
   <g id="patch_99">
    <path d="M 767.827994 75681.827854 
L 774.917224 75681.827854 
L 774.917224 75681.827854 
L 767.827994 75681.827854 
z
" clip-path="url(#pa7a81f8d93)" style="fill: #1f77b4"/>
   </g>
   <g id="patch_100">
    <path d="M 774.917224 75681.827854 
L 782.006455 75681.827854 
L 782.006455 75681.827854 
L 774.917224 75681.827854 
z
" clip-path="url(#pa7a81f8d93)" style="fill: #1f77b4"/>
   </g>
   <g id="patch_101">
    <path d="M 782.006455 75681.827854 
L 789.095685 75681.827854 
L 789.095685 75681.827854 
L 782.006455 75681.827854 
z
" clip-path="url(#pa7a81f8d93)" style="fill: #1f77b4"/>
   </g>
   <g id="patch_102">
    <path d="M 789.095685 75681.827854 
L 796.184915 75681.827854 
L 796.184915 75681.827854 
L 789.095685 75681.827854 
z
" clip-path="url(#pa7a81f8d93)" style="fill: #1f77b4"/>
   </g>
   <g id="patch_103">
    <path d="M 796.184915 75681.827854 
L 803.274145 75681.827854 
L 803.274145 75681.827854 
L 796.184915 75681.827854 
z
" clip-path="url(#pa7a81f8d93)" style="fill: #1f77b4"/>
   </g>
   <g id="patch_104">
    <path d="M 803.274145 75681.827854 
L 810.363375 75681.827854 
L 810.363375 75681.827854 
L 803.274145 75681.827854 
z
" clip-path="url(#pa7a81f8d93)" style="fill: #1f77b4"/>
   </g>
   <g id="patch_105">
    <path d="M 810.363375 75681.827854 
L 817.452606 75681.827854 
L 817.452606 75681.827854 
L 810.363375 75681.827854 
z
" clip-path="url(#pa7a81f8d93)" style="fill: #1f77b4"/>
   </g>
   <g id="patch_106">
    <path d="M 817.452606 75681.827854 
L 824.541836 75681.827854 
L 824.541836 75681.827854 
L 817.452606 75681.827854 
z
" clip-path="url(#pa7a81f8d93)" style="fill: #1f77b4"/>
   </g>
   <g id="patch_107">
    <path d="M 824.541836 75681.827854 
L 831.631066 75681.827854 
L 831.631066 246.330852 
L 824.541836 246.330852 
z
" clip-path="url(#pa7a81f8d93)" style="fill: #1f77b4"/>
   </g>
   <g id="matplotlib.axis_3">
    <g id="xtick_7">
     <g id="line2d_38">
      <g>
       <use xlink:href="#m7331bc9a60" x="477.169556" y="256.998125" style="stroke: #000000; stroke-width: 0.8"/>
      </g>
     </g>
     <g id="text_11">
      <!-- 0.0 -->
      <g transform="translate(469.217994 271.596562) scale(0.1 -0.1)">
       <defs>
        <path id="DejaVuSans-2e" d="M 684 794 
L 1344 794 
L 1344 0 
L 684 0 
L 684 794 
z
" transform="scale(0.015625)"/>
       </defs>
       <use xlink:href="#DejaVuSans-30"/>
       <use xlink:href="#DejaVuSans-2e" transform="translate(63.623047 0)"/>
       <use xlink:href="#DejaVuSans-30" transform="translate(95.410156 0)"/>
      </g>
     </g>
    </g>
    <g id="xtick_8">
     <g id="line2d_39">
      <g>
       <use xlink:href="#m7331bc9a60" x="536.246474" y="256.998125" style="stroke: #000000; stroke-width: 0.8"/>
      </g>
     </g>
     <g id="text_12">
      <!-- 0.5 -->
      <g transform="translate(528.294912 271.596562) scale(0.1 -0.1)">
       <defs>
        <path id="DejaVuSans-35" d="M 691 4666 
L 3169 4666 
L 3169 4134 
L 1269 4134 
L 1269 2991 
Q 1406 3038 1543 3061 
Q 1681 3084 1819 3084 
Q 2600 3084 3056 2656 
Q 3513 2228 3513 1497 
Q 3513 744 3044 326 
Q 2575 -91 1722 -91 
Q 1428 -91 1123 -41 
Q 819 9 494 109 
L 494 744 
Q 775 591 1075 516 
Q 1375 441 1709 441 
Q 2250 441 2565 725 
Q 2881 1009 2881 1497 
Q 2881 1984 2565 2268 
Q 2250 2553 1709 2553 
Q 1456 2553 1204 2497 
Q 953 2441 691 2322 
L 691 4666 
z
" transform="scale(0.015625)"/>
       </defs>
       <use xlink:href="#DejaVuSans-30"/>
       <use xlink:href="#DejaVuSans-2e" transform="translate(63.623047 0)"/>
       <use xlink:href="#DejaVuSans-35" transform="translate(95.410156 0)"/>
      </g>
     </g>
    </g>
    <g id="xtick_9">
     <g id="line2d_40">
      <g>
       <use xlink:href="#m7331bc9a60" x="595.323393" y="256.998125" style="stroke: #000000; stroke-width: 0.8"/>
      </g>
     </g>
     <g id="text_13">
      <!-- 1.0 -->
      <g transform="translate(587.37183 271.596562) scale(0.1 -0.1)">
       <use xlink:href="#DejaVuSans-31"/>
       <use xlink:href="#DejaVuSans-2e" transform="translate(63.623047 0)"/>
       <use xlink:href="#DejaVuSans-30" transform="translate(95.410156 0)"/>
      </g>
     </g>
    </g>
    <g id="xtick_10">
     <g id="line2d_41">
      <g>
       <use xlink:href="#m7331bc9a60" x="654.400311" y="256.998125" style="stroke: #000000; stroke-width: 0.8"/>
      </g>
     </g>
     <g id="text_14">
      <!-- 1.5 -->
      <g transform="translate(646.448749 271.596562) scale(0.1 -0.1)">
       <use xlink:href="#DejaVuSans-31"/>
       <use xlink:href="#DejaVuSans-2e" transform="translate(63.623047 0)"/>
       <use xlink:href="#DejaVuSans-35" transform="translate(95.410156 0)"/>
      </g>
     </g>
    </g>
    <g id="xtick_11">
     <g id="line2d_42">
      <g>
       <use xlink:href="#m7331bc9a60" x="713.477229" y="256.998125" style="stroke: #000000; stroke-width: 0.8"/>
      </g>
     </g>
     <g id="text_15">
      <!-- 2.0 -->
      <g transform="translate(705.525667 271.596562) scale(0.1 -0.1)">
       <use xlink:href="#DejaVuSans-32"/>
       <use xlink:href="#DejaVuSans-2e" transform="translate(63.623047 0)"/>
       <use xlink:href="#DejaVuSans-30" transform="translate(95.410156 0)"/>
      </g>
     </g>
    </g>
    <g id="xtick_12">
     <g id="line2d_43">
      <g>
       <use xlink:href="#m7331bc9a60" x="772.554148" y="256.998125" style="stroke: #000000; stroke-width: 0.8"/>
      </g>
     </g>
     <g id="text_16">
      <!-- 2.5 -->
      <g transform="translate(764.602585 271.596562) scale(0.1 -0.1)">
       <use xlink:href="#DejaVuSans-32"/>
       <use xlink:href="#DejaVuSans-2e" transform="translate(63.623047 0)"/>
       <use xlink:href="#DejaVuSans-35" transform="translate(95.410156 0)"/>
      </g>
     </g>
    </g>
    <g id="xtick_13">
     <g id="line2d_44">
      <g>
       <use xlink:href="#m7331bc9a60" x="831.631066" y="256.998125" style="stroke: #000000; stroke-width: 0.8"/>
      </g>
     </g>
     <g id="text_17">
      <!-- 3.0 -->
      <g transform="translate(823.679503 271.596562) scale(0.1 -0.1)">
       <use xlink:href="#DejaVuSans-33"/>
       <use xlink:href="#DejaVuSans-2e" transform="translate(63.623047 0)"/>
       <use xlink:href="#DejaVuSans-30" transform="translate(95.410156 0)"/>
      </g>
     </g>
    </g>
   </g>
   <g id="matplotlib.axis_4">
    <g id="ytick_32">
     <g id="line2d_45">
      <g>
       <use xlink:href="#m30fcb65953" x="459.446481" y="234.667266" style="stroke: #000000; stroke-width: 0.8"/>
      </g>
     </g>
     <g id="text_18">
      <!-- $\mathdefault{10^{2}}$ -->
      <g transform="translate(434.846481 238.466485) scale(0.1 -0.1)">
       <use xlink:href="#DejaVuSans-31" transform="translate(0 0.765625)"/>
       <use xlink:href="#DejaVuSans-30" transform="translate(63.623047 0.765625)"/>
       <use xlink:href="#DejaVuSans-32" transform="translate(128.203125 39.046875) scale(0.7)"/>
      </g>
     </g>
    </g>
    <g id="ytick_33">
     <g id="line2d_46">
      <g>
       <use xlink:href="#m30fcb65953" x="459.446481" y="159.370699" style="stroke: #000000; stroke-width: 0.8"/>
      </g>
     </g>
     <g id="text_19">
      <!-- $\mathdefault{10^{3}}$ -->
      <g transform="translate(434.846481 163.169918) scale(0.1 -0.1)">
       <use xlink:href="#DejaVuSans-31" transform="translate(0 0.765625)"/>
       <use xlink:href="#DejaVuSans-30" transform="translate(63.623047 0.765625)"/>
       <use xlink:href="#DejaVuSans-33" transform="translate(128.203125 39.046875) scale(0.7)"/>
      </g>
     </g>
    </g>
    <g id="ytick_34">
     <g id="line2d_47">
      <g>
       <use xlink:href="#m30fcb65953" x="459.446481" y="84.074131" style="stroke: #000000; stroke-width: 0.8"/>
      </g>
     </g>
     <g id="text_20">
      <!-- $\mathdefault{10^{4}}$ -->
      <g transform="translate(434.846481 87.87335) scale(0.1 -0.1)">
       <use xlink:href="#DejaVuSans-31" transform="translate(0 0.684375)"/>
       <use xlink:href="#DejaVuSans-30" transform="translate(63.623047 0.684375)"/>
       <use xlink:href="#DejaVuSans-34" transform="translate(128.203125 38.965625) scale(0.7)"/>
      </g>
     </g>
    </g>
    <g id="ytick_35">
     <g id="line2d_48">
      <g>
       <use xlink:href="#me3879e7cf1" x="459.446481" y="251.371716" style="stroke: #000000; stroke-width: 0.6"/>
      </g>
     </g>
    </g>
    <g id="ytick_36">
     <g id="line2d_49">
      <g>
       <use xlink:href="#me3879e7cf1" x="459.446481" y="246.330852" style="stroke: #000000; stroke-width: 0.6"/>
      </g>
     </g>
    </g>
    <g id="ytick_37">
     <g id="line2d_50">
      <g>
       <use xlink:href="#me3879e7cf1" x="459.446481" y="241.964258" style="stroke: #000000; stroke-width: 0.6"/>
      </g>
     </g>
    </g>
    <g id="ytick_38">
     <g id="line2d_51">
      <g>
       <use xlink:href="#me3879e7cf1" x="459.446481" y="238.112648" style="stroke: #000000; stroke-width: 0.6"/>
      </g>
     </g>
    </g>
    <g id="ytick_39">
     <g id="line2d_52">
      <g>
       <use xlink:href="#me3879e7cf1" x="459.446481" y="212.000741" style="stroke: #000000; stroke-width: 0.6"/>
      </g>
     </g>
    </g>
    <g id="ytick_40">
     <g id="line2d_53">
      <g>
       <use xlink:href="#me3879e7cf1" x="459.446481" y="198.741674" style="stroke: #000000; stroke-width: 0.6"/>
      </g>
     </g>
    </g>
    <g id="ytick_41">
     <g id="line2d_54">
      <g>
       <use xlink:href="#me3879e7cf1" x="459.446481" y="189.334216" style="stroke: #000000; stroke-width: 0.6"/>
      </g>
     </g>
    </g>
    <g id="ytick_42">
     <g id="line2d_55">
      <g>
       <use xlink:href="#me3879e7cf1" x="459.446481" y="182.037224" style="stroke: #000000; stroke-width: 0.6"/>
      </g>
     </g>
    </g>
    <g id="ytick_43">
     <g id="line2d_56">
      <g>
       <use xlink:href="#me3879e7cf1" x="459.446481" y="176.075148" style="stroke: #000000; stroke-width: 0.6"/>
      </g>
     </g>
    </g>
    <g id="ytick_44">
     <g id="line2d_57">
      <g>
       <use xlink:href="#me3879e7cf1" x="459.446481" y="171.034285" style="stroke: #000000; stroke-width: 0.6"/>
      </g>
     </g>
    </g>
    <g id="ytick_45">
     <g id="line2d_58">
      <g>
       <use xlink:href="#me3879e7cf1" x="459.446481" y="166.66769" style="stroke: #000000; stroke-width: 0.6"/>
      </g>
     </g>
    </g>
    <g id="ytick_46">
     <g id="line2d_59">
      <g>
       <use xlink:href="#me3879e7cf1" x="459.446481" y="162.816081" style="stroke: #000000; stroke-width: 0.6"/>
      </g>
     </g>
    </g>
    <g id="ytick_47">
     <g id="line2d_60">
      <g>
       <use xlink:href="#me3879e7cf1" x="459.446481" y="136.704174" style="stroke: #000000; stroke-width: 0.6"/>
      </g>
     </g>
    </g>
    <g id="ytick_48">
     <g id="line2d_61">
      <g>
       <use xlink:href="#me3879e7cf1" x="459.446481" y="123.445106" style="stroke: #000000; stroke-width: 0.6"/>
      </g>
     </g>
    </g>
    <g id="ytick_49">
     <g id="line2d_62">
      <g>
       <use xlink:href="#me3879e7cf1" x="459.446481" y="114.037648" style="stroke: #000000; stroke-width: 0.6"/>
      </g>
     </g>
    </g>
    <g id="ytick_50">
     <g id="line2d_63">
      <g>
       <use xlink:href="#me3879e7cf1" x="459.446481" y="106.740657" style="stroke: #000000; stroke-width: 0.6"/>
      </g>
     </g>
    </g>
    <g id="ytick_51">
     <g id="line2d_64">
      <g>
       <use xlink:href="#me3879e7cf1" x="459.446481" y="100.778581" style="stroke: #000000; stroke-width: 0.6"/>
      </g>
     </g>
    </g>
    <g id="ytick_52">
     <g id="line2d_65">
      <g>
       <use xlink:href="#me3879e7cf1" x="459.446481" y="95.737717" style="stroke: #000000; stroke-width: 0.6"/>
      </g>
     </g>
    </g>
    <g id="ytick_53">
     <g id="line2d_66">
      <g>
       <use xlink:href="#me3879e7cf1" x="459.446481" y="91.371123" style="stroke: #000000; stroke-width: 0.6"/>
      </g>
     </g>
    </g>
    <g id="ytick_54">
     <g id="line2d_67">
      <g>
       <use xlink:href="#me3879e7cf1" x="459.446481" y="87.519513" style="stroke: #000000; stroke-width: 0.6"/>
      </g>
     </g>
    </g>
    <g id="ytick_55">
     <g id="line2d_68">
      <g>
       <use xlink:href="#me3879e7cf1" x="459.446481" y="61.407606" style="stroke: #000000; stroke-width: 0.6"/>
      </g>
     </g>
    </g>
    <g id="ytick_56">
     <g id="line2d_69">
      <g>
       <use xlink:href="#me3879e7cf1" x="459.446481" y="48.148539" style="stroke: #000000; stroke-width: 0.6"/>
      </g>
     </g>
    </g>
    <g id="ytick_57">
     <g id="line2d_70">
      <g>
       <use xlink:href="#me3879e7cf1" x="459.446481" y="38.741081" style="stroke: #000000; stroke-width: 0.6"/>
      </g>
     </g>
    </g>
    <g id="ytick_58">
     <g id="line2d_71">
      <g>
       <use xlink:href="#me3879e7cf1" x="459.446481" y="31.444089" style="stroke: #000000; stroke-width: 0.6"/>
      </g>
     </g>
    </g>
    <g id="ytick_59">
     <g id="line2d_72">
      <g>
       <use xlink:href="#me3879e7cf1" x="459.446481" y="25.482013" style="stroke: #000000; stroke-width: 0.6"/>
      </g>
     </g>
    </g>
   </g>
   <g id="patch_108">
    <path d="M 459.446481 256.998125 
L 459.446481 22.318125 
" style="fill: none; stroke: #000000; stroke-width: 0.8; stroke-linejoin: miter; stroke-linecap: square"/>
   </g>
   <g id="patch_109">
    <path d="M 849.354141 256.998125 
L 849.354141 22.318125 
" style="fill: none; stroke: #000000; stroke-width: 0.8; stroke-linejoin: miter; stroke-linecap: square"/>
   </g>
   <g id="patch_110">
    <path d="M 459.446481 256.998125 
L 849.354141 256.998125 
" style="fill: none; stroke: #000000; stroke-width: 0.8; stroke-linejoin: miter; stroke-linecap: square"/>
   </g>
   <g id="patch_111">
    <path d="M 459.446481 22.318125 
L 849.354141 22.318125 
" style="fill: none; stroke: #000000; stroke-width: 0.8; stroke-linejoin: miter; stroke-linecap: square"/>
   </g>
   <g id="text_21">
    <!-- Students_Count after (max=3) -->
    <g transform="translate(562.229061 16.318125) scale(0.12 -0.12)">
     <use xlink:href="#DejaVuSans-53"/>
     <use xlink:href="#DejaVuSans-74" transform="translate(63.476562 0)"/>
     <use xlink:href="#DejaVuSans-75" transform="translate(102.685547 0)"/>
     <use xlink:href="#DejaVuSans-64" transform="translate(166.064453 0)"/>
     <use xlink:href="#DejaVuSans-65" transform="translate(229.541016 0)"/>
     <use xlink:href="#DejaVuSans-6e" transform="translate(291.064453 0)"/>
     <use xlink:href="#DejaVuSans-74" transform="translate(354.443359 0)"/>
     <use xlink:href="#DejaVuSans-73" transform="translate(393.652344 0)"/>
     <use xlink:href="#DejaVuSans-5f" transform="translate(445.751953 0)"/>
     <use xlink:href="#DejaVuSans-43" transform="translate(495.751953 0)"/>
     <use xlink:href="#DejaVuSans-6f" transform="translate(565.576172 0)"/>
     <use xlink:href="#DejaVuSans-75" transform="translate(626.757812 0)"/>
     <use xlink:href="#DejaVuSans-6e" transform="translate(690.136719 0)"/>
     <use xlink:href="#DejaVuSans-74" transform="translate(753.515625 0)"/>
     <use xlink:href="#DejaVuSans-20" transform="translate(792.724609 0)"/>
     <use xlink:href="#DejaVuSans-61" transform="translate(824.511719 0)"/>
     <use xlink:href="#DejaVuSans-66" transform="translate(885.791016 0)"/>
     <use xlink:href="#DejaVuSans-74" transform="translate(919.246094 0)"/>
     <use xlink:href="#DejaVuSans-65" transform="translate(958.455078 0)"/>
     <use xlink:href="#DejaVuSans-72" transform="translate(1019.978516 0)"/>
     <use xlink:href="#DejaVuSans-20" transform="translate(1061.091797 0)"/>
     <use xlink:href="#DejaVuSans-28" transform="translate(1092.878906 0)"/>
     <use xlink:href="#DejaVuSans-6d" transform="translate(1131.892578 0)"/>
     <use xlink:href="#DejaVuSans-61" transform="translate(1229.304688 0)"/>
     <use xlink:href="#DejaVuSans-78" transform="translate(1290.583984 0)"/>
     <use xlink:href="#DejaVuSans-3d" transform="translate(1349.763672 0)"/>
     <use xlink:href="#DejaVuSans-33" transform="translate(1433.552734 0)"/>
     <use xlink:href="#DejaVuSans-29" transform="translate(1497.175781 0)"/>
    </g>
   </g>
  </g>
 </g>
 <defs>
  <clipPath id="p3d21e8b60a">
   <rect x="31.8" y="22.318125" width="389.907661" height="234.68"/>
  </clipPath>
  <clipPath id="pa7a81f8d93">
   <rect x="459.446481" y="22.318125" width="389.907661" height="234.68"/>
  </clipPath>
 </defs>
</svg>
