<?xml version="1.0" encoding="utf-8" standalone="no"?>
<!DOCTYPE svg PUBLIC "-//W3C//DTD SVG 1.1//EN"
  "http://www.w3.org/Graphics/SVG/1.1/DTD/svg11.dtd">
<svg xmlns:xlink="http://www.w3.org/1999/xlink" width="640.779062pt" height="352.954375pt" viewBox="0 0 640.779062 352.954375" xmlns="http://www.w3.org/2000/svg" version="1.1">
 <metadata>
  <rdf:RDF xmlns:dc="http://purl.org/dc/elements/1.1/" xmlns:cc="http://creativecommons.org/ns#" xmlns:rdf="http://www.w3.org/1999/02/22-rdf-syntax-ns#">
   <cc:Work>
    <dc:type rdf:resource="http://purl.org/dc/dcmitype/StillImage"/>
    <dc:date>2026-06-20T00:12:07.462910</dc:date>
    <dc:format>image/svg+xml</dc:format>
    <dc:creator>
     <cc:Agent>
      <dc:title>Matplotlib v3.10.7, https://matplotlib.org/</dc:title>
     </cc:Agent>
    </dc:creator>
   </cc:Work>
  </rdf:RDF>
 </metadata>
 <defs>
  <style type="text/css">*{stroke-linejoin: round; stroke-linecap: butt}</style>
 </defs>
 <g id="figure_1">
  <g id="patch_1">
   <path d="M 0 352.954375 
L 640.779062 352.954375 
L 640.779062 0 
L 0 0 
z
" style="fill: #ffffff"/>
  </g>
  <g id="axes_1">
   <g id="patch_2">
    <path d="M 100.339063 315.398125 
L 633.579062 315.398125 
L 633.579062 22.318125 
L 100.339063 22.318125 
z
" style="fill: #ffffff"/>
   </g>
   <g id="patch_3">
    <path d="M 100.339063 302.076307 
L 134.766523 302.076307 
L 134.766523 287.674341 
L 100.339063 287.674341 
z
" clip-path="url(#p252fd78637)" style="fill: #1f77b4"/>
   </g>
   <g id="patch_4">
    <path d="M 100.339063 284.07385 
L 180.910963 284.07385 
L 180.910963 269.671884 
L 100.339063 269.671884 
z
" clip-path="url(#p252fd78637)" style="fill: #1f77b4"/>
   </g>
   <g id="patch_5">
    <path d="M 100.339063 266.071393 
L 212.692231 266.071393 
L 212.692231 251.669427 
L 100.339063 251.669427 
z
" clip-path="url(#p252fd78637)" style="fill: #1f77b4"/>
   </g>
   <g id="patch_6">
    <path d="M 100.339063 248.068936 
L 264.791666 248.068936 
L 264.791666 233.66697 
L 100.339063 233.66697 
z
" clip-path="url(#p252fd78637)" style="fill: #1f77b4"/>
   </g>
   <g id="patch_7">
    <path d="M 100.339063 230.066479 
L 307.113113 230.066479 
L 307.113113 215.664513 
L 100.339063 215.664513 
z
" clip-path="url(#p252fd78637)" style="fill: #1f77b4"/>
   </g>
   <g id="patch_8">
    <path d="M 100.339063 212.064022 
L 316.612442 212.064022 
L 316.612442 197.662056 
L 100.339063 197.662056 
z
" clip-path="url(#p252fd78637)" style="fill: #1f77b4"/>
   </g>
   <g id="patch_9">
    <path d="M 100.339063 194.061565 
L 351.807322 194.061565 
L 351.807322 179.659599 
L 100.339063 179.659599 
z
" clip-path="url(#p252fd78637)" style="fill: #1f77b4"/>
   </g>
   <g id="patch_10">
    <path d="M 100.339063 176.059108 
L 356.209121 176.059108 
L 356.209121 161.657142 
L 100.339063 161.657142 
z
" clip-path="url(#p252fd78637)" style="fill: #1f77b4"/>
   </g>
   <g id="patch_11">
    <path d="M 100.339063 158.056651 
L 426.448428 158.056651 
L 426.448428 143.654685 
L 100.339063 143.654685 
z
" clip-path="url(#p252fd78637)" style="fill: #1f77b4"/>
   </g>
   <g id="patch_12">
    <path d="M 100.339063 140.054194 
L 462.452026 140.054194 
L 462.452026 125.652228 
L 100.339063 125.652228 
z
" clip-path="url(#p252fd78637)" style="fill: #1f77b4"/>
   </g>
   <g id="patch_13">
    <path d="M 100.339063 122.051737 
L 470.292279 122.051737 
L 470.292279 107.649771 
L 100.339063 107.649771 
z
" clip-path="url(#p252fd78637)" style="fill: #1f77b4"/>
   </g>
   <g id="patch_14">
    <path d="M 100.339063 104.04928 
L 484.381365 104.04928 
L 484.381365 89.647314 
L 100.339063 89.647314 
z
" clip-path="url(#p252fd78637)" style="fill: #1f77b4"/>
   </g>
   <g id="patch_15">
    <path d="M 100.339063 86.046823 
L 569.993884 86.046823 
L 569.993884 71.644857 
L 100.339063 71.644857 
z
" clip-path="url(#p252fd78637)" style="fill: #1f77b4"/>
   </g>
   <g id="patch_16">
    <path d="M 100.339063 68.044366 
L 574.023016 68.044366 
L 574.023016 53.6424 
L 100.339063 53.6424 
z
" clip-path="url(#p252fd78637)" style="fill: #1f77b4"/>
   </g>
   <g id="patch_17">
    <path d="M 100.339063 50.041909 
L 608.186682 50.041909 
L 608.186682 35.639943 
L 100.339063 35.639943 
z
" clip-path="url(#p252fd78637)" style="fill: #1f77b4"/>
   </g>
   <g id="matplotlib.axis_1">
    <g id="xtick_1">
     <g id="line2d_1">
      <defs>
       <path id="mff51afea99" d="M 0 0 
L 0 3.5 
" style="stroke: #000000; stroke-width: 0.8"/>
      </defs>
      <g>
       <use xlink:href="#mff51afea99" x="100.339063" y="315.398125" style="stroke: #000000; stroke-width: 0.8"/>
      </g>
     </g>
     <g id="text_1">
      <!-- 0 -->
      <g transform="translate(97.157813 329.996562) scale(0.1 -0.1)">
       <defs>
        <path id="DejaVuSans-30" d="M 2034 4250 
Q 1547 4250 1301 3770 
Q 1056 3291 1056 2328 
Q 1056 1369 1301 889 
Q 1547 409 2034 409 
Q 2525 409 2770 889 
Q 3016 1369 3016 2328 
Q 3016 3291 2770 3770 
Q 2525 4250 2034 4250 
z
M 2034 4750 
Q 2819 4750 3233 4129 
Q 3647 3509 3647 2328 
Q 3647 1150 3233 529 
Q 2819 -91 2034 -91 
Q 1250 -91 836 529 
Q 422 1150 422 2328 
Q 422 3509 836 4129 
Q 1250 4750 2034 4750 
z
" transform="scale(0.015625)"/>
       </defs>
       <use xlink:href="#DejaVuSans-30"/>
      </g>
     </g>
    </g>
    <g id="xtick_2">
     <g id="line2d_2">
      <g>
       <use xlink:href="#mff51afea99" x="164.275776" y="315.398125" style="stroke: #000000; stroke-width: 0.8"/>
      </g>
     </g>
     <g id="text_2">
      <!-- 10 -->
      <g transform="translate(157.913276 329.996562) scale(0.1 -0.1)">
       <defs>
        <path id="DejaVuSans-31" d="M 794 531 
L 1825 531 
L 1825 4091 
L 703 3866 
L 703 4441 
L 1819 4666 
L 2450 4666 
L 2450 531 
L 3481 531 
L 3481 0 
L 794 0 
L 794 531 
z
" transform="scale(0.015625)"/>
       </defs>
       <use xlink:href="#DejaVuSans-31"/>
       <use xlink:href="#DejaVuSans-30" transform="translate(63.623047 0)"/>
      </g>
     </g>
    </g>
    <g id="xtick_3">
     <g id="line2d_3">
      <g>
       <use xlink:href="#mff51afea99" x="228.212489" y="315.398125" style="stroke: #000000; stroke-width: 0.8"/>
      </g>
     </g>
     <g id="text_3">
      <!-- 20 -->
      <g transform="translate(221.849989 329.996562) scale(0.1 -0.1)">
       <defs>
        <path id="DejaVuSans-32" d="M 1228 531 
L 3431 531 
L 3431 0 
L 469 0 
L 469 531 
Q 828 903 1448 1529 
Q 2069 2156 2228 2338 
Q 2531 2678 2651 2914 
Q 2772 3150 2772 3378 
Q 2772 3750 2511 3984 
Q 2250 4219 1831 4219 
Q 1534 4219 1204 4116 
Q 875 4013 500 3803 
L 500 4441 
Q 881 4594 1212 4672 
Q 1544 4750 1819 4750 
Q 2544 4750 2975 4387 
Q 3406 4025 3406 3419 
Q 3406 3131 3298 2873 
Q 3191 2616 2906 2266 
Q 2828 2175 2409 1742 
Q 1991 1309 1228 531 
z
" transform="scale(0.015625)"/>
       </defs>
       <use xlink:href="#DejaVuSans-32"/>
       <use xlink:href="#DejaVuSans-30" transform="translate(63.623047 0)"/>
      </g>
     </g>
    </g>
    <g id="xtick_4">
     <g id="line2d_4">
      <g>
       <use xlink:href="#mff51afea99" x="292.149202" y="315.398125" style="stroke: #000000; stroke-width: 0.8"/>
      </g>
     </g>
     <g id="text_4">
      <!-- 30 -->
      <g transform="translate(285.786702 329.996562) scale(0.1 -0.1)">
       <defs>
        <path id="DejaVuSans-33" d="M 2597 2516 
Q 3050 2419 3304 2112 
Q 3559 1806 3559 1356 
Q 3559 666 3084 287 
Q 2609 -91 1734 -91 
Q 1441 -91 1130 -33 
Q 819 25 488 141 
L 488 750 
Q 750 597 1062 519 
Q 1375 441 1716 441 
Q 2309 441 2620 675 
Q 2931 909 2931 1356 
Q 2931 1769 2642 2001 
Q 2353 2234 1838 2234 
L 1294 2234 
L 1294 2753 
L 1863 2753 
Q 2328 2753 2575 2939 
Q 2822 3125 2822 3475 
Q 2822 3834 2567 4026 
Q 2313 4219 1838 4219 
Q 1578 4219 1281 4162 
Q 984 4106 628 3988 
L 628 4550 
Q 988 4650 1302 4700 
Q 1616 4750 1894 4750 
Q 2613 4750 3031 4423 
Q 3450 4097 3450 3541 
Q 3450 3153 3228 2886 
Q 3006 2619 2597 2516 
z
" transform="scale(0.015625)"/>
       </defs>
       <use xlink:href="#DejaVuSans-33"/>
       <use xlink:href="#DejaVuSans-30" transform="translate(63.623047 0)"/>
      </g>
     </g>
    </g>
    <g id="xtick_5">
     <g id="line2d_5">
      <g>
       <use xlink:href="#mff51afea99" x="356.085915" y="315.398125" style="stroke: #000000; stroke-width: 0.8"/>
      </g>
     </g>
     <g id="text_5">
      <!-- 40 -->
      <g transform="translate(349.723415 329.996562) scale(0.1 -0.1)">
       <defs>
        <path id="DejaVuSans-34" d="M 2419 4116 
L 825 1625 
L 2419 1625 
L 2419 4116 
z
M 2253 4666 
L 3047 4666 
L 3047 1625 
L 3713 1625 
L 3713 1100 
L 3047 1100 
L 3047 0 
L 2419 0 
L 2419 1100 
L 313 1100 
L 313 1709 
L 2253 4666 
z
" transform="scale(0.015625)"/>
       </defs>
       <use xlink:href="#DejaVuSans-34"/>
       <use xlink:href="#DejaVuSans-30" transform="translate(63.623047 0)"/>
      </g>
     </g>
    </g>
    <g id="xtick_6">
     <g id="line2d_6">
      <g>
       <use xlink:href="#mff51afea99" x="420.022628" y="315.398125" style="stroke: #000000; stroke-width: 0.8"/>
      </g>
     </g>
     <g id="text_6">
      <!-- 50 -->
      <g transform="translate(413.660128 329.996562) scale(0.1 -0.1)">
       <defs>
        <path id="DejaVuSans-35" d="M 691 4666 
L 3169 4666 
L 3169 4134 
L 1269 4134 
L 1269 2991 
Q 1406 3038 1543 3061 
Q 1681 3084 1819 3084 
Q 2600 3084 3056 2656 
Q 3513 2228 3513 1497 
Q 3513 744 3044 326 
Q 2575 -91 1722 -91 
Q 1428 -91 1123 -41 
Q 819 9 494 109 
L 494 744 
Q 775 591 1075 516 
Q 1375 441 1709 441 
Q 2250 441 2565 725 
Q 2881 1009 2881 1497 
Q 2881 1984 2565 2268 
Q 2250 2553 1709 2553 
Q 1456 2553 1204 2497 
Q 953 2441 691 2322 
L 691 4666 
z
" transform="scale(0.015625)"/>
       </defs>
       <use xlink:href="#DejaVuSans-35"/>
       <use xlink:href="#DejaVuSans-30" transform="translate(63.623047 0)"/>
      </g>
     </g>
    </g>
    <g id="xtick_7">
     <g id="line2d_7">
      <g>
       <use xlink:href="#mff51afea99" x="483.959341" y="315.398125" style="stroke: #000000; stroke-width: 0.8"/>
      </g>
     </g>
     <g id="text_7">
      <!-- 60 -->
      <g transform="translate(477.596841 329.996562) scale(0.1 -0.1)">
       <defs>
        <path id="DejaVuSans-36" d="M 2113 2584 
Q 1688 2584 1439 2293 
Q 1191 2003 1191 1497 
Q 1191 994 1439 701 
Q 1688 409 2113 409 
Q 2538 409 2786 701 
Q 3034 994 3034 1497 
Q 3034 2003 2786 2293 
Q 2538 2584 2113 2584 
z
M 3366 4563 
L 3366 3988 
Q 3128 4100 2886 4159 
Q 2644 4219 2406 4219 
Q 1781 4219 1451 3797 
Q 1122 3375 1075 2522 
Q 1259 2794 1537 2939 
Q 1816 3084 2150 3084 
Q 2853 3084 3261 2657 
Q 3669 2231 3669 1497 
Q 3669 778 3244 343 
Q 2819 -91 2113 -91 
Q 1303 -91 875 529 
Q 447 1150 447 2328 
Q 447 3434 972 4092 
Q 1497 4750 2381 4750 
Q 2619 4750 2861 4703 
Q 3103 4656 3366 4563 
z
" transform="scale(0.015625)"/>
       </defs>
       <use xlink:href="#DejaVuSans-36"/>
       <use xlink:href="#DejaVuSans-30" transform="translate(63.623047 0)"/>
      </g>
     </g>
    </g>
    <g id="xtick_8">
     <g id="line2d_8">
      <g>
       <use xlink:href="#mff51afea99" x="547.896054" y="315.398125" style="stroke: #000000; stroke-width: 0.8"/>
      </g>
     </g>
     <g id="text_8">
      <!-- 70 -->
      <g transform="translate(541.533554 329.996562) scale(0.1 -0.1)">
       <defs>
        <path id="DejaVuSans-37" d="M 525 4666 
L 3525 4666 
L 3525 4397 
L 1831 0 
L 1172 0 
L 2766 4134 
L 525 4134 
L 525 4666 
z
" transform="scale(0.015625)"/>
       </defs>
       <use xlink:href="#DejaVuSans-37"/>
       <use xlink:href="#DejaVuSans-30" transform="translate(63.623047 0)"/>
      </g>
     </g>
    </g>
    <g id="xtick_9">
     <g id="line2d_9">
      <g>
       <use xlink:href="#mff51afea99" x="611.832767" y="315.398125" style="stroke: #000000; stroke-width: 0.8"/>
      </g>
     </g>
     <g id="text_9">
      <!-- 80 -->
      <g transform="translate(605.470267 329.996562) scale(0.1 -0.1)">
       <defs>
        <path id="DejaVuSans-38" d="M 2034 2216 
Q 1584 2216 1326 1975 
Q 1069 1734 1069 1313 
Q 1069 891 1326 650 
Q 1584 409 2034 409 
Q 2484 409 2743 651 
Q 3003 894 3003 1313 
Q 3003 1734 2745 1975 
Q 2488 2216 2034 2216 
z
M 1403 2484 
Q 997 2584 770 2862 
Q 544 3141 544 3541 
Q 544 4100 942 4425 
Q 1341 4750 2034 4750 
Q 2731 4750 3128 4425 
Q 3525 4100 3525 3541 
Q 3525 3141 3298 2862 
Q 3072 2584 2669 2484 
Q 3125 2378 3379 2068 
Q 3634 1759 3634 1313 
Q 3634 634 3220 271 
Q 2806 -91 2034 -91 
Q 1263 -91 848 271 
Q 434 634 434 1313 
Q 434 1759 690 2068 
Q 947 2378 1403 2484 
z
M 1172 3481 
Q 1172 3119 1398 2916 
Q 1625 2713 2034 2713 
Q 2441 2713 2670 2916 
Q 2900 3119 2900 3481 
Q 2900 3844 2670 4047 
Q 2441 4250 2034 4250 
Q 1625 4250 1398 4047 
Q 1172 3844 1172 3481 
z
" transform="scale(0.015625)"/>
       </defs>
       <use xlink:href="#DejaVuSans-38"/>
       <use xlink:href="#DejaVuSans-30" transform="translate(63.623047 0)"/>
      </g>
     </g>
    </g>
    <g id="text_10">
     <!-- Dropout rate (%) -->
     <g transform="translate(324.7575 343.674687) scale(0.1 -0.1)">
      <defs>
       <path id="DejaVuSans-44" d="M 1259 4147 
L 1259 519 
L 2022 519 
Q 2988 519 3436 956 
Q 3884 1394 3884 2338 
Q 3884 3275 3436 3711 
Q 2988 4147 2022 4147 
L 1259 4147 
z
M 628 4666 
L 1925 4666 
Q 3281 4666 3915 4102 
Q 4550 3538 4550 2338 
Q 4550 1131 3912 565 
Q 3275 0 1925 0 
L 628 0 
L 628 4666 
z
" transform="scale(0.015625)"/>
       <path id="DejaVuSans-72" d="M 2631 2963 
Q 2534 3019 2420 3045 
Q 2306 3072 2169 3072 
Q 1681 3072 1420 2755 
Q 1159 2438 1159 1844 
L 1159 0 
L 581 0 
L 581 3500 
L 1159 3500 
L 1159 2956 
Q 1341 3275 1631 3429 
Q 1922 3584 2338 3584 
Q 2397 3584 2469 3576 
Q 2541 3569 2628 3553 
L 2631 2963 
z
" transform="scale(0.015625)"/>
       <path id="DejaVuSans-6f" d="M 1959 3097 
Q 1497 3097 1228 2736 
Q 959 2375 959 1747 
Q 959 1119 1226 758 
Q 1494 397 1959 397 
Q 2419 397 2687 759 
Q 2956 1122 2956 1747 
Q 2956 2369 2687 2733 
Q 2419 3097 1959 3097 
z
M 1959 3584 
Q 2709 3584 3137 3096 
Q 3566 2609 3566 1747 
Q 3566 888 3137 398 
Q 2709 -91 1959 -91 
Q 1206 -91 779 398 
Q 353 888 353 1747 
Q 353 2609 779 3096 
Q 1206 3584 1959 3584 
z
" transform="scale(0.015625)"/>
       <path id="DejaVuSans-70" d="M 1159 525 
L 1159 -1331 
L 581 -1331 
L 581 3500 
L 1159 3500 
L 1159 2969 
Q 1341 3281 1617 3432 
Q 1894 3584 2278 3584 
Q 2916 3584 3314 3078 
Q 3713 2572 3713 1747 
Q 3713 922 3314 415 
Q 2916 -91 2278 -91 
Q 1894 -91 1617 61 
Q 1341 213 1159 525 
z
M 3116 1747 
Q 3116 2381 2855 2742 
Q 2594 3103 2138 3103 
Q 1681 3103 1420 2742 
Q 1159 2381 1159 1747 
Q 1159 1113 1420 752 
Q 1681 391 2138 391 
Q 2594 391 2855 752 
Q 3116 1113 3116 1747 
z
" transform="scale(0.015625)"/>
       <path id="DejaVuSans-75" d="M 544 1381 
L 544 3500 
L 1119 3500 
L 1119 1403 
Q 1119 906 1312 657 
Q 1506 409 1894 409 
Q 2359 409 2629 706 
Q 2900 1003 2900 1516 
L 2900 3500 
L 3475 3500 
L 3475 0 
L 2900 0 
L 2900 538 
Q 2691 219 2414 64 
Q 2138 -91 1772 -91 
Q 1169 -91 856 284 
Q 544 659 544 1381 
z
M 1991 3584 
L 1991 3584 
z
" transform="scale(0.015625)"/>
       <path id="DejaVuSans-74" d="M 1172 4494 
L 1172 3500 
L 2356 3500 
L 2356 3053 
L 1172 3053 
L 1172 1153 
Q 1172 725 1289 603 
Q 1406 481 1766 481 
L 2356 481 
L 2356 0 
L 1766 0 
Q 1100 0 847 248 
Q 594 497 594 1153 
L 594 3053 
L 172 3053 
L 172 3500 
L 594 3500 
L 594 4494 
L 1172 4494 
z
" transform="scale(0.015625)"/>
       <path id="DejaVuSans-20" transform="scale(0.015625)"/>
       <path id="DejaVuSans-61" d="M 2194 1759 
Q 1497 1759 1228 1600 
Q 959 1441 959 1056 
Q 959 750 1161 570 
Q 1363 391 1709 391 
Q 2188 391 2477 730 
Q 2766 1069 2766 1631 
L 2766 1759 
L 2194 1759 
z
M 3341 1997 
L 3341 0 
L 2766 0 
L 2766 531 
Q 2569 213 2275 61 
Q 1981 -91 1556 -91 
Q 1019 -91 701 211 
Q 384 513 384 1019 
Q 384 1609 779 1909 
Q 1175 2209 1959 2209 
L 2766 2209 
L 2766 2266 
Q 2766 2663 2505 2880 
Q 2244 3097 1772 3097 
Q 1472 3097 1187 3025 
Q 903 2953 641 2809 
L 641 3341 
Q 956 3463 1253 3523 
Q 1550 3584 1831 3584 
Q 2591 3584 2966 3190 
Q 3341 2797 3341 1997 
z
" transform="scale(0.015625)"/>
       <path id="DejaVuSans-65" d="M 3597 1894 
L 3597 1613 
L 953 1613 
Q 991 1019 1311 708 
Q 1631 397 2203 397 
Q 2534 397 2845 478 
Q 3156 559 3463 722 
L 3463 178 
Q 3153 47 2828 -22 
Q 2503 -91 2169 -91 
Q 1331 -91 842 396 
Q 353 884 353 1716 
Q 353 2575 817 3079 
Q 1281 3584 2069 3584 
Q 2775 3584 3186 3129 
Q 3597 2675 3597 1894 
z
M 3022 2063 
Q 3016 2534 2758 2815 
Q 2500 3097 2075 3097 
Q 1594 3097 1305 2825 
Q 1016 2553 972 2059 
L 3022 2063 
z
" transform="scale(0.015625)"/>
       <path id="DejaVuSans-28" d="M 1984 4856 
Q 1566 4138 1362 3434 
Q 1159 2731 1159 2009 
Q 1159 1288 1364 580 
Q 1569 -128 1984 -844 
L 1484 -844 
Q 1016 -109 783 600 
Q 550 1309 550 2009 
Q 550 2706 781 3412 
Q 1013 4119 1484 4856 
L 1984 4856 
z
" transform="scale(0.015625)"/>
       <path id="DejaVuSans-25" d="M 4653 2053 
Q 4381 2053 4226 1822 
Q 4072 1591 4072 1178 
Q 4072 772 4226 539 
Q 4381 306 4653 306 
Q 4919 306 5073 539 
Q 5228 772 5228 1178 
Q 5228 1588 5073 1820 
Q 4919 2053 4653 2053 
z
M 4653 2450 
Q 5147 2450 5437 2106 
Q 5728 1763 5728 1178 
Q 5728 594 5436 251 
Q 5144 -91 4653 -91 
Q 4153 -91 3862 251 
Q 3572 594 3572 1178 
Q 3572 1766 3864 2108 
Q 4156 2450 4653 2450 
z
M 1428 4353 
Q 1159 4353 1004 4120 
Q 850 3888 850 3481 
Q 850 3069 1003 2837 
Q 1156 2606 1428 2606 
Q 1700 2606 1854 2837 
Q 2009 3069 2009 3481 
Q 2009 3884 1853 4118 
Q 1697 4353 1428 4353 
z
M 4250 4750 
L 4750 4750 
L 1831 -91 
L 1331 -91 
L 4250 4750 
z
M 1428 4750 
Q 1922 4750 2215 4408 
Q 2509 4066 2509 3481 
Q 2509 2891 2217 2550 
Q 1925 2209 1428 2209 
Q 931 2209 642 2551 
Q 353 2894 353 3481 
Q 353 4063 643 4406 
Q 934 4750 1428 4750 
z
" transform="scale(0.015625)"/>
       <path id="DejaVuSans-29" d="M 513 4856 
L 1013 4856 
Q 1481 4119 1714 3412 
Q 1947 2706 1947 2009 
Q 1947 1309 1714 600 
Q 1481 -109 1013 -844 
L 513 -844 
Q 928 -128 1133 580 
Q 1338 1288 1338 2009 
Q 1338 2731 1133 3434 
Q 928 4138 513 4856 
z
" transform="scale(0.015625)"/>
      </defs>
      <use xlink:href="#DejaVuSans-44"/>
      <use xlink:href="#DejaVuSans-72" transform="translate(77.001953 0)"/>
      <use xlink:href="#DejaVuSans-6f" transform="translate(115.865234 0)"/>
      <use xlink:href="#DejaVuSans-70" transform="translate(177.046875 0)"/>
      <use xlink:href="#DejaVuSans-6f" transform="translate(240.523438 0)"/>
      <use xlink:href="#DejaVuSans-75" transform="translate(301.705078 0)"/>
      <use xlink:href="#DejaVuSans-74" transform="translate(365.083984 0)"/>
      <use xlink:href="#DejaVuSans-20" transform="translate(404.292969 0)"/>
      <use xlink:href="#DejaVuSans-72" transform="translate(436.080078 0)"/>
      <use xlink:href="#DejaVuSans-61" transform="translate(477.193359 0)"/>
      <use xlink:href="#DejaVuSans-74" transform="translate(538.472656 0)"/>
      <use xlink:href="#DejaVuSans-65" transform="translate(577.681641 0)"/>
      <use xlink:href="#DejaVuSans-20" transform="translate(639.205078 0)"/>
      <use xlink:href="#DejaVuSans-28" transform="translate(670.992188 0)"/>
      <use xlink:href="#DejaVuSans-25" transform="translate(710.005859 0)"/>
      <use xlink:href="#DejaVuSans-29" transform="translate(805.025391 0)"/>
     </g>
    </g>
   </g>
   <g id="matplotlib.axis_2">
    <g id="ytick_1">
     <g id="line2d_10">
      <defs>
       <path id="mda2b3eec03" d="M 0 0 
L -3.5 0 
" style="stroke: #000000; stroke-width: 0.8"/>
      </defs>
      <g>
       <use xlink:href="#mda2b3eec03" x="100.339063" y="294.875324" style="stroke: #000000; stroke-width: 0.8"/>
      </g>
     </g>
     <g id="text_11">
      <!-- 224.0 (n=1040) -->
      <g transform="translate(13.5625 298.674543) scale(0.1 -0.1)">
       <defs>
        <path id="DejaVuSans-2e" d="M 684 794 
L 1344 794 
L 1344 0 
L 684 0 
L 684 794 
z
" transform="scale(0.015625)"/>
        <path id="DejaVuSans-6e" d="M 3513 2113 
L 3513 0 
L 2938 0 
L 2938 2094 
Q 2938 2591 2744 2837 
Q 2550 3084 2163 3084 
Q 1697 3084 1428 2787 
Q 1159 2491 1159 1978 
L 1159 0 
L 581 0 
L 581 3500 
L 1159 3500 
L 1159 2956 
Q 1366 3272 1645 3428 
Q 1925 3584 2291 3584 
Q 2894 3584 3203 3211 
Q 3513 2838 3513 2113 
z
" transform="scale(0.015625)"/>
        <path id="DejaVuSans-3d" d="M 678 2906 
L 4684 2906 
L 4684 2381 
L 678 2381 
L 678 2906 
z
M 678 1631 
L 4684 1631 
L 4684 1100 
L 678 1100 
L 678 1631 
z
" transform="scale(0.015625)"/>
       </defs>
       <use xlink:href="#DejaVuSans-32"/>
       <use xlink:href="#DejaVuSans-32" transform="translate(63.623047 0)"/>
       <use xlink:href="#DejaVuSans-34" transform="translate(127.246094 0)"/>
       <use xlink:href="#DejaVuSans-2e" transform="translate(190.869141 0)"/>
       <use xlink:href="#DejaVuSans-30" transform="translate(222.65625 0)"/>
       <use xlink:href="#DejaVuSans-20" transform="translate(286.279297 0)"/>
       <use xlink:href="#DejaVuSans-28" transform="translate(318.066406 0)"/>
       <use xlink:href="#DejaVuSans-6e" transform="translate(357.080078 0)"/>
       <use xlink:href="#DejaVuSans-3d" transform="translate(420.458984 0)"/>
       <use xlink:href="#DejaVuSans-31" transform="translate(504.248047 0)"/>
       <use xlink:href="#DejaVuSans-30" transform="translate(567.871094 0)"/>
       <use xlink:href="#DejaVuSans-34" transform="translate(631.494141 0)"/>
       <use xlink:href="#DejaVuSans-30" transform="translate(695.117188 0)"/>
       <use xlink:href="#DejaVuSans-29" transform="translate(758.740234 0)"/>
      </g>
     </g>
    </g>
    <g id="ytick_2">
     <g id="line2d_11">
      <g>
       <use xlink:href="#mda2b3eec03" x="100.339063" y="276.872867" style="stroke: #000000; stroke-width: 0.8"/>
      </g>
     </g>
     <g id="text_12">
      <!-- 104.0 (n=2087) -->
      <g transform="translate(13.5625 280.672086) scale(0.1 -0.1)">
       <use xlink:href="#DejaVuSans-31"/>
       <use xlink:href="#DejaVuSans-30" transform="translate(63.623047 0)"/>
       <use xlink:href="#DejaVuSans-34" transform="translate(127.246094 0)"/>
       <use xlink:href="#DejaVuSans-2e" transform="translate(190.869141 0)"/>
       <use xlink:href="#DejaVuSans-30" transform="translate(222.65625 0)"/>
       <use xlink:href="#DejaVuSans-20" transform="translate(286.279297 0)"/>
       <use xlink:href="#DejaVuSans-28" transform="translate(318.066406 0)"/>
       <use xlink:href="#DejaVuSans-6e" transform="translate(357.080078 0)"/>
       <use xlink:href="#DejaVuSans-3d" transform="translate(420.458984 0)"/>
       <use xlink:href="#DejaVuSans-32" transform="translate(504.248047 0)"/>
       <use xlink:href="#DejaVuSans-30" transform="translate(567.871094 0)"/>
       <use xlink:href="#DejaVuSans-38" transform="translate(631.494141 0)"/>
       <use xlink:href="#DejaVuSans-37" transform="translate(695.117188 0)"/>
       <use xlink:href="#DejaVuSans-29" transform="translate(758.740234 0)"/>
      </g>
     </g>
    </g>
    <g id="ytick_3">
     <g id="line2d_12">
      <g>
       <use xlink:href="#mda2b3eec03" x="100.339063" y="258.87041" style="stroke: #000000; stroke-width: 0.8"/>
      </g>
     </g>
     <g id="text_13">
      <!-- 264.0 (n=1895) -->
      <g transform="translate(13.5625 262.669629) scale(0.1 -0.1)">
       <defs>
        <path id="DejaVuSans-39" d="M 703 97 
L 703 672 
Q 941 559 1184 500 
Q 1428 441 1663 441 
Q 2288 441 2617 861 
Q 2947 1281 2994 2138 
Q 2813 1869 2534 1725 
Q 2256 1581 1919 1581 
Q 1219 1581 811 2004 
Q 403 2428 403 3163 
Q 403 3881 828 4315 
Q 1253 4750 1959 4750 
Q 2769 4750 3195 4129 
Q 3622 3509 3622 2328 
Q 3622 1225 3098 567 
Q 2575 -91 1691 -91 
Q 1453 -91 1209 -44 
Q 966 3 703 97 
z
M 1959 2075 
Q 2384 2075 2632 2365 
Q 2881 2656 2881 3163 
Q 2881 3666 2632 3958 
Q 2384 4250 1959 4250 
Q 1534 4250 1286 3958 
Q 1038 3666 1038 3163 
Q 1038 2656 1286 2365 
Q 1534 2075 1959 2075 
z
" transform="scale(0.015625)"/>
       </defs>
       <use xlink:href="#DejaVuSans-32"/>
       <use xlink:href="#DejaVuSans-36" transform="translate(63.623047 0)"/>
       <use xlink:href="#DejaVuSans-34" transform="translate(127.246094 0)"/>
       <use xlink:href="#DejaVuSans-2e" transform="translate(190.869141 0)"/>
       <use xlink:href="#DejaVuSans-30" transform="translate(222.65625 0)"/>
       <use xlink:href="#DejaVuSans-20" transform="translate(286.279297 0)"/>
       <use xlink:href="#DejaVuSans-28" transform="translate(318.066406 0)"/>
       <use xlink:href="#DejaVuSans-6e" transform="translate(357.080078 0)"/>
       <use xlink:href="#DejaVuSans-3d" transform="translate(420.458984 0)"/>
       <use xlink:href="#DejaVuSans-31" transform="translate(504.248047 0)"/>
       <use xlink:href="#DejaVuSans-38" transform="translate(567.871094 0)"/>
       <use xlink:href="#DejaVuSans-39" transform="translate(631.494141 0)"/>
       <use xlink:href="#DejaVuSans-35" transform="translate(695.117188 0)"/>
       <use xlink:href="#DejaVuSans-29" transform="translate(758.740234 0)"/>
      </g>
     </g>
    </g>
    <g id="ytick_4">
     <g id="line2d_13">
      <g>
       <use xlink:href="#mda2b3eec03" x="100.339063" y="240.867953" style="stroke: #000000; stroke-width: 0.8"/>
      </g>
     </g>
     <g id="text_14">
      <!-- 220.0 (n=416) -->
      <g transform="translate(19.925 244.667172) scale(0.1 -0.1)">
       <use xlink:href="#DejaVuSans-32"/>
       <use xlink:href="#DejaVuSans-32" transform="translate(63.623047 0)"/>
       <use xlink:href="#DejaVuSans-30" transform="translate(127.246094 0)"/>
       <use xlink:href="#DejaVuSans-2e" transform="translate(190.869141 0)"/>
       <use xlink:href="#DejaVuSans-30" transform="translate(222.65625 0)"/>
       <use xlink:href="#DejaVuSans-20" transform="translate(286.279297 0)"/>
       <use xlink:href="#DejaVuSans-28" transform="translate(318.066406 0)"/>
       <use xlink:href="#DejaVuSans-6e" transform="translate(357.080078 0)"/>
       <use xlink:href="#DejaVuSans-3d" transform="translate(420.458984 0)"/>
       <use xlink:href="#DejaVuSans-34" transform="translate(504.248047 0)"/>
       <use xlink:href="#DejaVuSans-31" transform="translate(567.871094 0)"/>
       <use xlink:href="#DejaVuSans-36" transform="translate(631.494141 0)"/>
       <use xlink:href="#DejaVuSans-29" transform="translate(695.117188 0)"/>
      </g>
     </g>
    </g>
    <g id="ytick_5">
     <g id="line2d_14">
      <g>
       <use xlink:href="#mda2b3eec03" x="100.339063" y="222.865496" style="stroke: #000000; stroke-width: 0.8"/>
      </g>
     </g>
     <g id="text_15">
      <!-- 158.0 (n=705) -->
      <g transform="translate(19.925 226.664715) scale(0.1 -0.1)">
       <use xlink:href="#DejaVuSans-31"/>
       <use xlink:href="#DejaVuSans-35" transform="translate(63.623047 0)"/>
       <use xlink:href="#DejaVuSans-38" transform="translate(127.246094 0)"/>
       <use xlink:href="#DejaVuSans-2e" transform="translate(190.869141 0)"/>
       <use xlink:href="#DejaVuSans-30" transform="translate(222.65625 0)"/>
       <use xlink:href="#DejaVuSans-20" transform="translate(286.279297 0)"/>
       <use xlink:href="#DejaVuSans-28" transform="translate(318.066406 0)"/>
       <use xlink:href="#DejaVuSans-6e" transform="translate(357.080078 0)"/>
       <use xlink:href="#DejaVuSans-3d" transform="translate(420.458984 0)"/>
       <use xlink:href="#DejaVuSans-37" transform="translate(504.248047 0)"/>
       <use xlink:href="#DejaVuSans-30" transform="translate(567.871094 0)"/>
       <use xlink:href="#DejaVuSans-35" transform="translate(631.494141 0)"/>
       <use xlink:href="#DejaVuSans-29" transform="translate(695.117188 0)"/>
      </g>
     </g>
    </g>
    <g id="ytick_6">
     <g id="line2d_15">
      <g>
       <use xlink:href="#mda2b3eec03" x="100.339063" y="204.863039" style="stroke: #000000; stroke-width: 0.8"/>
      </g>
     </g>
     <g id="text_16">
      <!-- nan (n=8928) -->
      <g transform="translate(23.3875 208.662258) scale(0.1 -0.1)">
       <use xlink:href="#DejaVuSans-6e"/>
       <use xlink:href="#DejaVuSans-61" transform="translate(63.378906 0)"/>
       <use xlink:href="#DejaVuSans-6e" transform="translate(124.658203 0)"/>
       <use xlink:href="#DejaVuSans-20" transform="translate(188.037109 0)"/>
       <use xlink:href="#DejaVuSans-28" transform="translate(219.824219 0)"/>
       <use xlink:href="#DejaVuSans-6e" transform="translate(258.837891 0)"/>
       <use xlink:href="#DejaVuSans-3d" transform="translate(322.216797 0)"/>
       <use xlink:href="#DejaVuSans-38" transform="translate(406.005859 0)"/>
       <use xlink:href="#DejaVuSans-39" transform="translate(469.628906 0)"/>
       <use xlink:href="#DejaVuSans-32" transform="translate(533.251953 0)"/>
       <use xlink:href="#DejaVuSans-38" transform="translate(596.875 0)"/>
       <use xlink:href="#DejaVuSans-29" transform="translate(660.498047 0)"/>
      </g>
     </g>
    </g>
    <g id="ytick_7">
     <g id="line2d_16">
      <g>
       <use xlink:href="#mda2b3eec03" x="100.339063" y="186.860582" style="stroke: #000000; stroke-width: 0.8"/>
      </g>
     </g>
     <g id="text_17">
      <!-- 219.0 (n=1584) -->
      <g transform="translate(13.5625 190.659801) scale(0.1 -0.1)">
       <use xlink:href="#DejaVuSans-32"/>
       <use xlink:href="#DejaVuSans-31" transform="translate(63.623047 0)"/>
       <use xlink:href="#DejaVuSans-39" transform="translate(127.246094 0)"/>
       <use xlink:href="#DejaVuSans-2e" transform="translate(190.869141 0)"/>
       <use xlink:href="#DejaVuSans-30" transform="translate(222.65625 0)"/>
       <use xlink:href="#DejaVuSans-20" transform="translate(286.279297 0)"/>
       <use xlink:href="#DejaVuSans-28" transform="translate(318.066406 0)"/>
       <use xlink:href="#DejaVuSans-6e" transform="translate(357.080078 0)"/>
       <use xlink:href="#DejaVuSans-3d" transform="translate(420.458984 0)"/>
       <use xlink:href="#DejaVuSans-31" transform="translate(504.248047 0)"/>
       <use xlink:href="#DejaVuSans-35" transform="translate(567.871094 0)"/>
       <use xlink:href="#DejaVuSans-38" transform="translate(631.494141 0)"/>
       <use xlink:href="#DejaVuSans-34" transform="translate(695.117188 0)"/>
       <use xlink:href="#DejaVuSans-29" transform="translate(758.740234 0)"/>
      </g>
     </g>
    </g>
    <g id="ytick_8">
     <g id="line2d_17">
      <g>
       <use xlink:href="#mda2b3eec03" x="100.339063" y="168.858125" style="stroke: #000000; stroke-width: 0.8"/>
      </g>
     </g>
     <g id="text_18">
      <!-- 184.0 (n=17644) -->
      <g transform="translate(7.2 172.657344) scale(0.1 -0.1)">
       <use xlink:href="#DejaVuSans-31"/>
       <use xlink:href="#DejaVuSans-38" transform="translate(63.623047 0)"/>
       <use xlink:href="#DejaVuSans-34" transform="translate(127.246094 0)"/>
       <use xlink:href="#DejaVuSans-2e" transform="translate(190.869141 0)"/>
       <use xlink:href="#DejaVuSans-30" transform="translate(222.65625 0)"/>
       <use xlink:href="#DejaVuSans-20" transform="translate(286.279297 0)"/>
       <use xlink:href="#DejaVuSans-28" transform="translate(318.066406 0)"/>
       <use xlink:href="#DejaVuSans-6e" transform="translate(357.080078 0)"/>
       <use xlink:href="#DejaVuSans-3d" transform="translate(420.458984 0)"/>
       <use xlink:href="#DejaVuSans-31" transform="translate(504.248047 0)"/>
       <use xlink:href="#DejaVuSans-37" transform="translate(567.871094 0)"/>
       <use xlink:href="#DejaVuSans-36" transform="translate(631.494141 0)"/>
       <use xlink:href="#DejaVuSans-34" transform="translate(695.117188 0)"/>
       <use xlink:href="#DejaVuSans-34" transform="translate(758.740234 0)"/>
       <use xlink:href="#DejaVuSans-29" transform="translate(822.363281 0)"/>
      </g>
     </g>
    </g>
    <g id="ytick_9">
     <g id="line2d_18">
      <g>
       <use xlink:href="#mda2b3eec03" x="100.339063" y="150.855668" style="stroke: #000000; stroke-width: 0.8"/>
      </g>
     </g>
     <g id="text_19">
      <!-- 258.0 (n=398) -->
      <g transform="translate(19.925 154.654887) scale(0.1 -0.1)">
       <use xlink:href="#DejaVuSans-32"/>
       <use xlink:href="#DejaVuSans-35" transform="translate(63.623047 0)"/>
       <use xlink:href="#DejaVuSans-38" transform="translate(127.246094 0)"/>
       <use xlink:href="#DejaVuSans-2e" transform="translate(190.869141 0)"/>
       <use xlink:href="#DejaVuSans-30" transform="translate(222.65625 0)"/>
       <use xlink:href="#DejaVuSans-20" transform="translate(286.279297 0)"/>
       <use xlink:href="#DejaVuSans-28" transform="translate(318.066406 0)"/>
       <use xlink:href="#DejaVuSans-6e" transform="translate(357.080078 0)"/>
       <use xlink:href="#DejaVuSans-3d" transform="translate(420.458984 0)"/>
       <use xlink:href="#DejaVuSans-33" transform="translate(504.248047 0)"/>
       <use xlink:href="#DejaVuSans-39" transform="translate(567.871094 0)"/>
       <use xlink:href="#DejaVuSans-38" transform="translate(631.494141 0)"/>
       <use xlink:href="#DejaVuSans-29" transform="translate(695.117188 0)"/>
      </g>
     </g>
    </g>
    <g id="ytick_10">
     <g id="line2d_19">
      <g>
       <use xlink:href="#mda2b3eec03" x="100.339063" y="132.853211" style="stroke: #000000; stroke-width: 0.8"/>
      </g>
     </g>
     <g id="text_20">
      <!-- 205.0 (n=874) -->
      <g transform="translate(19.925 136.65243) scale(0.1 -0.1)">
       <use xlink:href="#DejaVuSans-32"/>
       <use xlink:href="#DejaVuSans-30" transform="translate(63.623047 0)"/>
       <use xlink:href="#DejaVuSans-35" transform="translate(127.246094 0)"/>
       <use xlink:href="#DejaVuSans-2e" transform="translate(190.869141 0)"/>
       <use xlink:href="#DejaVuSans-30" transform="translate(222.65625 0)"/>
       <use xlink:href="#DejaVuSans-20" transform="translate(286.279297 0)"/>
       <use xlink:href="#DejaVuSans-28" transform="translate(318.066406 0)"/>
       <use xlink:href="#DejaVuSans-6e" transform="translate(357.080078 0)"/>
       <use xlink:href="#DejaVuSans-3d" transform="translate(420.458984 0)"/>
       <use xlink:href="#DejaVuSans-38" transform="translate(504.248047 0)"/>
       <use xlink:href="#DejaVuSans-37" transform="translate(567.871094 0)"/>
       <use xlink:href="#DejaVuSans-34" transform="translate(631.494141 0)"/>
       <use xlink:href="#DejaVuSans-29" transform="translate(695.117188 0)"/>
      </g>
     </g>
    </g>
    <g id="ytick_11">
     <g id="line2d_20">
      <g>
       <use xlink:href="#mda2b3eec03" x="100.339063" y="114.850754" style="stroke: #000000; stroke-width: 0.8"/>
      </g>
     </g>
     <g id="text_21">
      <!-- 320.0 (n=814) -->
      <g transform="translate(19.925 118.649973) scale(0.1 -0.1)">
       <use xlink:href="#DejaVuSans-33"/>
       <use xlink:href="#DejaVuSans-32" transform="translate(63.623047 0)"/>
       <use xlink:href="#DejaVuSans-30" transform="translate(127.246094 0)"/>
       <use xlink:href="#DejaVuSans-2e" transform="translate(190.869141 0)"/>
       <use xlink:href="#DejaVuSans-30" transform="translate(222.65625 0)"/>
       <use xlink:href="#DejaVuSans-20" transform="translate(286.279297 0)"/>
       <use xlink:href="#DejaVuSans-28" transform="translate(318.066406 0)"/>
       <use xlink:href="#DejaVuSans-6e" transform="translate(357.080078 0)"/>
       <use xlink:href="#DejaVuSans-3d" transform="translate(420.458984 0)"/>
       <use xlink:href="#DejaVuSans-38" transform="translate(504.248047 0)"/>
       <use xlink:href="#DejaVuSans-31" transform="translate(567.871094 0)"/>
       <use xlink:href="#DejaVuSans-34" transform="translate(631.494141 0)"/>
       <use xlink:href="#DejaVuSans-29" transform="translate(695.117188 0)"/>
      </g>
     </g>
    </g>
    <g id="ytick_12">
     <g id="line2d_21">
      <g>
       <use xlink:href="#mda2b3eec03" x="100.339063" y="96.848297" style="stroke: #000000; stroke-width: 0.8"/>
      </g>
     </g>
     <g id="text_22">
      <!-- 138.0 (n=606) -->
      <g transform="translate(19.925 100.647516) scale(0.1 -0.1)">
       <use xlink:href="#DejaVuSans-31"/>
       <use xlink:href="#DejaVuSans-33" transform="translate(63.623047 0)"/>
       <use xlink:href="#DejaVuSans-38" transform="translate(127.246094 0)"/>
       <use xlink:href="#DejaVuSans-2e" transform="translate(190.869141 0)"/>
       <use xlink:href="#DejaVuSans-30" transform="translate(222.65625 0)"/>
       <use xlink:href="#DejaVuSans-20" transform="translate(286.279297 0)"/>
       <use xlink:href="#DejaVuSans-28" transform="translate(318.066406 0)"/>
       <use xlink:href="#DejaVuSans-6e" transform="translate(357.080078 0)"/>
       <use xlink:href="#DejaVuSans-3d" transform="translate(420.458984 0)"/>
       <use xlink:href="#DejaVuSans-36" transform="translate(504.248047 0)"/>
       <use xlink:href="#DejaVuSans-30" transform="translate(567.871094 0)"/>
       <use xlink:href="#DejaVuSans-36" transform="translate(631.494141 0)"/>
       <use xlink:href="#DejaVuSans-29" transform="translate(695.117188 0)"/>
      </g>
     </g>
    </g>
    <g id="ytick_13">
     <g id="line2d_22">
      <g>
       <use xlink:href="#mda2b3eec03" x="100.339063" y="78.84584" style="stroke: #000000; stroke-width: 0.8"/>
      </g>
     </g>
     <g id="text_23">
      <!-- 218.0 (n=5263) -->
      <g transform="translate(13.5625 82.645059) scale(0.1 -0.1)">
       <use xlink:href="#DejaVuSans-32"/>
       <use xlink:href="#DejaVuSans-31" transform="translate(63.623047 0)"/>
       <use xlink:href="#DejaVuSans-38" transform="translate(127.246094 0)"/>
       <use xlink:href="#DejaVuSans-2e" transform="translate(190.869141 0)"/>
       <use xlink:href="#DejaVuSans-30" transform="translate(222.65625 0)"/>
       <use xlink:href="#DejaVuSans-20" transform="translate(286.279297 0)"/>
       <use xlink:href="#DejaVuSans-28" transform="translate(318.066406 0)"/>
       <use xlink:href="#DejaVuSans-6e" transform="translate(357.080078 0)"/>
       <use xlink:href="#DejaVuSans-3d" transform="translate(420.458984 0)"/>
       <use xlink:href="#DejaVuSans-35" transform="translate(504.248047 0)"/>
       <use xlink:href="#DejaVuSans-32" transform="translate(567.871094 0)"/>
       <use xlink:href="#DejaVuSans-36" transform="translate(631.494141 0)"/>
       <use xlink:href="#DejaVuSans-33" transform="translate(695.117188 0)"/>
       <use xlink:href="#DejaVuSans-29" transform="translate(758.740234 0)"/>
      </g>
     </g>
    </g>
    <g id="ytick_14">
     <g id="line2d_23">
      <g>
       <use xlink:href="#mda2b3eec03" x="100.339063" y="60.843383" style="stroke: #000000; stroke-width: 0.8"/>
      </g>
     </g>
     <g id="text_24">
      <!-- 139.0 (n=602) -->
      <g transform="translate(19.925 64.642602) scale(0.1 -0.1)">
       <use xlink:href="#DejaVuSans-31"/>
       <use xlink:href="#DejaVuSans-33" transform="translate(63.623047 0)"/>
       <use xlink:href="#DejaVuSans-39" transform="translate(127.246094 0)"/>
       <use xlink:href="#DejaVuSans-2e" transform="translate(190.869141 0)"/>
       <use xlink:href="#DejaVuSans-30" transform="translate(222.65625 0)"/>
       <use xlink:href="#DejaVuSans-20" transform="translate(286.279297 0)"/>
       <use xlink:href="#DejaVuSans-28" transform="translate(318.066406 0)"/>
       <use xlink:href="#DejaVuSans-6e" transform="translate(357.080078 0)"/>
       <use xlink:href="#DejaVuSans-3d" transform="translate(420.458984 0)"/>
       <use xlink:href="#DejaVuSans-36" transform="translate(504.248047 0)"/>
       <use xlink:href="#DejaVuSans-30" transform="translate(567.871094 0)"/>
       <use xlink:href="#DejaVuSans-32" transform="translate(631.494141 0)"/>
       <use xlink:href="#DejaVuSans-29" transform="translate(695.117188 0)"/>
      </g>
     </g>
    </g>
    <g id="ytick_15">
     <g id="line2d_24">
      <g>
       <use xlink:href="#mda2b3eec03" x="100.339063" y="42.840926" style="stroke: #000000; stroke-width: 0.8"/>
      </g>
     </g>
     <g id="text_25">
      <!-- 129.0 (n=491) -->
      <g transform="translate(19.925 46.640145) scale(0.1 -0.1)">
       <use xlink:href="#DejaVuSans-31"/>
       <use xlink:href="#DejaVuSans-32" transform="translate(63.623047 0)"/>
       <use xlink:href="#DejaVuSans-39" transform="translate(127.246094 0)"/>
       <use xlink:href="#DejaVuSans-2e" transform="translate(190.869141 0)"/>
       <use xlink:href="#DejaVuSans-30" transform="translate(222.65625 0)"/>
       <use xlink:href="#DejaVuSans-20" transform="translate(286.279297 0)"/>
       <use xlink:href="#DejaVuSans-28" transform="translate(318.066406 0)"/>
       <use xlink:href="#DejaVuSans-6e" transform="translate(357.080078 0)"/>
       <use xlink:href="#DejaVuSans-3d" transform="translate(420.458984 0)"/>
       <use xlink:href="#DejaVuSans-34" transform="translate(504.248047 0)"/>
       <use xlink:href="#DejaVuSans-39" transform="translate(567.871094 0)"/>
       <use xlink:href="#DejaVuSans-31" transform="translate(631.494141 0)"/>
       <use xlink:href="#DejaVuSans-29" transform="translate(695.117188 0)"/>
      </g>
     </g>
    </g>
   </g>
   <g id="line2d_25">
    <path d="M 365.286475 315.398125 
L 365.286475 22.318125 
" clip-path="url(#p252fd78637)" style="fill: none; stroke-dasharray: 5.55,2.4; stroke-dashoffset: 0; stroke: #1f77b4; stroke-width: 1.5"/>
   </g>
   <g id="patch_18">
    <path d="M 100.339063 315.398125 
L 100.339063 22.318125 
" style="fill: none; stroke: #000000; stroke-width: 0.8; stroke-linejoin: miter; stroke-linecap: square"/>
   </g>
   <g id="patch_19">
    <path d="M 633.579062 315.398125 
L 633.579062 22.318125 
" style="fill: none; stroke: #000000; stroke-width: 0.8; stroke-linejoin: miter; stroke-linecap: square"/>
   </g>
   <g id="patch_20">
    <path d="M 100.339063 315.398125 
L 633.579062 315.398125 
" style="fill: none; stroke: #000000; stroke-width: 0.8; stroke-linejoin: miter; stroke-linecap: square"/>
   </g>
   <g id="patch_21">
    <path d="M 100.339063 22.318125 
L 633.579062 22.318125 
" style="fill: none; stroke: #000000; stroke-width: 0.8; stroke-linejoin: miter; stroke-linecap: square"/>
   </g>
   <g id="text_26">
    <!-- Dropout rate by Agent_ID -->
    <g transform="translate(290.282813 16.318125) scale(0.12 -0.12)">
     <defs>
      <path id="DejaVuSans-62" d="M 3116 1747 
Q 3116 2381 2855 2742 
Q 2594 3103 2138 3103 
Q 1681 3103 1420 2742 
Q 1159 2381 1159 1747 
Q 1159 1113 1420 752 
Q 1681 391 2138 391 
Q 2594 391 2855 752 
Q 3116 1113 3116 1747 
z
M 1159 2969 
Q 1341 3281 1617 3432 
Q 1894 3584 2278 3584 
Q 2916 3584 3314 3078 
Q 3713 2572 3713 1747 
Q 3713 922 3314 415 
Q 2916 -91 2278 -91 
Q 1894 -91 1617 61 
Q 1341 213 1159 525 
L 1159 0 
L 581 0 
L 581 4863 
L 1159 4863 
L 1159 2969 
z
" transform="scale(0.015625)"/>
      <path id="DejaVuSans-79" d="M 2059 -325 
Q 1816 -950 1584 -1140 
Q 1353 -1331 966 -1331 
L 506 -1331 
L 506 -850 
L 844 -850 
Q 1081 -850 1212 -737 
Q 1344 -625 1503 -206 
L 1606 56 
L 191 3500 
L 800 3500 
L 1894 763 
L 2988 3500 
L 3597 3500 
L 2059 -325 
z
" transform="scale(0.015625)"/>
      <path id="DejaVuSans-41" d="M 2188 4044 
L 1331 1722 
L 3047 1722 
L 2188 4044 
z
M 1831 4666 
L 2547 4666 
L 4325 0 
L 3669 0 
L 3244 1197 
L 1141 1197 
L 716 0 
L 50 0 
L 1831 4666 
z
" transform="scale(0.015625)"/>
      <path id="DejaVuSans-67" d="M 2906 1791 
Q 2906 2416 2648 2759 
Q 2391 3103 1925 3103 
Q 1463 3103 1205 2759 
Q 947 2416 947 1791 
Q 947 1169 1205 825 
Q 1463 481 1925 481 
Q 2391 481 2648 825 
Q 2906 1169 2906 1791 
z
M 3481 434 
Q 3481 -459 3084 -895 
Q 2688 -1331 1869 -1331 
Q 1566 -1331 1297 -1286 
Q 1028 -1241 775 -1147 
L 775 -588 
Q 1028 -725 1275 -790 
Q 1522 -856 1778 -856 
Q 2344 -856 2625 -561 
Q 2906 -266 2906 331 
L 2906 616 
Q 2728 306 2450 153 
Q 2172 0 1784 0 
Q 1141 0 747 490 
Q 353 981 353 1791 
Q 353 2603 747 3093 
Q 1141 3584 1784 3584 
Q 2172 3584 2450 3431 
Q 2728 3278 2906 2969 
L 2906 3500 
L 3481 3500 
L 3481 434 
z
" transform="scale(0.015625)"/>
      <path id="DejaVuSans-5f" d="M 3263 -1063 
L 3263 -1509 
L -63 -1509 
L -63 -1063 
L 3263 -1063 
z
" transform="scale(0.015625)"/>
      <path id="DejaVuSans-49" d="M 628 4666 
L 1259 4666 
L 1259 0 
L 628 0 
L 628 4666 
z
" transform="scale(0.015625)"/>
     </defs>
     <use xlink:href="#DejaVuSans-44"/>
     <use xlink:href="#DejaVuSans-72" transform="translate(77.001953 0)"/>
     <use xlink:href="#DejaVuSans-6f" transform="translate(115.865234 0)"/>
     <use xlink:href="#DejaVuSans-70" transform="translate(177.046875 0)"/>
     <use xlink:href="#DejaVuSans-6f" transform="translate(240.523438 0)"/>
     <use xlink:href="#DejaVuSans-75" transform="translate(301.705078 0)"/>
     <use xlink:href="#DejaVuSans-74" transform="translate(365.083984 0)"/>
     <use xlink:href="#DejaVuSans-20" transform="translate(404.292969 0)"/>
     <use xlink:href="#DejaVuSans-72" transform="translate(436.080078 0)"/>
     <use xlink:href="#DejaVuSans-61" transform="translate(477.193359 0)"/>
     <use xlink:href="#DejaVuSans-74" transform="translate(538.472656 0)"/>
     <use xlink:href="#DejaVuSans-65" transform="translate(577.681641 0)"/>
     <use xlink:href="#DejaVuSans-20" transform="translate(639.205078 0)"/>
     <use xlink:href="#DejaVuSans-62" transform="translate(670.992188 0)"/>
     <use xlink:href="#DejaVuSans-79" transform="translate(734.46875 0)"/>
     <use xlink:href="#DejaVuSans-20" transform="translate(793.648438 0)"/>
     <use xlink:href="#DejaVuSans-41" transform="translate(825.435547 0)"/>
     <use xlink:href="#DejaVuSans-67" transform="translate(893.84375 0)"/>
     <use xlink:href="#DejaVuSans-65" transform="translate(957.320312 0)"/>
     <use xlink:href="#DejaVuSans-6e" transform="translate(1018.84375 0)"/>
     <use xlink:href="#DejaVuSans-74" transform="translate(1082.222656 0)"/>
     <use xlink:href="#DejaVuSans-5f" transform="translate(1121.431641 0)"/>
     <use xlink:href="#DejaVuSans-49" transform="translate(1171.431641 0)"/>
     <use xlink:href="#DejaVuSans-44" transform="translate(1200.923828 0)"/>
    </g>
   </g>
   <g id="legend_1">
    <g id="patch_22">
     <path d="M 481.13375 310.398125 
L 626.579062 310.398125 
Q 628.579062 310.398125 628.579062 308.398125 
L 628.579062 294.72 
Q 628.579062 292.72 626.579062 292.72 
L 481.13375 292.72 
Q 479.13375 292.72 479.13375 294.72 
L 479.13375 308.398125 
Q 479.13375 310.398125 481.13375 310.398125 
z
" style="fill: #ffffff; opacity: 0.8; stroke: #cccccc; stroke-linejoin: miter"/>
    </g>
    <g id="line2d_26">
     <path d="M 483.13375 300.818437 
L 493.13375 300.818437 
L 503.13375 300.818437 
" style="fill: none; stroke-dasharray: 5.55,2.4; stroke-dashoffset: 0; stroke: #1f77b4; stroke-width: 1.5"/>
    </g>
    <g id="text_27">
     <!-- Dataset mean (41.4%) -->
     <g transform="translate(511.13375 304.318437) scale(0.1 -0.1)">
      <defs>
       <path id="DejaVuSans-73" d="M 2834 3397 
L 2834 2853 
Q 2591 2978 2328 3040 
Q 2066 3103 1784 3103 
Q 1356 3103 1142 2972 
Q 928 2841 928 2578 
Q 928 2378 1081 2264 
Q 1234 2150 1697 2047 
L 1894 2003 
Q 2506 1872 2764 1633 
Q 3022 1394 3022 966 
Q 3022 478 2636 193 
Q 2250 -91 1575 -91 
Q 1294 -91 989 -36 
Q 684 19 347 128 
L 347 722 
Q 666 556 975 473 
Q 1284 391 1588 391 
Q 1994 391 2212 530 
Q 2431 669 2431 922 
Q 2431 1156 2273 1281 
Q 2116 1406 1581 1522 
L 1381 1569 
Q 847 1681 609 1914 
Q 372 2147 372 2553 
Q 372 3047 722 3315 
Q 1072 3584 1716 3584 
Q 2034 3584 2315 3537 
Q 2597 3491 2834 3397 
z
" transform="scale(0.015625)"/>
       <path id="DejaVuSans-6d" d="M 3328 2828 
Q 3544 3216 3844 3400 
Q 4144 3584 4550 3584 
Q 5097 3584 5394 3201 
Q 5691 2819 5691 2113 
L 5691 0 
L 5113 0 
L 5113 2094 
Q 5113 2597 4934 2840 
Q 4756 3084 4391 3084 
Q 3944 3084 3684 2787 
Q 3425 2491 3425 1978 
L 3425 0 
L 2847 0 
L 2847 2094 
Q 2847 2600 2669 2842 
Q 2491 3084 2119 3084 
Q 1678 3084 1418 2786 
Q 1159 2488 1159 1978 
L 1159 0 
L 581 0 
L 581 3500 
L 1159 3500 
L 1159 2956 
Q 1356 3278 1631 3431 
Q 1906 3584 2284 3584 
Q 2666 3584 2933 3390 
Q 3200 3197 3328 2828 
z
" transform="scale(0.015625)"/>
      </defs>
      <use xlink:href="#DejaVuSans-44"/>
      <use xlink:href="#DejaVuSans-61" transform="translate(77.001953 0)"/>
      <use xlink:href="#DejaVuSans-74" transform="translate(138.28125 0)"/>
      <use xlink:href="#DejaVuSans-61" transform="translate(177.490234 0)"/>
      <use xlink:href="#DejaVuSans-73" transform="translate(238.769531 0)"/>
      <use xlink:href="#DejaVuSans-65" transform="translate(290.869141 0)"/>
      <use xlink:href="#DejaVuSans-74" transform="translate(352.392578 0)"/>
      <use xlink:href="#DejaVuSans-20" transform="translate(391.601562 0)"/>
      <use xlink:href="#DejaVuSans-6d" transform="translate(423.388672 0)"/>
      <use xlink:href="#DejaVuSans-65" transform="translate(520.800781 0)"/>
      <use xlink:href="#DejaVuSans-61" transform="translate(582.324219 0)"/>
      <use xlink:href="#DejaVuSans-6e" transform="translate(643.603516 0)"/>
      <use xlink:href="#DejaVuSans-20" transform="translate(706.982422 0)"/>
      <use xlink:href="#DejaVuSans-28" transform="translate(738.769531 0)"/>
      <use xlink:href="#DejaVuSans-34" transform="translate(777.783203 0)"/>
      <use xlink:href="#DejaVuSans-31" transform="translate(841.40625 0)"/>
      <use xlink:href="#DejaVuSans-2e" transform="translate(905.029297 0)"/>
      <use xlink:href="#DejaVuSans-34" transform="translate(936.816406 0)"/>
      <use xlink:href="#DejaVuSans-25" transform="translate(1000.439453 0)"/>
      <use xlink:href="#DejaVuSans-29" transform="translate(1095.458984 0)"/>
     </g>
    </g>
   </g>
  </g>
 </g>
 <defs>
  <clipPath id="p252fd78637">
   <rect x="100.339063" y="22.318125" width="533.24" height="293.08"/>
  </clipPath>
 </defs>
</svg>
